<svg xmlns="http://www.w3.org/2000/svg" id="svg" width="400" height="400" viewBox="0 0 400 400"><g id="svgg" fill-rule="evenodd" stroke="none"><path id="path0" fill="#2a9d90" d="M184.818 23.074c-1.64.09-3.17.316-3.4.501s-2.263.466-4.518.624-4.1.422-4.1.587-1.222.413-2.717.552c-1.494.138-4.133.614-5.864 1.057s-3.658.805-4.283.805-1.136.162-1.136.361-1.08.486-2.4.639-2.4.425-2.4.603-1.26.55-2.8.825-2.8.635-2.8.801c0 .165-.72.422-1.6.571s-1.6.4-1.6.56c0 .159-.945.526-2.1.816s-2.28.663-2.5.829c-.22.167-.985.428-1.7.581s-1.3.423-1.3.601-.675.45-1.5.605-2.255.624-3.178 1.044-1.868.764-2.1.764a.413.413 0 0 0-.422.4c0 .22-.225.402-.5.404s-1.4.446-2.5.987-2.225.99-2.5.996-.5.179-.5.381c0 .203-.54.487-1.2.632s-1.2.429-1.2.632c0 .202-.222.368-.494.368-.516 0-4.758 2.017-5.106 2.428-.11.13-.785.491-1.5.802s-1.3.701-1.3.868c0 .166-.276.302-.613.302s-.711.259-.833.576c-.121.316-.758.693-1.414.837-.657.144-1.287.504-1.4.8-.114.296-.732.653-1.373.794-.642.141-1.167.432-1.167.646s-.54.577-1.2.807-1.2.581-1.2.779-.242.361-.539.361c-.296 0-.954.36-1.461.8s-1.122.8-1.365.8-.667.36-.942.8-.703.8-.951.8c-.247 0-.867.45-1.377 1s-1.07 1-1.246 1c-.314.001-2.114 1.39-3.353 2.587-.348.337-.815.613-1.038.613-.222 0-.73.36-1.128.8s-.882.8-1.075.8c-.194 0-.88.54-1.525 1.2S87.105 64 86.956 64s-1.491 1.26-2.983 2.8-2.862 2.8-3.044 2.8c-.533 0-10.129 9.621-10.129 10.155 0 .134-1.17 1.407-2.6 2.83s-2.6 2.742-2.6 2.932-.63.869-1.4 1.511-1.4 1.395-1.4 1.674-.36.814-.8 1.191-.8.915-.8 1.196-.184.511-.409.511-.626.478-.892 1.061c-.266.584-.937 1.567-1.491 2.185-1.825 2.034-2.266 2.607-2.526 3.285-.141.368-.421.669-.621.669s-.588.54-.861 1.2-.655 1.2-.849 1.2-.351.242-.351.539c0 .296-.36.954-.8 1.461s-.8 1.165-.8 1.461-.146.539-.325.539-.57.623-.868 1.383c-.299.761-.783 1.476-1.075 1.588-.293.112-.532.48-.532.816 0 .337-.146.613-.325.613s-.573.63-.875 1.4-.696 1.4-.875 1.4-.325.248-.325.551-.261.767-.58 1.032-.794 1.142-1.058 1.949c-.263.807-.589 1.558-.724 1.668-.495.402-2.438 4.631-2.438 5.306 0 .382-.16.694-.357.694s-.48.493-.631 1.096-.398 1.188-.548 1.3c-.5.375-2.464 4.606-2.464 5.31 0 .382-.166.694-.368.694-.203 0-.494.585-.646 1.3s-.414 1.48-.58 1.7-.523 1.345-.794 2.5c-.27 1.155-.638 2.1-.817 2.1s-.446.72-.595 1.6-.422 1.6-.606 1.6c-.185 0-.558.99-.829 2.2s-.62 2.2-.777 2.2-.404.9-.55 2-.404 2-.572 2c-.169 0-.548 1.395-.843 3.1-.296 1.705-.671 3.28-.835 3.5s-.425 1.345-.581 2.5c-.155 1.154-.431 2.191-.613 2.304s-.449 1.418-.593 2.9c-.143 1.483-.505 3.596-.803 4.696s-.669 3.71-.825 5.8-.483 3.928-.728 4.085c-.631.405-.631 39.425 0 39.83.245.157.573 1.995.728 4.085s.527 4.7.825 5.8.66 3.213.803 4.696.411 2.788.593 2.9.458 1.15.613 2.304c.156 1.155.417 2.28.581 2.5s.539 1.795.835 3.5.674 3.1.843 3.1.426.9.572 2 .393 2 .55 2c.156 0 .522.99.812 2.2s.663 2.2.829 2.2.422.72.571 1.6.417 1.6.595 1.6c.179 0 .547.945.817 2.1.271 1.155.628 2.28.794 2.5s.427.985.58 1.7.443 1.3.646 1.3c.202 0 .368.312.368.694 0 .704 1.964 4.935 2.464 5.31.15.112.396.697.548 1.3.151.603.435 1.096.631 1.096.197 0 .357.312.357.694 0 .675 1.943 4.904 2.438 5.306.135.11.461.861.724 1.668.264.807.74 1.684 1.058 1.949s.58.729.58 1.032.146.551.325.551.573.63.875 1.4.696 1.4.875 1.4.325.276.325.613.239.704.532.816c.292.112.776.827 1.075 1.588.298.76.689 1.383.868 1.383s.325.242.325.539c0 .296.36.954.8 1.461s.8 1.165.8 1.461.158.539.351.539c.194 0 .576.54.849 1.2s.661 1.2.861 1.2.48.301.621.669c.269.703.711 1.28 2.468 3.227.586.65 1.283 1.659 1.549 2.243s.668 1.061.892 1.061c.225 0 .409.23.409.511s.36.819.8 1.196.8.913.8 1.191c0 .279.63 1.032 1.4 1.674s1.4 1.322 1.4 1.511c0 .19 1.17 1.509 2.6 2.932s2.6 2.696 2.6 2.83c0 .534 9.596 10.155 10.129 10.155.182 0 1.552 1.26 3.044 2.8s2.834 2.8 2.983 2.8.799.54 1.444 1.2 1.331 1.2 1.525 1.2.677.36 1.075.8.906.8 1.128.8c.223 0 .69.276 1.038.613 1.239 1.197 3.039 2.586 3.353 2.587.176 0 .736.45 1.246 1s1.13 1 1.377 1 .676.36.951.8.699.8.942.8.858.36 1.365.8 1.165.8 1.461.8.539.162.539.361.54.549 1.2.779 1.2.593 1.2.807.525.505 1.167.646c.641.141 1.259.498 1.373.794.113.296.743.656 1.4.8s1.293.521 1.414.837c.122.317.497.576.833.576.337 0 .613.136.613.302 0 .167.585.557 1.3.868s1.39.672 1.5.802c.348.411 4.59 2.428 5.106 2.428.272 0 .494.166.494.368 0 .203.54.487 1.2.632s1.2.421 1.2.614c0 .192.63.468 1.4.612.77.145 1.4.416 1.4.602 0 .187.72.556 1.6.819.88.264 1.6.631 1.6.816s.19.337.422.337 1.177.344 2.1.764 2.353.89 3.178 1.044 1.5.427 1.5.605.585.449 1.3.601c.715.153 1.48.414 1.7.581s1.345.539 2.5.829 2.1.657 2.1.816c0 .16.72.411 1.6.56s1.6.418 1.6.599 1.26.541 2.8.801 2.8.618 2.8.797c0 .178 1.08.45 2.4.603s2.4.441 2.4.639c0 .199.511.361 1.136.361s2.552.362 4.283.805 4.37.919 5.864 1.057c1.495.139 2.717.388 2.717.552s1.845.429 4.1.587 4.353.493 4.662.743c.784.637 38.342.65 38.753.013.157-.244 2.083-.573 4.282-.731s4.178-.433 4.4-.609c.221-.176 1.647-.449 3.169-.607 1.521-.158 3.591-.536 4.6-.84s2.869-.67 4.134-.813 2.3-.404 2.3-.58.99-.443 2.2-.594 2.2-.418 2.2-.593 1.26-.53 2.8-.79 2.8-.62 2.8-.801.719-.45 1.598-.599 1.692-.422 1.807-.608 1.196-.559 2.402-.828c1.206-.27 2.193-.623 2.193-.783s.63-.41 1.4-.555c.77-.144 1.4-.414 1.4-.6 0-.185.675-.463 1.5-.618s2.255-.624 3.178-1.044 1.868-.764 2.1-.764.422-.18.422-.4.213-.4.474-.4c.713 0 7.524-3.141 7.926-3.656.11-.14.965-.484 1.9-.763s1.7-.659 1.7-.844.257-.337.571-.337c.315 0 .81-.233 1.1-.517s1.114-.756 1.829-1.048 1.3-.69 1.3-.884c0-.193.242-.351.539-.351.296 0 .954-.36 1.461-.8s1.137-.8 1.4-.8.893-.36 1.4-.8 1.165-.8 1.461-.8.539-.168.539-.373.395-.498.877-.652c.483-.153 1.741-.885 2.796-1.627 1.055-.741 2.011-1.348 2.123-1.348.208 0 .673-.379 2.824-2.307.671-.601 1.706-1.348 2.3-1.661s1.08-.717 1.08-.9c0-.182.276-.332.613-.332s.709-.254.828-.563c.119-.31.744-.782 1.388-1.049s1.171-.649 1.171-.849.31-.483.689-.628 1.182-.77 1.786-1.388 1.218-1.123 1.364-1.123 1.516-1.26 3.043-2.8 2.938-2.8 3.133-2.8c.45 0 9.985-9.552 9.985-10.003 0-.185 1.215-1.586 2.7-3.114 3.947-4.06 5.3-5.61 5.3-6.072 0-.226.15-.411.332-.411s.588-.494.9-1.097.973-1.479 1.468-1.946.9-1.052.9-1.299c0-.248.36-.676.8-.951s.8-.728.8-1.007.36-.816.8-1.193.8-.875.8-1.107.315-.712.7-1.066c1.099-1.01 2.1-2.447 2.1-3.015 0-.286.168-.519.374-.519s.602-.63.88-1.4c.279-.77.651-1.4.826-1.4.176 0 .32-.261.32-.58s.225-.724.501-.9c.275-.176.77-.86 1.099-1.52s.689-1.29.799-1.4c.388-.387 1.223-1.814 1.814-3.1.329-.715.761-1.3.961-1.3s.481-.54.626-1.2.401-1.2.568-1.2c.168 0 .521-.72.785-1.6.263-.88.652-1.6.863-1.6s.39-.225.398-.5c.007-.275.361-1.22.786-2.1s.779-1.825.786-2.1.166-.5.351-.5.552-.72.816-1.6.638-1.6.831-1.6c.194 0 .471-.54.616-1.2s.401-1.2.568-1.2.542-.99.832-2.2.659-2.2.818-2.2c.16 0 .413-.81.561-1.8s.426-1.8.617-1.8.568-.99.839-2.2.636-2.2.811-2.2.436-.63.58-1.4c.145-.77.407-1.4.582-1.4.176 0 .532-1.26.792-2.8s.613-2.8.785-2.8c.171 0 .431-.9.577-2s.416-2 .6-2 .461-1.117.616-2.483c.154-1.365.526-3.07.826-3.788s.672-2.616.827-4.217c.155-1.602.429-3.008.609-3.125.18-.118.449-1.738.597-3.6.149-1.863.419-3.576.6-3.808 1.183-1.511 1.464-38.914.343-45.579-.222-1.32-.596-3.93-.831-5.8s-.565-3.49-.732-3.6-.431-1.51-.586-3.112c-.155-1.601-.527-3.499-.827-4.217s-.672-2.423-.826-3.788c-.155-1.366-.432-2.483-.616-2.483s-.454-.9-.6-2-.406-2-.577-2c-.172 0-.525-1.26-.785-2.8s-.616-2.8-.792-2.8c-.175 0-.437-.63-.582-1.4s-.405-1.4-.58-1.4-.54-.99-.811-2.2-.648-2.2-.839-2.2-.468-.81-.617-1.8-.401-1.8-.561-1.8c-.159 0-.528-.99-.818-2.2s-.665-2.2-.832-2.2-.423-.54-.568-1.2-.422-1.2-.616-1.2c-.193 0-.568-.72-.831-1.6-.264-.88-.631-1.6-.816-1.6s-.343-.225-.351-.5-.361-1.22-.786-2.1-.779-1.825-.786-2.1-.187-.5-.398-.5-.6-.72-.863-1.6c-.264-.88-.617-1.6-.785-1.6-.167 0-.423-.54-.568-1.2s-.427-1.2-.626-1.2c-.2 0-.632-.585-.961-1.3-.591-1.286-1.426-2.713-1.814-3.1-.11-.11-.47-.74-.799-1.4s-.824-1.344-1.099-1.52c-.276-.176-.501-.581-.501-.9s-.144-.58-.32-.58c-.175 0-.547-.63-.826-1.4s-.674-1.4-.88-1.4-.374-.233-.374-.519c0-.568-1.001-2.005-2.1-3.015-.385-.354-.7-.834-.7-1.066s-.36-.73-.8-1.107-.8-.914-.8-1.193-.36-.732-.8-1.007-.8-.703-.8-.951c0-.247-.405-.832-.9-1.299s-1.155-1.343-1.468-1.946-.717-1.097-.9-1.097c-.182 0-.332-.189-.332-.42s-.63-1.068-1.4-1.861-1.4-1.594-1.4-1.78c0-.783-2.926.261-4.975 1.775-.234.172-.756.541-1.161.82-.683.471-.59.654 1.3 2.554 1.12 1.125 2.036 2.241 2.036 2.479s.184.433.409.433.629.495.9 1.1c.27.605.854 1.46 1.297 1.9.444.44 1.323 1.565 1.955 2.5.631.935 1.303 1.7 1.493 1.7s.346.27.346.6.36.96.8 1.4.8.986.8 1.213c0 .226.254.509.563.628.31.119.795.789 1.078 1.488.282.699.629 1.361.77 1.471.14.11 1.047 1.55 2.015 3.2.967 1.65 1.897 3.06 2.066 3.133.17.074.308.376.308.672s.239.777.532 1.07c.569.569 1.542 2.237 2.348 4.025.272.605.636 1.1.808 1.1.171 0 .312.312.312.694 0 .775 2.031 5.031 2.5 5.239.165.074.3.341.3.595 0 .523 2.053 4.767 2.455 5.072.144.11.464.95.71 1.867.246.916.714 2.176 1.039 2.8s.592 1.538.594 2.033c.001.495.166.9.367.9s.486.72.635 1.6.422 1.6.606 1.6c.185 0 .558.99.829 2.2s.633 2.2.804 2.2.433.81.582 1.8.413 1.8.588 1.8.531 1.26.791 2.8.623 2.8.807 2.8.463 1.035.618 2.3c.156 1.265.422 2.39.592 2.5.169.111.544 1.956.832 4.1.287 2.145.648 3.9.801 3.9s.406 1.53.561 3.4.418 3.4.582 3.4c.391 0 1.659 18.342 1.659 24s-1.268 24-1.659 24c-.164 0-.426 1.53-.582 3.4s-.408 3.4-.561 3.4-.513 1.755-.8 3.9-.666 4.08-.841 4.3c-.176.22-.446 1.345-.602 2.5s-.429 2.1-.608 2.1c-.18 0-.539 1.26-.799 2.8s-.616 2.8-.791 2.8-.44.81-.588 1.8c-.149.99-.41 1.8-.582 1.8s-.533.99-.804 2.2-.644 2.2-.829 2.2-.457.72-.606 1.6-.434 1.6-.635 1.6-.366.405-.367.9-.269 1.41-.594 2.033c-.325.624-.793 1.884-1.039 2.8-.246.917-.566 1.757-.71 1.867-.402.305-2.455 4.549-2.455 5.072 0 .254-.135.521-.3.595-.469.208-2.5 4.464-2.5 5.239 0 .382-.18.694-.4.694s-.4.242-.4.539c0 .296-.36.954-.8 1.461s-.8 1.137-.8 1.4-.36.893-.8 1.4-.8 1.15-.8 1.428-.138.565-.308.639c-.169.073-1.099 1.483-2.066 3.133-.968 1.65-1.875 3.09-2.015 3.2s-.488.772-.77 1.471-.768 1.369-1.078 1.488c-.309.119-.563.402-.563.628 0 .227-.36.773-.8 1.213s-.8 1.07-.8 1.4-.156.6-.346.6-.862.765-1.493 1.7-1.511 2.06-1.955 2.5c-.443.44-1.027 1.295-1.297 1.9-.271.605-.676 1.1-.9 1.1-.225 0-.409.207-.409.46s-.9 1.323-2 2.377c-1.1 1.055-2 2.068-2 2.252s-.315.621-.7.972-1.69 1.736-2.9 3.078c-4.015 4.451-6.752 7.261-7.078 7.267-.177.003-1.25.955-2.385 2.116-1.134 1.16-2.551 2.463-3.149 2.894s-1.957 1.639-3.019 2.684-2.113 1.9-2.336 1.9-.598.36-.833.8-.694.8-1.018.8-.898.36-1.275.8-.825.8-.996.8c-.319 0-.944.488-3.007 2.35-.65.586-1.659 1.283-2.243 1.549s-1.061.668-1.061.892c0 .225-.276.409-.613.409s-.711.259-.833.576c-.121.316-.758.693-1.414.837-.657.144-1.287.504-1.4.8-.114.296-.717.65-1.34.787s-1.233.508-1.354.824c-.122.317-.497.576-.833.576-.337 0-.613.158-.613.351 0 .194-.585.591-1.3.884-.715.292-1.519.719-1.786.948-1.205 1.034-1.593 1.279-2.814 1.78-.715.294-1.3.678-1.3.854s-.54.438-1.2.583-1.2.415-1.2.6-.585.465-1.3.622-1.927.621-2.694 1.031c-.767.411-1.622.747-1.9.747s-.506.173-.506.384-.72.6-1.6.863c-.88.264-1.6.617-1.6.785 0 .167-.54.423-1.2.568s-1.2.409-1.2.587-.585.435-1.3.571-1.803.509-2.417.829c-.614.321-1.739.7-2.5.843-.761.142-1.383.411-1.383.596 0 .186-.63.456-1.4.6-.77.145-1.4.387-1.4.538s-1.08.499-2.4.772c-1.32.272-2.4.652-2.4.845s-.765.475-1.7.629-1.88.42-2.1.592-1.705.549-3.3.841-2.9.651-2.9.798-1.035.395-2.3.551-2.497.446-2.737.643-2.266.573-4.5.835c-2.235.263-4.063.603-4.063.756s-1.755.409-3.9.567c-2.145.159-4.097.449-4.339.646-1.231 1.003-37.903 1.009-38.539.006-.122-.192-2.067-.481-4.322-.64s-4.1-.426-4.1-.59-1.89-.523-4.201-.796c-2.31-.274-4.29-.643-4.399-.819-.109-.177-1.279-.447-2.599-.6s-2.401-.416-2.401-.584c0-.169-1.35-.524-3-.79s-3-.628-3-.804c0-.175-.9-.438-2-.584s-2-.426-2-.623-.99-.579-2.2-.85-2.2-.644-2.2-.829-.41-.336-.911-.336-1.266-.247-1.7-.549-1.386-.679-2.116-.838-1.81-.54-2.4-.849-1.658-.671-2.373-.806c-.715-.136-1.3-.393-1.3-.571s-.54-.442-1.2-.587-1.2-.4-1.2-.568-.72-.542-1.6-.832-1.6-.665-1.6-.832c0-.168-.54-.423-1.2-.568s-1.2-.411-1.2-.592c0-.18-.9-.544-2-.808s-2-.638-2-.832-.45-.466-1-.604-1-.375-1-.527-.63-.504-1.4-.783c-.77-.278-1.4-.674-1.4-.88s-.257-.374-.571-.374c-.315 0-.81-.236-1.1-.524s-1.474-1.053-2.629-1.7c-1.154-.647-2.099-1.311-2.1-1.476s-.246-.3-.546-.3-.99-.349-1.532-.775-1.466-.896-2.054-1.044c-.587-.147-1.068-.434-1.068-.637s-.301-.485-.669-.626c-.688-.264-1.049-.542-3.151-2.425-.671-.601-1.706-1.348-2.3-1.661s-1.08-.717-1.08-.9c0-.182-.264-.332-.586-.332s-.779-.36-1.014-.8-.694-.8-1.018-.8-.898-.36-1.275-.8-.812-.8-.966-.8c-.282 0-1.35-.959-7.341-6.591-1.76-1.655-3.324-3.009-3.476-3.009-.391 0-5.124-4.811-5.124-5.209 0-.182-1.26-1.581-2.8-3.109-1.54-1.527-2.8-2.918-2.8-3.09s-.864-1.14-1.919-2.152-2.04-2.155-2.187-2.54c-.148-.385-.442-.7-.654-.7s-.506-.378-.653-.839c-.146-.462-.563-1.153-.926-1.535a14 14 0 0 1-1.261-1.597 22 22 0 0 0-1.318-1.748c-.395-.465-1.085-1.438-1.533-2.163s-.98-1.318-1.182-1.318-.367-.225-.367-.5c-.001-.275-.451-1.023-1-1.662-.55-.639-1-1.404-1-1.7s-.166-.538-.369-.538-.577-.63-.831-1.4-.625-1.4-.823-1.4c-.199 0-.475-.45-.613-1s-.373-1-.521-1-.805-.989-1.457-2.199-1.321-2.199-1.486-2.2c-.165 0-.3-.243-.3-.54 0-.296-.36-.954-.8-1.461s-.801-1.12-.803-1.361c-.001-.242-.72-1.879-1.597-3.639s-1.596-3.425-1.597-3.7c-.002-.275-.169-.5-.371-.5-.203 0-.487-.54-.632-1.2s-.422-1.2-.616-1.2c-.193 0-.568-.72-.831-1.6-.264-.88-.611-1.6-.772-1.6-.16 0-.417-.666-.57-1.48-.152-.813-.532-1.843-.844-2.289-.312-.445-.568-1.174-.569-1.62s-.255-1.294-.563-1.884-.681-1.625-.829-2.3-.419-1.227-.603-1.227c-.183 0-.454-.72-.603-1.6s-.414-1.6-.59-1.6-.54-1.17-.81-2.6-.627-2.6-.794-2.6-.422-.9-.568-2-.424-2-.617-2-.572-1.62-.843-3.6c-.27-1.98-.635-3.6-.811-3.6-.175 0-.443-1.26-.594-2.8-.152-1.54-.397-2.8-.544-2.8-.277 0-1.229-7.663-1.229-9.885 0-.687-.177-1.308-.394-1.382-.232-.078-.491-3.738-.631-8.933-.135-5.019-.425-9.187-.674-9.7-.315-.65-.315-1.15 0-1.8.249-.513.539-4.681.674-9.7.14-5.195.399-8.855.631-8.933.217-.074.394-.695.394-1.382 0-2.222.952-9.885 1.229-9.885.147 0 .392-1.26.544-2.8.151-1.54.419-2.8.594-2.8.176 0 .541-1.62.811-3.6.271-1.98.65-3.6.843-3.6s.471-.9.617-2 .401-2 .568-2 .524-1.17.794-2.6.634-2.6.81-2.6.441-.72.59-1.6.426-1.6.617-1.6.465-.632.61-1.404c.145-.773.411-1.496.591-1.607.181-.112.533-1.19.783-2.396.251-1.206.607-2.193.792-2.193s.458-.72.607-1.6.406-1.6.572-1.6.517-.72.781-1.6c.263-.88.638-1.6.831-1.6.194 0 .471-.54.616-1.2s.429-1.2.632-1.2c.202 0 .368-.22.368-.489s.621-1.754 1.379-3.3c.759-1.546 1.655-3.441 1.992-4.211.665-1.52 1.36-2.671 2.103-3.485.26-.286.599-.915.753-1.399.153-.483.48-1.106.726-1.383 1.094-1.236 1.366-1.648 1.625-2.464.152-.478.43-.869.618-.869s.55-.63.804-1.4.628-1.4.831-1.4.369-.242.369-.538.45-1.061 1-1.7c.549-.639.999-1.387 1-1.662 0-.275.155-.5.343-.5s.981-.945 1.76-2.1c1.551-2.299 2.544-3.614 3.558-4.708.363-.392.78-1.091.926-1.553s.44-.839.653-.839c.212 0 .506-.315.654-.7.147-.385 1.132-1.528 2.187-2.54s1.919-1.981 1.919-2.152 1.26-1.563 2.8-3.09c1.54-1.528 2.8-2.927 2.8-3.109 0-.398 4.733-5.209 5.124-5.209.152 0 1.716-1.354 3.476-3.009 5.991-5.632 7.059-6.591 7.341-6.591.154 0 .589-.36.966-.8s.951-.8 1.275-.8.783-.36 1.018-.8.692-.8 1.014-.8.586-.15.586-.332.486-.588 1.08-.9 1.629-1.06 2.3-1.661c2.312-2.072 2.621-2.307 3.033-2.307.226 0 .509-.254.628-.564.12-.31.685-.681 1.256-.825.572-.143 1.483-.609 2.025-1.036.542-.426 1.232-.775 1.532-.775s.546-.135.546-.3c.001-.165.946-.829 2.1-1.476s2.338-1.412 2.629-1.7.785-.524 1.1-.524c.314 0 .571-.168.571-.374s.63-.602 1.4-.88c.77-.279 1.4-.631 1.4-.783s.45-.389 1-.527 1-.41 1-.604.9-.568 2-.832 2-.628 2-.808.54-.447 1.2-.592 1.2-.4 1.2-.568.72-.542 1.6-.832 1.6-.665 1.6-.832c0-.168.54-.423 1.2-.568s1.2-.409 1.2-.587.585-.435 1.3-.571 1.783-.498 2.373-.806 1.67-.691 2.4-.849 1.682-.536 2.116-.838 1.199-.549 1.7-.549.911-.151.911-.336.99-.558 2.2-.829 2.2-.653 2.2-.85.9-.477 2-.623 2-.409 2-.584c0-.176 1.35-.538 3-.804s3-.625 3-.797 1.17-.439 2.6-.592 2.6-.419 2.6-.592 1.89-.538 4.2-.812c2.31-.273 4.2-.632 4.2-.796s1.845-.43 4.1-.59 4.2-.448 4.322-.64c.636-1.003 37.308-.997 38.539.006.242.197 2.194.487 4.339.646 2.145.158 3.9.421 3.9.584s1.83.504 4.066.758c2.236.255 4.261.623 4.5.818.239.196 1.469.484 2.734.641 1.265.156 2.3.404 2.3.551s1.305.506 2.9.798 3.08.67 3.3.841c.22.172 1.165.438 2.1.592s1.7.43 1.7.613c0 .404 2.179.92 3.71.879.944-.025 3.646-1.329 4.29-2.07.11-.127.695-.545 1.3-.93 1.203-.766 1.445-1.482.5-1.482-.33 0-.6-.151-.6-.336s-.987-.558-2.193-.828-2.287-.642-2.402-.828-.928-.46-1.807-.608c-.879-.149-1.598-.418-1.598-.599s-1.26-.541-2.8-.801-2.8-.615-2.8-.79-.987-.441-2.194-.592-2.286-.425-2.4-.609-1.152-.456-2.306-.605-2.931-.509-3.946-.8-3.085-.658-4.6-.815-2.936-.43-3.157-.606-2.202-.448-4.4-.603c-2.199-.156-4.237-.475-4.531-.709-.536-.427-28.919-.747-35.248-.397"/><path id="path1" fill="#f4a361" d="M290.41 33.87c-1.424.095-2.684.309-2.8.475s-1.641.52-3.391.786-3.279.638-3.4.826c-.12.188-.804.469-1.519.625-.715.155-1.3.447-1.3.65 0 .202-.281.368-.625.368-.901 0-4.975 1.989-4.975 2.429 0 .204-.276.371-.613.371s-.716.27-.842.6c-.127.33-.45.6-.718.6-1.017 0-7.07 6.611-7.599 8.3-.155.495-.442.9-.637.9s-.479.675-.631 1.5c-.151.825-.474 1.629-.718 1.786-.584.378-.551 10.055.038 10.784.235.292.553 1.115.706 1.83s.407 1.3.565 1.3c.159 0 .516.63.795 1.4.278.77.68 1.4.892 1.4.213 0 .5.294.637.652.365.95 3.655 4.148 4.268 4.148.287 0 .755.436 1.041.97.285.533.912 1.068 1.394 1.189.481.12 1.295.584 1.809 1.03.515.446 1.155.811 1.423.811.521 0 .793 1.609 1.231 7.3.148 1.925.424 3.5.614 3.5s.345.27.345.6c0 .781 1.445.781 1.745 0 .126-.33.478-.6.78-.6s.877-.36 1.275-.8.966-.8 1.262-.8.538-.18.538-.4.248-.4.551-.4.773-.268 1.045-.596.654-.497.849-.376.355.029.355-.204.246-.424.546-.424.994-.353 1.542-.784c.911-.716 1.633-.781 8.428-.759 4.087.012 7.589-.075 7.783-.195.194-.119 1.196-.261 2.227-.314 1.031-.054 1.874-.221 1.874-.371 0-.151 1.08-.396 2.4-.545s2.4-.427 2.4-.617c0-.189.72-.466 1.6-.615s1.6-.445 1.6-.659c0-.213.161-.289.358-.167s.872-.046 1.5-.374c.628-.327 1.367-.596 1.642-.598.275-.001.5-.182.5-.402s.261-.4.58-.4.724-.225.9-.501c.176-.275.86-.766 1.52-1.091s1.65-1.066 2.2-1.647 1.405-1.182 1.9-1.335.9-.403.9-.553c.001-.267 1.411-2.08 2.546-3.273.314-.33.984-1.41 1.491-2.4.506-.99 1.065-1.901 1.242-2.024.279-.194 1.183-5.489 1.225-7.176.045-1.807-1.04-7.393-1.531-7.884-.315-.315-.573-.83-.573-1.145 0-.314-.16-.571-.357-.571s-.468-.445-.604-.988c-.137-.544-.606-1.18-1.044-1.415-.437-.234-.795-.614-.795-.846 0-.557-4.174-4.751-4.728-4.751-.238 0-.576-.225-.752-.5-.367-.573-1.322-1.207-3.32-2.202-.77-.384-1.638-.923-1.929-1.198-.29-.275-.888-.5-1.328-.5s-1.07-.27-1.4-.6-1.022-.6-1.538-.6-.998-.175-1.072-.389c-.073-.214-1.573-.584-3.333-.822s-3.525-.611-3.921-.828c-.794-.434-10.968-.766-15.069-.491m8.405 7.815c.118.157 1.885.33 3.928.385s3.807.249 3.919.431.55.222.972.088c.421-.133.766-.074.766.131s.761.477 1.691.602c.931.124 1.756.418 1.834.652s.424.426.77.426c.807 0 4.888 1.926 5.61 2.648.304.304.705.552.891.552.565 0 4.404 4.047 4.404 4.643 0 .307.162.557.361.557.551 0 1.239 2.321 1.239 4.18 0 .913.216 1.876.48 2.14.373.373.373.48 0 .48-.31 0-.48.714-.48 2.013 0 2.284-.761 4.421-1.864 5.235-.412.303-.967 1.047-1.234 1.652-.266.605-.76 1.1-1.097 1.1s-.921.36-1.298.8-.896.8-1.153.8c-.258 0-.568.26-.69.578s-.861.698-1.643.844-1.421.413-1.421.591-.54.442-1.2.587-1.2.416-1.2.603-1.035.551-2.3.809c-1.265.259-2.66.63-3.1.826-1.092.486-6.257.791-11.8.697-2.53-.043-5.552-.091-6.715-.106-1.163-.016-2.243.161-2.4.392-.465.688-3.123 2.579-3.623 2.579-.271 0-.462-.651-.462-1.576 0-.867-.183-1.69-.407-1.828s-.302-.42-.174-.627c.322-.521-.719-1.479-1.942-1.785-.56-.141-1.108-.487-1.216-.769-.108-.281-.683-.634-1.277-.783s-1.323-.488-1.618-.752c-1.28-1.142-1.753-1.48-2.074-1.48-.507 0-2.492-2.168-2.492-2.722 0-.263-.164-.478-.364-.478-.583 0-1.957-3.23-2.254-5.3-.15-1.045-.454-1.9-.676-1.9-.267 0-.27-.17-.01-.5.217-.275.518-1.304.668-2.286.423-2.77 3.528-7.212 6.301-9.014.338-.22 1.317-.867 2.175-1.439.858-.571 2.28-1.269 3.16-1.552.88-.282 1.798-.67 2.04-.861.243-.191 1.278-.462 2.3-.602 1.023-.14 1.86-.422 1.86-.627s.345-.263.766-.13c.422.134.882.056 1.024-.173.149-.241 1.887-.419 4.134-.422 2.132-.003 4.146-.183 4.476-.399.649-.424 2.068-.371 2.415.09M281.65 54.66c-2.35 1.024-2.948 5.346-.992 7.159 1.493 1.383 4.739 1.393 6.042.018 2.998-3.163-1.052-8.918-5.05-7.177m-160.038.807c-.007.476-.179.926-.384 1s-.124.47.18.882c.728.987 1.314-.862.64-2.02-.393-.676-.425-.665-.436.138m172.05.458c-1.27 1.455-1.085 4.841.332 6.069 1.817 1.576 6.406.667 6.406-1.269 0-.179.259-.325.575-.325.57 0 .454-2.705-.137-3.2-.132-.11-.494-.695-.806-1.3-.839-1.627-4.943-1.611-6.37.025m12.838.06c-3.169 4.018 3.084 9.561 6.6 5.852 1.311-1.384 1.269-4.522-.081-5.979-1.481-1.598-5.216-1.525-6.519.127M121.606 65.1c-.003.495.174.9.394.9.501 0 .501-.424 0-1.2-.314-.485-.389-.428-.394.3m43.794 3.155c-1.32.087-2.76.317-3.2.511s-2.78.562-5.2.819-4.46.634-4.533.84-.614.376-1.2.377c-.587.002-1.583.272-2.213.6-.63.329-1.373.598-1.651.598s-.719.258-.981.573c-.544.656.479 2.627 1.363 2.627.271 0 .925.357 1.454.793 1.533 1.264 1.697 1.375 2.961 2.007.66.33 1.398.853 1.64 1.162.549.702 6.958.289 7.432-.479.407-.658 25.418-.699 25.843-.042.157.243 1.697.567 3.423.721 1.725.153 3.435.437 3.8.631.853.454 3.999 1.277 5.162 1.35.495.031.9.175.9.319s.9.387 2 .538 2 .438 2 .638c0 .199.36.362.8.362s.8.159.8.353.855.565 1.9.826c1.045.26 2.263.708 2.706.995.443.286 1.388.649 2.1.805s1.294.438 1.294.626.405.462.9.609c1.37.409 4.434 1.923 5.029 2.486.29.275.758.5 1.038.5.281 0 .926.36 1.433.8s1.165.8 1.461.8.539.162.539.361.54.549 1.2.779 1.2.608 1.2.839c0 .232.233.421.519.421.285 0 .96.532 1.5 1.183 1.021 1.231 4.386 1.78 4.984.813.137-.223.733-.403 1.323-.401 1.927.005 4.474-.471 4.474-.837 0-.197.461-.358 1.025-.358.834 0 1.002-.168.9-.9-.137-.988-1.09-2.3-1.671-2.3-.202 0-.867-.523-1.479-1.163-.611-.639-1.469-1.276-1.906-1.415s-.896-.516-1.019-.837c-.124-.322-.461-.585-.749-.585s-.813-.315-1.167-.7c-.997-1.085-2.445-2.1-2.995-2.1-.275 0-.643-.225-.819-.5q-.574-.898-3.22-2.113c-.715-.329-1.3-.761-1.3-.961s-.54-.481-1.2-.626-1.2-.415-1.2-.6-.528-.452-1.172-.594c-.645-.142-1.378-.504-1.628-.806s-.983-.664-1.628-.806-1.172-.415-1.172-.608c0-.192-.63-.468-1.4-.612-.77-.145-1.4-.41-1.4-.59s-.99-.548-2.2-.819-2.2-.621-2.2-.778c0-.156-.76-.406-1.688-.555-.928-.148-1.784-.425-1.901-.615-.118-.19-1.383-.58-2.812-.868-1.43-.287-2.689-.638-2.799-.78s-1.055-.384-2.1-.538-1.9-.438-1.9-.631c0-.192-.315-.342-.7-.331-.385.01-2.14-.212-3.9-.494s-3.809-.48-4.554-.44-1.555-.094-1.8-.297c-.475-.394-16.415-.848-20.446-.583m-32.095 1.621c.372.372.81.542.974.378.164-.163.033-.465-.291-.67-.973-.615-1.406-.431-.683.292m-9.135 14.239c-.237.267-.936.845-1.554 1.285-1.986 1.415-7.816 7.331-7.816 7.932 0 .321-.252.679-.56.797-.308.119-1.226 1.218-2.039 2.443s-1.608 2.228-1.765 2.228c-.158 0-.534.63-.836 1.4s-.676 1.4-.831 1.4-.406.493-.557 1.096-.399 1.188-.55 1.3c-.384.286-2.462 5.5-2.462 6.179 0 .307-.17.618-.377.692-.208.073-.584 1.303-.835 2.733-.252 1.43-.628 3.5-.837 4.6-.336 1.772-.749 6.602-.804 9.399-.011.549-.191 1.105-.401 1.235-.21.129-.454 1.629-.541 3.332s-.33 3.307-.54 3.565-.61 3.124-.888 6.369c-.277 3.245-.632 5.9-.788 5.9-.311 0-.857 5.289-.8 7.744.02.848-.144 1.76-.364 2.026-.241.29-.584 8.28-.86 20.056-.253 10.766-.6 19.664-.773 19.774-.172.11-.446 1.1-.608 2.2s-.495 2.135-.74 2.3c-.309.209-.261.42.156.694.345.227.402.396.133.4-.283.004-.668 1.428-.976 3.606-.281 1.98-.64 3.6-.799 3.6s-.419 1.395-.576 3.1c-.158 1.705-.449 3.204-.647 3.331-.198.128-.472 2.063-.608 4.3-.136 2.238-.399 4.069-.584 4.069-.493 0-.102 22.73.469 27.3.268 2.145.628 3.9.799 3.9s.436 1.08.589 2.4.412 2.4.575 2.4.522 1.26.797 2.8.644 2.8.82 2.8.437.63.582 1.4.405 1.4.58 1.4.556.99.846 2.2.665 2.2.832 2.2.423.54.568 1.2.396 1.2.557 1.2.541.63.843 1.4.696 1.4.875 1.4.325.242.325.539c0 .296.36.954.8 1.461s.8 1.171.8 1.474.27.655.6.781c.33.127.6.487.6.8s.27.674.6.8c.33.127.6.483.6.79s.45.952 1 1.43 1 1.024 1 1.214c0 .373.104.511 2.19 2.911.765.88 1.396 1.69 1.4 1.8.009.186 2.321.148 8.889-.147 1.473-.066 2.913-.308 3.2-.537s1.556-.542 2.821-.695 2.3-.446 2.3-.65c0-.559 1.908-.446 2.099.125.121.364.338.324.814-.151.356-.357 1.287-.768 2.067-.915.781-.146 1.42-.422 1.42-.613s.72-.468 1.6-.617 1.6-.434 1.6-.635.41-.365.911-.365 1.287-.264 1.747-.586.951-.472 1.089-.333c.139.139.253.057.253-.183 0-.239.54-.553 1.2-.698s1.2-.393 1.2-.551.675-.53 1.5-.825 1.59-.652 1.7-.792c.231-.295 5.566-3.632 5.807-3.632.167 0 1.623-1.267 4.023-3.5.768-.715 1.531-1.3 1.694-1.3.515 0 2.842-2.301 2.586-2.556-.134-.134-.055-.244.176-.244.5 0 3.714-3.145 3.714-3.634 0-.187.585-.968 1.3-1.736 2.469-2.654 3.302-3.677 3.868-4.752.312-.593.717-1.078.9-1.078.182 0 .332-.242.332-.539 0-.296.36-.954.8-1.461s.8-1.171.8-1.474.254-.648.564-.767c.31-.12.684-.697.832-1.284s.391-1.159.541-1.271c.462-.344 2.463-4.714 2.463-5.379 0-.344.172-.625.382-.625s.5-.63.644-1.4.393-1.4.552-1.4.313-.225.343-.5c.25-2.303 1.045-5.1 1.451-5.1.319 0 .508-.723.539-2.063.025-1.135.214-2.17.419-2.3.425-.27 1.27-8.23 1.27-11.958 0-1.386.176-2.479.4-2.479.255 0 .4-3.192.4-8.776 0-5.42-.153-8.871-.4-9.024-.956-.591-.465-4.2.571-4.2.535 0 1.237-.265 1.561-.589s1.353-.761 2.287-.971 1.816-.573 1.962-.809c.145-.235 1.379-.544 2.741-.686s2.478-.39 2.478-.55 1.125-.414 2.5-.565c5.425-.592 5.5-.617 5.5-1.881 0-.632-.16-1.149-.355-1.149-.196 0-.482-.674-.637-1.497-.154-.823-.394-1.678-.533-1.9a3 3 0 0 1-.335-.952c-.046-.301-.546-1.031-1.112-1.622-.565-.59-1.028-1.288-1.028-1.551s-.23-.478-.511-.478-.791-.315-1.134-.7c-1.217-1.368-2.941-2.5-3.808-2.5-.484 0-.946-.197-1.026-.438-.477-1.431-13.365-1.456-14.292-.027-.126.195-1.084.48-2.129.634s-1.9.42-1.9.592-.99.533-2.2.804-2.2.659-2.2.864-.437.371-.971.371c-.535 0-1.242.27-1.572.6-.893.893-.955.806-1.257-1.799-.153-1.32-.418-2.313-.589-2.208-.171.106-.425-.519-.564-1.39-.156-.975-.712-2.051-1.45-2.806-.658-.674-1.197-1.371-1.197-1.549 0-.547-2.804-3.248-3.37-3.248-.293 0-.752-.265-1.021-.589-.269-.325-1.101-.705-1.849-.845s-1.36-.415-1.36-.611c0-.195-.81-.355-1.8-.355h-1.8l-.024 6.5c-.027 7.214-.247 10.37-.747 10.688-.183.117-.563 1.247-.844 2.512s-.649 2.3-.817 2.3-.423.54-.568 1.2-.396 1.2-.558 1.2c-.161 0-.596.585-.965 1.3-.37.715-.898 1.648-1.175 2.074-.649 1-12.583 13.026-12.926 13.026-.143 0-.795.45-1.449 1s-1.43 1-1.724 1-.596.135-.67.3c-.811 1.826-11.279 3.065-11.833 1.4-.092-.275-.427-.5-.746-.5-.318 0-.683-.27-.809-.6-.127-.33-.407-.6-.624-.6-.479 0-2.721-2.072-2.721-2.516 0-.175-.183-.535-.407-.801-1.614-1.914-1.993-2.464-1.993-2.895 0-.27-.252-.699-.561-.955-.308-.256-.682-.952-.831-1.545-.149-.594-.482-1.21-.74-1.369-.295-.182-.511-1.809-.585-4.404-.064-2.263-.297-4.479-.518-4.923-.221-.445-.349-2.245-.283-4 .115-3.111.133-3.162.713-2.025.628 1.233 1.828 2.753 3.805 4.821.66.69 1.445 1.72 1.744 2.289s.954 1.255 1.456 1.523 1.142.918 1.424 1.444c.281.526.631.956.778.956.213 0 4.685 4.4 6.632 6.526.239.261.927.834 1.531 1.274s1.562 1.224 2.131 1.742c1.909 1.736 8.143-1.847 8.091-4.651-.014-.766-1.729-2.891-2.333-2.891-.212 0-1.367-.99-2.567-2.2s-2.324-2.2-2.497-2.2c-.36 0-3.39-3.108-3.39-3.477 0-.134-.945-1.186-2.1-2.338s-2.46-2.594-2.9-3.206c-.44-.611-1.025-1.338-1.3-1.616s-.5-.69-.5-.915c0-.224-.225-.552-.501-.728-.275-.176-.77-.86-1.099-1.52s-.824-1.344-1.099-1.52c-.276-.176-.501-.581-.501-.9s-.158-.58-.351-.58c-.194 0-.576-.54-.849-1.2s-.655-1.2-.849-1.2-.351-.257-.351-.571c0-.315-.269-.841-.598-1.17-.33-.329-.787-1.017-1.018-1.529-.23-.511-.678-1.38-.995-1.93-.356-.616-.579-2.113-.583-3.9-.003-1.663-.177-2.9-.406-2.9-.222 0-.4-1.067-.4-2.4 0-1.32.163-2.4.362-2.4s.49-1.886.647-4.19c.286-4.2 1.018-6.152 1.534-4.094.13.515.69 1.181 1.246 1.478.556.298 1.011.777 1.011 1.065 0 .611 4.225 4.941 4.821 4.941.222 0 .957.63 1.633 1.4s1.398 1.4 1.604 1.4.593.183.859.407c1.928 1.627 2.47 1.993 2.944 1.993.297 0 .539.173.539.384s.765.603 1.7.87 1.88.618 2.1.78 1.12.426 2 .588 1.728.492 1.885.736c.411.636 18.237.616 18.631-.021.157-.255.96-.59 1.785-.745.824-.154 1.499-.423 1.499-.597 0-.173.9-.531 2-.795s2-.628 2-.808.54-.447 1.2-.592 1.2-.434 1.2-.642.45-.549 1-.758 1-.565 1-.79.233-.41.518-.41c.284 0 1.199-.72 2.033-1.6s1.651-1.6 1.815-1.6.529-.43.81-.956.922-1.176 1.424-1.444 1.156-.963 1.455-1.544.769-1.2 1.044-1.376c.644-.411.664-3.08.024-3.08-.263 0-1.421.974-2.575 2.165-1.153 1.191-2.468 2.283-2.922 2.427s-.826.423-.826.619-.72.573-1.6.836c-.88.264-1.6.617-1.6.785 0 .167-.54.423-1.2.568s-1.2.422-1.2.616c0 .193-.72.568-1.6.831-.88.264-1.6.65-1.6.859s-.293.267-.651.13-.859-.076-1.115.136c-.255.212-2.212.418-4.349.457-2.559.048-3.887.226-3.891.522-.004.318-.092.322-.3.016-.169-.249-1.886-.467-4.041-.511-2.061-.043-4.1-.267-4.531-.498s-1.035-.324-1.34-.206c-.306.117-.658.049-.782-.152s-.488-.264-.809-.141c-.327.125-.693-.059-.83-.417-.136-.353-.677-.642-1.204-.642s-.957-.166-.957-.368c0-.203-.54-.487-1.2-.632s-1.2-.396-1.2-.557-.623-.538-1.383-.836c-.761-.299-1.476-.783-1.588-1.075-.112-.293-.48-.532-.816-.532-.337 0-.613-.168-.613-.373s-.334-.479-.743-.609c-.993-.315-4.351-3.654-4.663-4.637-.136-.429-.413-.781-.616-.781-.202 0-.636-.585-.965-1.3-.646-1.406-1.468-2.78-1.855-3.1-.133-.11-.462-.875-.731-1.7s-.632-1.5-.807-1.5-.439-.76-.588-1.688-.47-1.812-.714-1.963c-1.002-.619-.989-18.486.014-19.108.214-.133.518-1.096.674-2.141s.407-1.9.556-1.9.489-.81.754-1.8c.264-.99.647-1.8.851-1.8s.488-.54.633-1.2.393-1.2.551-1.2.516-.63.795-1.4c.278-.77.674-1.4.88-1.4s.374-.276.374-.613.263-.713.585-.837c.321-.123.697-.579.835-1.014.395-1.244 10.977-11.514 11.88-11.531.649-.011.239-1.047-.715-1.805a66 66 0 0 1-2.437-2.086c-.787-.708-1.772-1.395-2.189-1.527-.418-.133-.759-.409-.759-.614 0-.539-1.723-.43-2.23.142m144.642 3.469c-.324.205-.455.507-.291.67s.602-.006.974-.378c.723-.723.29-.907-.683-.292M240 100.6c0 .33.18.6.4.6s.4-.27.4-.6-.18-.6-.4-.6-.4.27-.4.6m-6.8 1.4c0 .22.371.4.824.4s.712-.18.576-.4-.507-.4-.824-.4-.576.18-.576.4m-9.2 1.2c0 .22.27.4.6.4s.6-.18.6-.4-.27-.4-.6-.4-.6.18-.6.4m-5.538.675c.303.365.635.394 1.18.103 1.077-.577.94-.805-.422-.701-.903.069-1.081.209-.758.598M215 104.4c.136.22.507.4.824.4s.576-.18.576-.4-.371-.4-.824-.4-.712.18-.576.4m30.6 5c0 .33.18.6.4.6s.4-.27.4-.6-.18-.6-.4-.6-.4.27-.4.6m-111.016 1.827c-.145.234-.168.522-.051.64.287.286 1.067-.219 1.067-.691 0-.511-.691-.477-1.016.051M228.4 112c0 .22.36.4.8.4s.8-.18.8-.4-.36-.4-.8-.4-.8.18-.8.4m-4.561.338c-.139.223-.057.527.181.674.615.381 1.012-.14.498-.654q-.429-.43-.679-.02m-4.639.862c0 .22.27.4.6.4s.6-.18.6-.4-.27-.4-.6-.4-.6.18-.6.4m28.4 1.2c0 .22.27.4.6.4s.6-.18.6-.4-.27-.4-.6-.4-.6.18-.6.4M130 118.024c0 .233-.143.335-.317.227-.174-.107-.343.152-.375.577s.111.772.317.772.375-.27.375-.6.18-.6.4-.6.4-.18.4-.4-.18-.4-.4-.4-.4.191-.4.424m17.384.803c-.145.234-.168.522-.051.64.287.286 1.067-.219 1.067-.691 0-.511-.691-.477-1.016.051M219.2 122.4c0 .22.27.4.6.4s.6-.18.6-.4-.27-.4-.6-.4-.6.18-.6.4m2.8.213c0 .647.625.794.974.229.122-.197-.048-.461-.376-.588-.363-.139-.598.002-.598.359m29.333 3.998c0 .692.734.589.975-.136.087-.261-.096-.475-.408-.475s-.567.275-.567.611m-99.102 1.839c.119.193.465.35.769.35s.65-.157.769-.35-.227-.35-.769-.35-.888.158-.769.35m-23.425 1.45c-.003.495.174.9.394.9.501 0 .501-.424 0-1.2-.314-.485-.389-.428-.394.3m50.794 5.124c0 .58.173.916.4.776.22-.136.4-.597.4-1.024s-.18-.776-.4-.776-.4.461-.4 1.024m-17.515 4.834c-.504.575-.839 1.121-.745 1.215.199.199 2.26-1.642 2.26-2.019 0-.536-.636-.198-1.515.804m91.208.142c0 .77.082 1.085.183.7s.1-1.015 0-1.4c-.101-.385-.183-.07-.183.7m-56.493 1.4c0 .77.18 1.4.4 1.4s.4-.63.4-1.4-.18-1.4-.4-1.4-.4.63-.4 1.4m65.856.799c-.357.931-.333 1.001.344 1.001.673 0 .749-.345.25-1.134-.27-.425-.39-.398-.594.133M235.6 146.2c0 .33.18.6.4.6s.4-.27.4-.6-.18-.6-.4-.6-.4.27-.4.6m26.4 2c0 .33.18.6.4.6s.4-.27.4-.6-.18-.6-.4-.6-.4.27-.4.6m-73.907 11.4c.275.44.638.8.807.8s.082-.36-.193-.8-.638-.8-.807-.8-.082.36.193.8m71.774 1.369a.61.61 0 0 0 .358.785c.332.128.575-.017.575-.343 0-.798-.674-1.117-.933-.442M190 163c0 .33.18.6.4.6s.4-.27.4-.6-.18-.6-.4-.6-.4.27-.4.6m1.443 1.967c.133.348.418.633.633.633.526 0 .197-.909-.401-1.108-.293-.098-.382.085-.232.475m68.013 1.311c-.381.381-.309 1.322.101 1.322.491 0 .885-1.127.481-1.376-.179-.111-.442-.087-.582.054M238 171.176c0 .671.709.837.946.222.139-.363-.002-.598-.359-.598-.323 0-.587.169-.587.376m-21.6 6.424c0 .22.99.4 2.2.4s2.2-.18 2.2-.4-.99-.4-2.2-.4-2.2.18-2.2.4m33.6 2.733c0 .697.183 1.267.408 1.267.242 0 .3-.447.143-1.1-.376-1.57-.551-1.623-.551-.167m-90.538 4.764c.297 2.501-.063 4.103-.922 4.103-.522 0-.598-.285-.397-1.5.137-.825.25-2.391.253-3.48.005-2.553.731-1.956 1.066.877M259.2 184c0 .44.18.8.4.8s.4-.36.4-.8-.18-.8-.4-.8-.4.36-.4.8m-28.8.825c0 .455 1.075.502 1.349.058.107-.174-.152-.343-.577-.375s-.772.111-.772.317m-17.2.375c0 .22.27.4.6.4s.6-.18.6-.4-.27-.4-.6-.4-.6.18-.6.4m9.826.357c-.15.244-.038.446.25.449.381.005.36.112-.076.394-.361.233-.41.39-.124.394.671.008.929-.538.548-1.156-.228-.367-.405-.392-.598-.081m-32.003 2.674c1.576.295 1.859.969.408.969-1.473 0-5.031.894-5.031 1.264 0 .18-.72.442-1.6.582-.88.141-1.6.406-1.6.589s-.72.549-1.6.812c-.88.264-1.6.617-1.6.785 0 .167-.54.423-1.2.568s-1.2.435-1.2.644-.315.492-.7.628c-1.817.641-2.572 2.185-2.283 4.672.759 6.545-.056 31.456-1.029 31.456-.17 0-.435 1.08-.588 2.4s-.428 2.4-.61 2.4c-.183 0-.456.99-.607 2.2s-.422 2.2-.6 2.2c-.179 0-.547.99-.818 2.2s-.629 2.2-.797 2.2c-.167 0-.423.54-.568 1.2s-.422 1.2-.616 1.2c-.193 0-.568.72-.831 1.6-.264.88-.617 1.6-.785 1.6-.167 0-.423.54-.568 1.2s-.396 1.2-.557 1.2-.541.63-.843 1.4-.696 1.4-.875 1.4-.325.276-.325.613-.27.716-.6.842c-.33.127-.6.436-.6.688-.001.251-.406.939-.9 1.528-.495.589-1.44 1.75-2.1 2.58-1.728 2.173-5.945 6.546-6.313 6.548-.173 0-.808.506-1.412 1.124s-1.408 1.242-1.786 1.388-.689.45-.689.676-.27.413-.6.413-.917.315-1.305.7c-.389.385-1.154.934-1.7 1.22-2.557 1.335-3.195 1.749-3.195 2.07 0 .191-.54.465-1.2.61s-1.2.415-1.2.6-.54.455-1.2.6-1.2.437-1.2.649-.225.349-.5.304-1.007.128-1.626.383-1.384.464-1.7.464-.574.178-.574.395-.72.511-1.6.651-1.6.384-1.6.541c0 .156-1.531.512-3.402.79-1.871.279-3.481.633-3.576.788-.879 1.422-9.422.167-9.422-1.384 0-.273-.27-.599-.6-.726-.33-.126-.6-.423-.6-.659 0-.384-1.46-2.691-2.023-3.196-.122-.11-.459-.785-.748-1.5s-.665-1.3-.834-1.3c-.17 0-.421-.45-.559-1s-.42-1-.625-1-.493-.63-.637-1.4-.406-1.4-.582-1.4-.549-.9-.831-2-.65-2-.818-2c-.169 0-.425-.63-.569-1.4-.145-.77-.402-1.4-.571-1.4s-.542-1.44-.827-3.2c-.286-1.76-.649-3.2-.806-3.2s-.288-.405-.29-.9c-.01-1.677-.586-4.497-1.034-5.061-.633-.797-.627-27.154.006-27.554.249-.157.583-1.77.742-3.585s.451-3.3.648-3.3.36-.495.363-1.1.114-1.503.246-1.996l.24-.896.755.959c.415.528.754 1.062.754 1.188 0 .449 5.648 5.735 6.714 6.284.597.308 1.23.785 1.406 1.06.176.276.746.501 1.267.501s1.006.178 1.08.396c.43 1.279 13.092 1.333 13.906.059.125-.195.797-.478 1.494-.629.696-.151 1.357-.511 1.467-.799s.681-.644 1.268-.792c.586-.147 1.476-.71 1.978-1.251.501-.541 1.083-.984 1.292-.984s.939-.63 1.62-1.4 1.395-1.4 1.585-1.4 1.06-.733 1.934-1.629 1.93-1.931 2.346-2.3c1.363-1.207 3.443-3.688 3.443-4.105 0-.172.315-.414.7-.538s1.275-.766 1.978-1.427 1.462-1.201 1.686-1.201.601-.36.836-.8.609-.8.83-.8c.463 0 2.904-1.652 3.103-2.1.074-.165.394-.3.713-.3s.671-.239.783-.532c.112-.292.827-.776 1.588-1.075.76-.298 1.383-.689 1.383-.868s.261-.325.58-.325.724-.236.9-.523.905-.76 1.62-1.049 1.3-.683 1.3-.877.347-.351.771-.351 1.034-.262 1.355-.583 1.413-.792 2.428-1.047c1.015-.256 1.846-.615 1.846-.799s.63-.453 1.4-.597c.77-.145 1.4-.398 1.4-.564s1.125-.532 2.5-.815 2.68-.652 2.9-.819c.795-.606 8.823-.995 11.223-.545m59.777 2.145c0 .453.18.824.4.824s.4-.259.4-.576-.18-.688-.4-.824-.4.123-.4.576m-29.6.024c0 .22.259.4.576.4s.688-.18.824-.4-.123-.4-.576-.4-.824.18-.824.4m12.4 0c0 .22.27.4.6.4s.6-.18.6-.4-.27-.4-.6-.4-.6.18-.6.4m28.21 4.384c-.339.549-.039.961.552.758.242-.084.273-.366.075-.685-.25-.402-.412-.421-.627-.073M219.2 200c0 .506.817.506 1.6 0 .468-.302.357-.389-.5-.394-.605-.003-1.1.174-1.1.394m-15.285 11.619c-.431.473-.533.846-.274 1.006.499.309.582.226.936-.925.328-1.066.245-1.077-.662-.081m59.11 9.629c.701 1.356 1.066 1.387.72.062-.123-.47-.478-.952-.789-1.072-.461-.177-.449.009.069 1.01M190 224.353c0 .44.18.911.4 1.047s.4-.113.4-.553-.18-.911-.4-1.047-.4.113-.4.553m9.074 3.947c-.096.165-.029.66.148 1.1s.334.59.35.333.137-.752.271-1.1c.239-.624-.433-.915-.769-.333m69.332 5.551c-.011.82 1.071 1.448 1.33.772.126-.329.057-.704-.153-.834-.211-.13-.386-.001-.389.287-.005.381-.112.36-.394-.076-.213-.33-.391-.397-.394-.149m11.072 2.005c-.32.319.041.944.546.944.207 0 .376-.27.376-.6 0-.619-.472-.795-.922-.344M280 238.6c0 .33.18.6.4.6s.4-.27.4-.6-.18-.6-.4-.6-.4.27-.4.6m-8.588 2.717c-.171.395-.199.83-.061.967.406.406.733-.164.546-.953-.165-.698-.187-.699-.485-.014m-70.612 5.059c0 .453.18.824.4.824s.4-.259.4-.576-.18-.688-.4-.824-.4.123-.4.576m72.1 2.255c0 .921.061.982.391.391.256-.456.256-.835 0-1.091-.255-.255-.391-.011-.391.7m9.5-.455c0 .317.18.688.4.824s.4-.123.4-.576-.18-.824-.4-.824-.4.259-.4.576m-8.8 4.024c0 .596.172.941.4.8.22-.136.4-.496.4-.8s-.18-.664-.4-.8c-.228-.141-.4.204-.4.8m.217 2.172c-.126.205-.044.488.183.628s.317.41.2.6-.03.458.193.596c.242.149.407-.245.407-.972 0-1.181-.508-1.621-.983-.852m.983 4.204c0 1.226.228 1.325.516.224.115-.439.046-.9-.154-1.023-.199-.123-.362.236-.362.799m9.2.424c0 .33.18.6.4.6s.4-.27.4-.6-.18-.6-.4-.6-.4.27-.4.6m-8.339 10.615c-.051.872.073 1.585.277 1.585.562 0 .791-2.361.271-2.792-.324-.27-.481.076-.548 1.207m9.539.761c0 .453.18.824.4.824s.4-.259.4-.576-.18-.688-.4-.824-.4.123-.4.576m-8.8 5.691c0 1.451.345 1.331.625-.218.105-.577.007-1.049-.217-1.049s-.408.57-.408 1.267m9.2 1.909c0 .647.18 1.288.4 1.424.238.147.4-.329.4-1.176 0-.783-.18-1.424-.4-1.424s-.4.529-.4 1.176m-125.8 2.531c-.44.491-1.34 1.16-2 1.487-3.814 1.889-3.908 3.991-.337 7.525.956.945 1.737 1.856 1.737 2.025 0 .489 4.733 5.19 4.978 4.945.122-.122.222-.038.222.188 0 .499 7.203 7.723 7.7 7.723.195 0 .948.63 1.674 1.4s1.481 1.4 1.678 1.4.803.54 1.348 1.2 1.182 1.2 1.414 1.2c.485 0 1.975 1.071 2.92 2.1.354.385.834.7 1.066.7s.73.36 1.107.8.957.8 1.289.8.604.146.604.325.623.57 1.383.868c.761.299 1.476.783 1.588 1.075.112.293.46.532.774.532.313 0 .667.253.785.562.119.31.768.684 1.443.832s1.227.435 1.227.638c0 .202.276.368.613.368s.711.259.833.576c.121.316.731.687 1.354.824s1.226.491 1.34.787c.113.296.758.659 1.433.807s1.227.421 1.227.606.54.455 1.2.6 1.2.422 1.2.616c0 .193.72.568 1.6.831.88.264 1.6.623 1.6.798s.63.437 1.4.581c.77.145 1.4.423 1.4.619 0 .195.243.355.54.355s1.387.45 2.422 1c1.034.55 2.154 1 2.488 1s.852.245 1.152.545c.299.299 1.285.663 2.19.807.921.148 1.539.436 1.403.656-.134.217.214.392.781.392.563 0 1.024.192 1.024.427 0 .245.341.319.8.173.44-.14.8-.092.8.106 0 .197.765.557 1.7.8 3.44.891 6.505 1.863 6.7 2.125.11.148.83.402 1.6.565s1.58.439 1.8.613 1.57.539 3 .811 2.798.649 3.04.837c.243.188 1.278.457 2.3.597 1.023.14 1.86.384 1.86.542s1.665.52 3.7.804 3.88.65 4.1.813c.22.164 1.57.43 3 .591s2.725.49 2.877.731c.153.241.873.472 1.6.513s2.493.193 3.923.338 3.483.241 4.562.215c1.078-.027 2.068.123 2.2.333.232.374 3.329.61 6.738.514 1.217-.034 1.7-.217 1.7-.643 0-.771-1.229-2.205-1.889-2.205-.281 0-.511-.18-.511-.4s-.225-.4-.5-.4c-.467-.001-2.079-1.181-3.534-2.587-.348-.337-.76-.613-.916-.613-.256 0-2.566-1.515-3.05-2.001-.11-.11-.74-.47-1.4-.799s-1.344-.824-1.52-1.099c-.176-.276-.536-.509-.8-.518s-.922-.549-1.461-1.2c-.54-.651-1.132-1.183-1.316-1.183-.465 0-2.833-1.69-3.223-2.3-.176-.275-.572-.5-.88-.5s-.704-.229-.88-.51c-.176-.28-.77-.801-1.32-1.158a15.6 15.6 0 0 1-1.883-1.49c-.486-.463-1.065-.842-1.286-.842s-.594-.358-.828-.795c-.235-.438-.848-.901-1.363-1.031-.516-.129-1.171-.671-1.456-1.204-.286-.534-.73-.97-.988-.97-.445 0-2.163-1.495-7.245-6.3-1.222-1.155-2.367-2.1-2.545-2.1s-1.583-1.26-3.123-2.8-2.999-2.8-3.242-2.8c-.524 0-.598 1.856-.086 2.172.195.121.473.851.618 1.624.145.772.406 1.404.581 1.404s.556.72.846 1.6.679 1.6.864 1.6.336.276.336.613.259.711.576.833c.316.121.693.758.837 1.414.144.657.515 1.291.825 1.41.309.118.562.468.562.777 0 .308.36.869.8 1.246s.8.852.8 1.055c0 .204.585.953 1.3 1.663s1.66 1.799 2.1 2.418 1.135 1.406 1.545 1.749c2.156 1.802 2.505 2.649.829 2.012-.564-.214-1.464-.39-2-.39s-.974-.16-.974-.356-.225-.335-.5-.31c-.85.077-5.1-1.045-5.1-1.346 0-.157-.893-.403-1.984-.548s-2.084-.426-2.206-.624c-.123-.199-1.256-.59-2.517-.87-1.261-.279-2.531-.742-2.822-1.027s-.965-.519-1.5-.519c-.534 0-.971-.146-.971-.324s-.945-.564-2.1-.857-2.19-.642-2.3-.776c-.294-.358-2.845-1.546-4-1.863-.55-.151-1.27-.509-1.6-.796s-1.095-.645-1.7-.796-1.1-.421-1.1-.6c0-.178-.54-.443-1.2-.588s-1.2-.422-1.2-.616c0-.193-.72-.568-1.6-.831-.88-.264-1.6-.617-1.6-.785 0-.167-.54-.423-1.2-.568s-1.2-.393-1.2-.551-.668-.53-1.485-.825c-.817-.296-1.73-.782-2.029-1.081s-.778-.543-1.066-.543c-.287 0-.737-.258-.999-.574s-.989-.687-1.615-.825c-.627-.137-1.239-.509-1.36-.825-.122-.317-.477-.576-.791-.576-.313 0-.673-.27-.8-.6-.126-.33-.423-.6-.659-.6-.483 0-2.924-1.638-3.129-2.1-.074-.165-.394-.3-.713-.3s-.683-.27-.809-.6c-.127-.33-.462-.6-.746-.6-.283 0-.939-.447-1.457-.993s-1.127-.996-1.353-1-.719-.367-1.096-.807-.927-.8-1.221-.8-.767-.43-1.048-.956-.98-1.201-1.553-1.5c-1.388-.725-11.271-10.623-11.271-11.287 0-.287-.455-.765-1.011-1.063s-1.116-.962-1.246-1.478c-.129-.515-.574-1.119-.989-1.341s-.754-.59-.754-.818c0-1.544-2.218-1.968-3.4-.65m63.092 3.168c.199.598 1.108.927 1.108.401 0-.215-.285-.5-.633-.633-.39-.15-.573-.061-.475.232M276.8 289.8c0 1.467.174 2.6.4 2.6s.4-1.133.4-2.6-.174-2.6-.4-2.6-.4 1.133-.4 2.6m-46 .598c0 .485 1.122 1.014 1.452.684.119-.12-.159-.418-.618-.664-.578-.309-.834-.315-.834-.02m46 5.402c0 1.733.169 3 .4 3s.4-1.267.4-3-.169-3-.4-3-.4 1.267-.4 3m-140-2.28c0 .337-4.049 1.28-5.497 1.28-1.09 0-1.551 1.39-.877 2.648.28.523.659.952.842.952s.332.178.332.396c0 .579 15.24 15.707 16.469 16.348.574.299 1.263.954 1.531 1.456s.954 1.157 1.523 1.456 1.607 1.084 2.308 1.744 1.88 1.684 2.621 2.275c3.534 2.819 4.157 3.346 4.281 3.625.074.165.382.3.686.3s.746.36.981.8.694.8 1.018.8.898.36 1.275.8.915.8 1.196.8.511.139.511.309.622.644 1.381 1.053c.76.409 1.729 1.067 2.153 1.462s1.692 1.2 2.818 1.789 2.048 1.189 2.048 1.334c0 .264.688.672 3.1 1.836.715.345 1.3.791 1.3.991s.54.481 1.2.626 1.2.396 1.2.557.63.541 1.4.843 1.4.681 1.4.843.525.409 1.167.55c.641.141 1.259.498 1.373.794.113.296.758.659 1.433.807s1.227.432 1.227.63.45.474 1 .612 1 .411 1 .607c0 .197.27.357.6.357s.6.18.6.4.521.4 1.157.4c.66 0 1.256.258 1.388.6.126.33.596.6 1.042.6s.813.18.813.4c0 .249 2.333.4 6.2.4s6.2-.151 6.2-.4c0-.22.885-.4 1.967-.4 3.016 0 4.544-1.13 2.433-1.8-.44-.14-.8-.422-.8-.627s-.211-.373-.47-.373c-.258 0-1.923-.703-3.7-1.562-5.154-2.492-6.85-3.238-7.356-3.238-.261 0-.474-.166-.474-.368 0-.203-.54-.487-1.2-.632s-1.2-.415-1.2-.601c0-.185-.675-.556-1.5-.825s-1.644-.732-1.82-1.031-.581-.543-.9-.543-.58-.157-.58-.348-.798-.572-1.774-.845-1.871-.746-1.988-1.052c-.117-.305-.489-.555-.825-.555-.337 0-.613-.166-.613-.368 0-.203-.525-.484-1.167-.625-.641-.141-1.266-.515-1.387-.831-.122-.317-.488-.576-.814-.576s-.736-.225-.912-.5c-.386-.604-1.461-1.306-3.261-2.131-.737-.337-1.547-.787-1.8-.999-1.982-1.662-2.518-2.02-3.333-2.224-.509-.128-.926-.393-.926-.589 0-.197-.264-.357-.586-.357s-.779-.36-1.014-.8-.664-.8-.953-.8c-.462 0-1.006-.37-2.93-1.993-.266-.224-.664-.407-.886-.407s-.596-.36-.831-.8-.694-.8-1.018-.8-.898-.36-1.275-.8-.806-.8-.955-.8c-.251 0-1.564-1.05-3.792-3.036a29 29 0 0 0-2.007-1.6c-.588-.42-1.352-1.079-1.7-1.464s-.799-.7-1.005-.7-1.252-.9-2.323-2c-1.072-1.1-2.091-2-2.266-2-.421 0-6.859-6.361-6.859-6.777 0-.973-5.312-5.623-6.424-5.623-.647 0-1.176.144-1.176.32m149.067 12.347c-.415.415-.314 1.733.133 1.733.22 0 .4-.45.4-1 0-1.047-.092-1.174-.533-.733m-24.267 2.837c0 .167.36.528.8.803.93.581 1.054.29.229-.536-.631-.63-1.029-.734-1.029-.267m14.8 1.272c0 .453.18.824.4.824s.4-.259.4-.576-.18-.688-.4-.824-.4.123-.4.576m8.8 5.375c0 1.124.573 1.418.933.478.121-.314-.04-.786-.357-1.049-.476-.395-.576-.297-.576.571m-.492 8.632c-.277.984-.111 1.554.324 1.118.128-.128.169-.653.092-1.167l-.14-.934z"/><path id="path2" fill="#e08145" d="M122.005 55.7c-.049 2.498-.07 9.099-.035 10.6.017.715.223 1.3.457 1.3.245 0 .319.341.173.8-.144.455-.072.8.168.8.233 0 .538.72.678 1.6s.413 1.6.605 1.6.349.207.349.46c0 .252.63 1.071 1.4 1.819s1.4 1.521 1.4 1.718c0 .527 4.673 5.197 4.936 4.933.124-.123.981.607 1.906 1.623s1.917 1.847 2.205 1.847.718.36.953.8.692.8 1.014.8.586.184.586.409.495.626 1.1.891c.605.266 1.244.712 1.42.992.176.279.498.508.717.508s.783.36 1.255.8 1.076.8 1.341.8.585.27.712.6c.126.33.484.6.793.6s.799.283 1.085.628c.287.345.859.539 1.272.431.461-.12.69-.015.593.272-.21.622.897 1.44 1.969 1.456.472.007.961.283 1.088.613.126.33.516.6.866.6s.543.15.43.334.371.633 1.076.998c1.951 1.009 2.851 1.618 3.203 2.168.176.275.498.5.716.5.512 0 2.868 1.65 3.284 2.3.176.275.586.5.912.5s.697.27.823.6c.127.33.441.6.699.6s.765.315 1.127.7a83 83 0 0 0 2.089 2.081c.786.759 1.43 1.515 1.43 1.68s.6.894 1.333 1.62c.733.725 1.447 1.634 1.587 2.019s.441.7.667.7.413.276.413.613.27.716.6.842c.33.127.6.514.6.859 0 .884.904 3.286 1.237 3.286.152 0 .4.493.551 1.096s.452 1.205.669 1.339c.378.234 1.16 3.184 1.944 7.333.205 1.083.603 2.118.886 2.3.407.264.39.411-.084.715-.475.306-.495.485-.1.88.274.274.497.821.497 1.217s.18.72.4.72c.505 0 .524 1.314.026 1.82-.605.615-.022 5.38.658 5.38.778 0 1.618-.893 1.415-1.504-.091-.273.029-.496.268-.496.238 0 .433-.27.433-.6s.21-.555.467-.5.647-.501.868-1.236 1.001-1.953 1.733-2.707 1.332-1.558 1.332-1.786.539-.99 1.198-1.693 1.199-1.392 1.2-1.532c.003-.442 5.766-5.946 6.226-5.946.243 0 .685-.456.983-1.014.3-.56.778-.924 1.068-.813.289.111.525.07.525-.091 0-.291.394-.541 2.631-1.674.643-.325 1.259-.704 1.369-.842.11-.137.872-.469 1.694-.737s1.598-.654 1.724-.858.584-.371 1.018-.371.889-.261 1.012-.581 1.016-.7 1.992-.846c.974-.146 1.88-.444 2.015-.662.152-.246.361-.209.55.098.237.382.608.343 1.64-.172.734-.366 2.149-.748 3.144-.849s1.87-.364 1.943-.585c.175-.523 1.268-.526 1.268-.003 0 .22.27.4.6.4s.6-.18.6-.4.439-.4.976-.4 1.093-.189 1.236-.419c.178-.288.432-.277.81.037.624.518 3.778.139 3.778-.453 0-.201.36-.365.8-.365s.8.169.8.375c0 .486 2.915.031 3.27-.511.175-.269.51-.213.965.162.535.442.734.459.863.074.093-.275.503-.5.912-.5.408 0 .859-.189 1.002-.419.175-.283.417-.289.744-.017.55.456 2.276.127 2.774-.529.235-.308.388-.296.527.043.14.344.582.262 1.569-.293.756-.424 1.374-.594 1.374-.378 0 .599.666.47 1.408-.272.516-.516.734-.552.977-.159.242.391.509.402 1.172.047.473-.253 1.036-.351 1.251-.218.216.133.392.072.392-.137 0-.208.63-.497 1.4-.642.77-.144 1.4-.411 1.4-.593 0-.181.882-.447 1.96-.59 1.159-.154 2.053-.499 2.185-.845a.63.63 0 0 1 .809-.36c.321.123.932-.124 1.357-.549s1.287-.902 1.915-1.06 1.63-.797 2.226-1.421c.596-.623 1.43-1.243 1.852-1.378s1.022-.735 1.332-1.335c.31-.601 1.032-1.543 1.604-2.093 1.013-.976 1.752-2.297 1.624-2.902-.035-.165.116-.3.336-.3s.4-.546.4-1.213c0-.68.25-1.308.57-1.431.314-.12.69-.925.835-1.787.146-.863.403-1.569.571-1.569s.287-.495.264-1.1c-.053-1.448-1.463-1.734-2.04-.414-.22.503-.67.913-1 .912s-.996.403-1.481.9c-.484.496-1.075.902-1.312.902s-.54.28-.671.623c-.132.343-.486.528-.788.413-.301-.116-.548-.037-.548.177 0 .213-.27.387-.6.387s-.96.36-1.4.8-1.07.8-1.4.8-.6.166-.6.368c0 .203-.552.49-1.227.638s-1.324.522-1.443.832c-.118.309-.562.562-.985.562-.424 0-.874.27-1 .6-.13.339-.726.6-1.368.6-.635 0-1.298.288-1.502.651-.223.399-.463.491-.62.238-.294-.475-1.855-.174-1.855.358 0 .194-.546.353-1.213.353-.737 0-1.307.248-1.455.634-.184.478-.319.511-.551.135-.236-.382-.468-.339-.987.18-.389.389-.989.58-1.406.447-.459-.146-.883.034-1.146.486-.23.395-.423.493-.43.218-.017-.711-1.036-.619-1.82.165-.51.51-.736.549-.973.166-.391-.633-.845-.636-1.233-.008-.167.27-.997.53-1.845.578-2.453.139-2.602.177-2.341.599.136.22-.123.4-.576.4s-.824-.182-.824-.403c0-.272-.262-.272-.8 0-.44.221-1.137.57-1.549.774-.47.234-.894.226-1.141-.021-.466-.466-4.51-.016-4.51.502 0 .191-.27.348-.6.348s-.6-.196-.6-.436c0-.617-2.95-.146-4.195.67-.9.589-1.172.514-1.066-.294.019-.143-.5-.059-1.152.187-.653.247-1.187.608-1.187.804s-.478.236-1.062.089c-.685-.172-1.193-.081-1.431.257-.29.412-.411.417-.571.023-.111-.275-.468-.5-.793-.5s-.487.167-.361.371c.256.415-.599.698-2.342.777-.637.029-1.374.231-1.636.449-.263.218-.596.278-.741.133s-.263-.053-.263.203c0 .257-.546.467-1.213.467-.706 0-1.308.249-1.441.598-.127.328-.393.496-.593.373-.478-.296-4.626 1.676-5.035 2.394-.175.307-.768.625-1.318.706s-.955.369-.9.638c.055.27-.22.491-.611.491-.808 0-3.371 2.185-2.999 2.556.134.134-.057.244-.424.244-.636 0-5.866 4.863-5.866 5.455 0 .63-1.314 1.676-1.848 1.471-.454-.174-.473-.34-.088-.803.38-.458.377-.65-.012-.891-.273-.169-.583-1.01-.689-1.869-.106-.86-.366-1.623-.578-1.696-.212-.074-.385-.484-.385-.913 0-.428-.262-.88-.583-1.003-.398-.153-.513-.573-.361-1.33.158-.789.038-1.176-.418-1.351-.351-.135-.638-.521-.638-.857 0-.337-.18-.613-.4-.613s-.4-.372-.4-.826c0-1.015-.73-2.464-1.458-2.894-.298-.176-.542-.581-.542-.9s-.18-.58-.4-.58-.4-.271-.4-.603-1.08-1.666-2.4-2.965c-1.32-1.3-2.4-2.559-2.4-2.798a.43.43 0 0 0-.426-.434c-.235 0-1.448-.99-2.698-2.2s-2.478-2.2-2.731-2.2-.563-.27-.69-.6c-.126-.33-.486-.6-.8-.6-.313 0-.681-.29-.817-.645-.157-.41-.539-.57-1.043-.438-.52.136-.795.01-.795-.364 0-.315-.425-.735-.945-.932s-1.055-.644-1.188-.99c-.133-.347-.698-.631-1.254-.631-.557 0-1.013-.153-1.013-.34 0-.291-3.828-2.946-4.4-3.051-.369-.069-2.178-1.131-2.678-1.572-1.142-1.009-1.587-1.293-2.822-1.8-.715-.294-1.3-.692-1.3-.886 0-.193-.225-.358-.5-.367s-1.114-.542-1.865-1.184-1.516-1.074-1.7-.96-.335-.073-.335-.416-.251-.624-.557-.624-.661-.27-.788-.6c-.126-.33-.42-.6-.652-.6s-1.6-1.167-3.04-2.592-3.148-2.97-3.795-3.431c-.648-.461-1.064-1.022-.925-1.246.138-.224-.31-.92-.996-1.547s-1.247-1.328-1.247-1.558c0-.231-.36-.644-.8-.919s-.8-.822-.8-1.216-.27-.82-.6-.946c-.33-.127-.6-.571-.6-.988 0-.416-.36-1.117-.8-1.557s-.8-1.07-.8-1.4-.36-.96-.8-1.4-.8-.98-.8-1.2-.225-.403-.5-.406q-.504-.004.1-.408c.519-.347.496-.481-.176-.994-1.472-1.122-2.183-.767-2.219 1.108m25.413 50.729c.083.135-.676.257-1.688.273-1.012.015-1.972.242-2.135.505-.212.344-.372.354-.569.035-.185-.3-.51-.318-.998-.057-.397.213-.836.273-.975.134s-.253-.083-.253.123c0 .344-.622.709-3.656 2.146-.581.275-1.252.93-1.491 1.456s-.71.956-1.044.956-.609.24-.609.532-.42.757-.932 1.032c-1.086.581-2.243 2.412-1.982 3.136.1.275-.009.5-.24.5-.232 0-.317.27-.191.6.127.33.031.6-.212.6-.244 0-.443-.18-.443-.4s-.182-.4-.403-.4c-.239 0-.198.332.1.812.416.672.399.877-.097 1.185-.486.302-.588 1.305-.539 5.288.085 6.836.11 7.114.655 7.121.351.005.342.097-.035.335-.414.263-.394.433.1.843.34.283.619.816.619 1.185s.216.887.48 1.151.332.48.152.48.413.72 1.32 1.6c.906.879 1.648 1.785 1.648 2.012s.313.533.695.68c.382.146 1.152.767 1.711 1.38s1.594 1.228 2.299 1.369 1.196.396 1.091.566c-.227.367.759.793 1.837.793.422 0 .767.16.767.355 0 .522 2.355.778 2.525.274q.145-.429.77.087c.816.673 6.33.564 7.712-.153.561-.291.934-.39.829-.221-.105.17.686.039 1.758-.289 1.234-.379 2.131-.939 2.446-1.528.273-.511.71-.883.97-.827.51.11 5.39-4.559 5.39-5.157 0-.2.36-.671.8-1.048s.8-1.036.8-1.465.196-.902.435-1.05c.239-.147.34-.632.224-1.075-.116-.444.048-1.067.365-1.384.688-.688.749-1.319.127-1.319-.316 0-.305-.173.035-.583.898-1.082.152-10.217-.835-10.217-.193 0-.351-.512-.351-1.138 0-.63-.357-1.461-.8-1.862-.44-.398-.8-.899-.8-1.114 0-.484-4.337-4.686-4.836-4.686-.2 0-.364-.18-.364-.4s-.27-.4-.6-.4-.6-.201-.6-.447c0-.254-.355-.353-.824-.231-.518.136-.911-.007-1.055-.384-.343-.893-2.172-1.497-2.588-.854-.266.412-.41.397-.713-.075-.231-.359-1.006-.591-1.976-.591-.879 0-1.408-.116-1.178-.259.23-.142-.305-.24-1.19-.216s-1.541.152-1.458.286m105.144 6.526c-.136.355-.668.645-1.181.645-.514 0-1.04.172-1.17.383-.13.21-.501.281-.824.157s-.587-.026-.587.217c0 .244-.36.443-.8.443-.444 0-.8.267-.8.6 0 .33.192.6.427.6.248 0 .318.343.167.819-.143.451-.043 1.081.222 1.4.265.32.325.584.133.587s-.169.139.051.301c.673.496 2.2 3.601 2.2 4.472 0 .463.262.821.6.821.333 0 .6.356.6.8 0 .44.183.8.408.8.235 0 .301.423.156 1-.16.639-.082 1 .216 1 .257 0 .386.135.286.3-.326.538.56 5.068 1.053 5.388.353.229.361.392.03.612-.632.42-.639 11.388-.008 11.8.336.219.339.381.013.6-.605.407-.94 1.594-1.019 3.613-.036.928-.208 1.687-.382 1.687s-.435.63-.579 1.4c-.145.77-.434 1.4-.642 1.4s-.268.18-.132.4.057.4-.176.4-.424.228-.424.506-.36 1.178-.8 1.998-.8 1.81-.8 2.198-.36.93-.8 1.205-.8.66-.8.855c0 .647-5.627 6.838-6.214 6.838-.426 0-2.186 1.968-2.186 2.444 0 .222-.166.3-.369.175-.204-.126-1.765.494-3.471 1.376-1.705.883-3.5 1.605-3.988 1.605-.487 0-.989.267-1.114.593a.634.634 0 0 1-.839.359c-.365-.14-.717.038-.871.44-.207.538-.329.567-.604.142-.242-.375-.433-.403-.644-.094-.165.243-1.56.566-3.1.72-1.54.153-2.86.45-2.933.659-.181.517-4.365.487-4.538-.032-.076-.227-1.306-.498-2.733-.603s-2.656-.369-2.729-.587c-.074-.218-.736-.397-1.472-.397s-1.576-.233-1.866-.518-1.564-.763-2.829-1.064c-1.265-.3-2.3-.716-2.3-.925 0-.208-.248-.284-.55-.167-.324.124-.732-.188-.992-.758-.242-.532-.638-.968-.878-.968s-.716-.279-1.057-.62-1.138-.723-1.771-.85c-.634-.126-1.152-.379-1.152-.561 0-.439-3.591-3.969-4.037-3.969-.191 0-.461-.45-.599-1s-.501-1-.807-1c-.327 0-.557-.412-.557-1 0-.646-.224-1-.633-1-.349 0-.562-.216-.473-.481.088-.264-.079-.759-.37-1.1-.292-.34-.514-.779-.493-.974.02-.196-.191-.497-.471-.67-.404-.25-.407-.436-.015-.909.335-.403.359-.678.074-.854-.23-.143-.419-.069-.419.164a.435.435 0 0 1-.443.424c-.243 0-.339-.27-.212-.6.126-.33.056-.6-.158-.6-.213 0-.387-.504-.387-1.12 0-1.033-.61-2.08-1.212-2.08-.438 0-.445 4.317-.007 4.588.23.143.42.744.421 1.336.004 1.631.792 4.127 1.22 3.863.208-.129.378.325.378 1.008 0 .755.353 1.595.902 2.143.496.496.842 1.208.77 1.582s.045.68.26.68c.214 0 .578.54.808 1.2s.608 1.2.839 1.2c.232 0 .424.225.428.5.008.528 6.868 7.5 7.379 7.5.164 0 .864.453 1.556 1.006l1.689 1.351c.237.19.805.464 1.264.61s1.051.527 1.318.848c.267.322 1.009.585 1.649.585.639 0 1.26.252 1.378.561.119.308.878.684 1.688.835.809.152 1.697.462 1.972.689.358.295.502.257.506-.136.004-.357.109-.399.3-.12.413.604 1.694 1.026 1.694.558 0-.517 1.096-.498 1.27.022.075.225 1.933.512 4.13.638s4.332.409 4.745.631c.533.285.673.274.48-.038-.17-.275.149-.469.851-.518 2.583-.179 3.186-.251 4.424-.53.715-.16 1.3-.42 1.3-.577s.655-.31 1.455-.34 1.838-.306 2.306-.612c.468-.307 1.445-.689 2.172-.848s1.411-.526 1.522-.813c.11-.288.823-.64 1.584-.783s1.278-.43 1.149-.639c-.13-.209.049-.38.397-.38.675 0 3.815-1.938 3.815-2.356 0-.137.511-.475 1.135-.751s1.373-.947 1.664-1.491.863-1.095 1.271-1.224c.408-.13.621-.43.474-.669-.147-.238-.083-.319.142-.179.465.287.956 5.523.899 9.57-.028 1.983.102 2.702.488 2.706.424.005.421.074-.016.35-.563.357-.323 2.596.37 3.462.185.231.324.771.31 1.2-.053 1.632.465 3.936.954 4.247.408.259.405.324-.015.329-.288.003-.412.186-.276.406.363.587-.025.495-1.696-.4-.82-.44-1.791-.8-2.155-.8-.365 0-.767-.27-.894-.6-.132-.344-.729-.6-1.4-.6-.707 0-1.267-.255-1.417-.645-.157-.41-.539-.57-1.042-.438-.438.114-.904.033-1.036-.182-.133-.214-.488-.295-.79-.179s-.73-.097-.952-.473c-.33-.558-.469-.583-.762-.138-.245.373-.407.401-.511.09-.084-.251-1.405-.558-2.948-.683-1.539-.126-2.857-.391-2.93-.59-.175-.473-10.591-.472-11.087.001-.209.199-1.804.46-3.544.579-1.772.122-3.292.424-3.455.689-.16.259-.479.355-.709.214-.229-.142-.516-.098-.637.098-.121.197-.705.357-1.297.357-.591 0-1.285.286-1.541.636-.354.484-.576.525-.931.17s-.466-.298-.466.238c0 .387-.17.598-.377.47s-.937.316-1.623.986-1.416 1.114-1.623.986-.377-.043-.377.19-.21.424-.466.424c-.906 0-7.534 7.217-7.534 8.205 0 .327-.225.596-.5.598-.633.003-2.163 2.25-2.517 3.697-.148.605-.41 1.1-.582 1.1s-.43.63-.575 1.4-.414 1.4-.6 1.4c-.314 0-.769 1.719-1.049 3.959-.066.527-.286 1.067-.489 1.2-.377.245-.964 4.515-.904 6.57.02.673-.132 1.027-.375.876-.272-.168-.409 1.973-.409 6.395 0 4.33.139 6.561.4 6.4.22-.136.4.033.4.376s-.164.624-.365.624c-.406 0-.346 1.023.087 1.455.153.153.278.662.278 1.132s.225 1.091.5 1.383c.364.386.376.576.042.699-.524.194-.23 1.766.423 2.261.305.232.28.393-.082.539-.33.133-.384.375-.15.67.202.254.479 1.046.617 1.761l.5 2.6c.138.715.411 1.502.607 1.749s.244.744.105 1.105c-.177.462-.081.59.327.433.446-.171.537.055.399.996-.108.734-.002 1.217.267 1.217.245 0 .445.366.445.813s.275.918.612 1.047c.358.137.522.517.395.917-.23.724.833 3.223 1.37 3.223.176 0 .548.818.828 1.817s.863 2.065 1.295 2.368c.433.303.678.727.545.941-.132.215.027.904.355 1.532s.596 1.378.598 1.666c.001.288.164.423.363.3s.549.317.779.976c.23.66.608 1.2.839 1.2.232 0 .421.276.421.613s.27.716.6.842c.33.127.6.485.6.795s.63 1.176 1.4 1.924c.77.747 1.4 1.522 1.4 1.721 0 .198.45.752 1 1.23s1 1.06 1 1.293c0 .463 2.816 3.177 3.3 3.18.165.001.3.283.3.626 0 .64 5.698 6.576 6.312 6.576.187 0 .869.591 1.514 1.312.646.722 1.894 1.846 2.774 2.498s1.744 1.411 1.92 1.688.581.502.9.502.58.184.58.409.495.626 1.1.891c.605.266 1.244.712 1.42.992.176.279.491.508.7.508s.719.315 1.133.7c1.364 1.269 2.602 2.1 3.128 2.1.286 0 .519.17.519.378 0 .353.737.835 3.2 2.094.55.281 1.144.74 1.32 1.02.176.279.581.508.9.508s.58.168.58.374.63.602 1.4.88c.77.279 1.4.621 1.4.761 0 .356 4.216 2.385 4.954 2.385.333 0 1.07.431 1.638.958.569.527 1.668 1.077 2.442 1.222s1.502.508 1.616.806.69.662 1.279.809 1.372.539 1.74.87c.368.332 1.403.701 2.3.822.897.12 1.631.39 1.631.599s.221.307.492.217c.271-.091.781.192 1.134.628s.986.819 1.408.85 1.351.35 2.066.708c.896.448 1.304.504 1.312.18.007-.258.196-.154.42.231s.748.7 1.164.7.855.16.976.355.851.473 1.624.618c.772.145 1.404.414 1.404.598 0 .523 1.95.767 2.156.271q.183-.44.573.116c.215.307.674.45 1.02.317.381-.146.853.078 1.197.57.417.594.625.67.781.283.172-.428.281-.431.575-.014.199.282.663.398 1.03.257s.668-.072.668.153-.225.49-.5.588c-.291.104-.352.327-.145.533.206.207.429.146.533-.145.213-.597 1.561-.667 1.912-.1.49.792 1.703.417 1.895-.586.104-.542.024-1.041-.178-1.108-.214-.072-.19-.588.058-1.24.234-.615.425-3.007.425-5.316 0-2.696.143-4.109.4-3.95.239.148.404-.365.41-1.276.005-.838.115-2.469.245-3.624.159-1.417.091-2.1-.21-2.1-.558 0-.588-1.464-.038-1.805.507-.312.516-26.072.01-26.385-.19-.117-.269-2.013-.175-4.212.11-2.555.025-3.998-.235-3.998-.224 0-.407-.371-.407-.824s.18-.712.4-.576c.226.14.4-.188.4-.753 0-.55-.18-1.111-.4-1.247s-.4-1.126-.4-2.2-.158-2.051-.352-2.17c-.193-.12-.26-1.03-.148-2.024.135-1.196.051-1.806-.248-1.806-.249 0-.452-.27-.452-.6s.188-.6.418-.6c.496 0 .052-2.928-.475-3.133-.189-.074-.343-.399-.343-.724s.18-.479.4-.343c.782.483-.152-1.664-1-2.3-.251-.188-.176-.444.199-.685.524-.336.501-.567-.178-1.828-.664-1.233-.693-1.496-.199-1.809.318-.201.398-.37.178-.375-.536-.012-1.515-2.165-1.054-2.318.484-.162-.177-3.029-.742-3.217-.315-.105-.314-.295.006-.68.336-.405.243-.735-.383-1.361-.83-.83-1.088-1.627-.527-1.627.165 0 .328-.478.362-1.062.042-.73-.045-.89-.279-.511q-.784 1.267-.984-1.888c-.066-1.052-.318-1.979-.56-2.059-.241-.081-.439-.497-.439-.926 0-.428-.26-.879-.577-1-.37-.142-.524-.633-.431-1.371.108-.853-.049-1.211-.609-1.388-.593-.189-.704-.491-.519-1.417.141-.703.067-1.178-.182-1.178-.23 0-.537-.54-.682-1.2s-.449-1.2-.675-1.2-.307-.27-.18-.6c.126-.33.059-.6-.15-.6s-.493-.45-.631-1-.411-1-.607-1a.366.366 0 0 1-.357-.374c0-.206-.193-.881-.428-1.5-.236-.619-.438-1.216-.45-1.326s-.59-.74-1.283-1.4c-.747-.711-1.202-1.497-1.115-1.93.081-.402-.185-1-.589-1.33s-.491-.474-.194-.32c.371.19.325-.053-.146-.771-.378-.577-.823-1.049-.988-1.049s-.404-.761-.529-1.691c-.124-.931-.418-1.756-.652-1.834s-.426-.295-.426-.482c0-.188-.21-.848-.466-1.467A45 45 0 0 1 265 202.8c-.037-.11-.277-.707-.534-1.326-.256-.619-.466-1.384-.466-1.7s-.16-.574-.357-.574-.469-.45-.607-1-.44-1-.671-1c-.237 0-.309-.347-.165-.8.14-.44.092-.8-.106-.8-.199 0-.361-.498-.361-1.107 0-1.688-.51-3.354-.945-3.086-.213.132-.388-.04-.388-.383s.18-.624.4-.624c.536 0 .514-1.095-.026-1.275-.234-.078-.486-1.032-.559-2.12s-.332-2.044-.574-2.125c-.536-.178-.594-1.68-.065-1.68.22 0 .375-3.093.375-7.504 0-4.127.118-7.862.262-8.3.207-.627.174-.671-.154-.208-.596.844-1.121.124-.562-.771.68-1.09 1.116-4.817.563-4.817-.415 0 .145-1.836.732-2.4.471-.453.433-1.738-.061-2.057-.372-.24-.399-.433-.093-.643.645-.441 1.038-2.406.544-2.711-.259-.16-.066-.577.498-1.079.621-.552.757-.876.42-.997-.275-.099-.5-.445-.5-.77s.16-.492.355-.371c.195.12.46-.184.589-.676.13-.493.06-.956-.154-1.029-.484-.166-.52-1.267-.042-1.267.571 0 .97-4.08.433-4.412-.343-.212-.348-.501-.022-1.111.59-1.102.583-5.677-.008-5.677-.327 0-.33-.144-.01-.528.525-.634.14-4.672-.446-4.672-.227 0-.201-.232.063-.549.478-.576.202-1.819-.529-2.381-.303-.234-.298-.385.019-.516.533-.221-.429-3.363-1.179-3.85-.343-.222-.308-.411.131-.704.419-.279.465-.491.154-.7-.245-.165-.573-.705-.727-1.2s-.432-.9-.617-.9c-.184 0-.241-.36-.126-.8.117-.447.012-.8-.237-.8-.246 0-.447-.27-.447-.6s-.149-.6-.331-.6-.251-.54-.154-1.2c.105-.72-.002-1.2-.27-1.2-.245 0-.445-.236-.445-.525 0-.897-1.583-2.275-2.616-2.275-.541 0-.984.202-.984.449 0 .312-.182.298-.595-.045-.482-.4-.643-.371-.843.151m-98.492 4.606c3.087-.509 5.134 4.414 3.364 8.093-.778 1.616-4.367 3.573-5.139 2.801-.25-.25-.771-.455-1.156-.455-1.416 0-2.788-.945-3.014-2.076-.124-.618-.382-1.124-.575-1.124s-.35-1.345-.35-2.99c0-3.296.594-4.015 3.61-4.366.672-.079 1.333-.254 1.469-.39s.476-.058.755.174c.278.231.745.381 1.036.333m57.425 4.716c-.388.101-.616.327-.508.502s-.599.408-1.572.518-2.062.493-2.42.851c-.359.359-.8.652-.981.652-.646 0-5.246 4.824-4.992 5.235.142.23-.091.51-.518.622-.851.222-2.31 3.087-1.905 3.741.139.224-.017.677-.345 1.006-.484.483-.592 1.834-.566 7.097.017 3.574.11 6.274.205 5.999.342-.984.866-.477.718.694-.112.884.087 1.383.765 1.916.504.396 1.043 1.119 1.197 1.605.155.487.449.885.654.885s.373.226.373.501c0 .555 2.126 2.699 2.675 2.699.191 0 .655.36 1.032.8s.938.8 1.246.8.665.27.792.6c.126.33.596.6 1.042.6s.813.18.813.4.585.401 1.3.402 1.785.256 2.378.565c.788.412 1.121.438 1.235.098.118-.351.296-.352.722-.006.909.739 4.016.744 5.652.009.818-.367 1.943-.668 2.5-.668s1.013-.18 1.013-.4.452-.4 1.004-.4 1.312-.36 1.689-.8.92-.8 1.208-.8.628-.27.754-.6c.127-.33.449-.6.716-.6.736 0 2.887-2.081 3.203-3.1.154-.495.448-.9.653-.9s.373-.276.373-.613.27-.716.6-.842c.33-.127.6-.561.6-.964 0-.404.18-.845.4-.981s.4-.672.4-1.19c0-.519.225-1.034.5-1.145.4-.161.4-.208 0-.233-.589-.038-.686-1.232-.1-1.232.618 0 .522-7.484-.1-7.736-.388-.158-.378-.289.045-.585.351-.246.39-.435.11-.531-.24-.081-.518-.792-.618-1.579-.176-1.38-1.539-4.143-2.451-4.969-.243-.22-.754-.903-1.135-1.518s-1.115-1.278-1.632-1.475c-.516-.196-1.198-.727-1.515-1.179s-.676-.722-.799-.599-.788-.328-1.478-1.003c-1.123-1.098-2.285-1.469-3.927-1.256-.275.036-.5-.143-.5-.397 0-.311-.456-.376-1.4-.199-.875.164-1.4.105-1.4-.156 0-.623-5.474-.545-5.767.082-.186.4-.28.4-.466 0-.242-.519-.304-.528-1.472-.223m3.771 8.473c-.429.273-.41.386.1.582.349.133.634.069.634-.145 0-.213.27-.387.6-.387s.6.186.6.413.315.532.7.679c4.07 1.554 3.072 9.708-1.189 9.708-.64 0-1.512.186-1.937.414-.534.286-.774.286-.774 0 0-.228-.405-.416-.9-.419-1.503-.01-2.7-.459-2.7-1.013 0-.289-.31-.835-.69-1.214-.78-.781-.972-5.225-.245-5.698.228-.149.629-.675.889-1.17.261-.495.738-.9 1.06-.9s.586-.168.586-.373c0-.349 1.127-.635 3-.761.581-.039.654.039.266.284M176.5 154.598c-.275.313-.5.69-.5.838s-.675.906-1.5 1.684-1.5 1.524-1.5 1.657-.405.676-.9 1.208-.9 1.092-.9 1.247-.445.393-.988.529c-.544.137-1.18.606-1.415 1.044-.234.437-.606.795-.828.795s-.779.351-1.24.78-1.464 1.078-2.23 1.441l-1.393.661.278 2.454c.152 1.35.43 2.549.617 2.665.187.115.562 1.107.833 2.204s.735 2.139 1.03 2.315.536.851.536 1.5.16 1.18.355 1.18c.196 0 .478.652.628 1.449l.272 1.449 1.822-.205c1.002-.113 1.935-.38 2.072-.593.138-.213.926-.629 1.751-.924s1.5-.681 1.5-.856c0-.176.437-.32.971-.32.535 0 1.218-.246 1.519-.547s.989-.685 1.529-.853 1.459-.641 2.043-1.052 1.259-.748 1.5-.748.438-.18.438-.4.257-.4.571-.4c.572 0 2.229-1.815 2.229-2.441 0-.184-.27-.23-.6-.104-.436.168-.6-.046-.6-.784 0-.557-.27-1.284-.6-1.614s-.6-.847-.6-1.148c0-.302-.15-.72-.334-.929s-.649-1.28-1.033-2.38c-.868-2.48-1.922-4.719-2.378-5.052-.19-.138-.1-.352.2-.474.421-.173.369-.365-.231-.849-.428-.344-.573-.625-.324-.625.307 0 .269-.353-.121-1.1-.316-.605-.575-1.595-.577-2.2-.002-1.227-1.026-1.497-1.902-.502M233.6 200c3.474.948 6.29 1.668 7.332 1.875.622.124 1.225.468 1.338.764.114.297.813.653 1.554.792s1.546.492 1.789.785.971.649 1.618.791 1.086.404.975.583c-.11.179.248.437.797.575.548.138.997.421.997.63s.236.289.525.178.768.253 1.068.813c.298.558.788 1.014 1.09 1.014.596 0 3.891 3.231 4.549 4.461.225.419.56.668.745.553.186-.115.442.207.57.715.127.509.693 1.171 1.256 1.473.567.303.935.783.824 1.073s-.04.525.159.525c.198 0 .475.363.616.806s.423.702.627.576.371.057.371.407.25.732.555.849.776 1 1.045 1.962.739 1.845 1.045 1.962.555.489.555.825c0 .337.21.613.467.613.256 0 .348.118.203.263s-.085.478.133.741c.218.262.436.954.484 1.536s.318 1.06.6 1.06.513.27.513.6.155.6.345.6.258.45.153 1c-.12.626-.008 1 .299 1 .33 0 .406.36.234 1.1-.189.816-.151.945.151.5.223-.33.418-.51.432-.4s.091.947.17 1.859c.079.913.437 2.107.796 2.654.358.547.623 1.15.588 1.34-.165.913.074 1.768.432 1.547.398-.246.566 1.058.483 3.768-.023.773.297 1.843.738 2.461.852 1.197 1.006 1.759.376 1.369-.38-.235-.084.717.875 2.817.235.515.223 1.208-.033 1.881-.332.875-.3 1.026.178.842.458-.176.583.167.583 1.596 0 1 .183 1.932.407 2.07s.286.445.14.681c-.437.707-.234 2.814.302 3.145.397.246.393.438-.021.936-.379.456-.43 1.144-.188 2.53.182 1.047.319 2.3.304 2.785-.015.484.17.844.41.8.543-.101.329 2.216-.238 2.569-.261.163-.247.346.041.524.244.15.443.893.443 1.65s.184 1.376.408 1.376c.246 0 .297.437.129 1.1-.504 1.995-.264 11.3.292 11.3.188 0 .343 2.61.346 5.8.004 4.309-.121 5.802-.485 5.806q-.49.006.084.37c.418.264.459.508.15.894-.713.89-1.074 8.492-.453 9.541.418.707.424.931.029 1.075-.308.111-.5.937-.5 2.147 0 1.082-.18 1.967-.4 1.967s-.4-.172-.4-.382-.63-.5-1.4-.644-1.4-.423-1.4-.619c0-.195-.352-.355-.781-.355-.941 0-2.905-.825-3.313-1.392-.186-.259-.296-.225-.3.092-.003.275-.216.5-.473.5-.256 0-.343-.124-.192-.275.34-.339-4.047-2.231-4.51-1.944-.184.113-.761-.208-1.283-.716-.912-.887-9.114-5.065-9.944-5.065-.222 0-.404-.166-.404-.368 0-.203-.552-.49-1.227-.638s-1.32-.511-1.433-.807c-.114-.296-.732-.653-1.373-.794-.642-.141-1.167-.442-1.167-.668s-.27-.307-.6-.18c-.365.14-.6 0-.6-.358 0-.323-.36-.587-.8-.587s-.8-.199-.8-.443c0-.243-.261-.343-.58-.22-.334.128-.67-.065-.795-.458-.119-.374-.803-.938-1.52-1.255-.718-.316-1.543-.811-1.834-1.099-.29-.289-.766-.525-1.057-.525s-.632-.27-.759-.6c-.126-.33-.499-.6-.828-.6-.33 0-.792-.36-1.027-.8s-.609-.8-.831-.8-.789-.36-1.261-.8-1.068-.8-1.324-.8c-.255 0-.878-.54-1.384-1.2s-1.173-1.2-1.483-1.2-.453-.18-.317-.4.052-.4-.187-.4-1.244-.81-2.234-1.8-2.069-1.8-2.398-1.8-.794-.43-1.034-.956c-.239-.526-.87-1.189-1.402-1.473s-1.062-.9-1.18-1.366-.832-1.366-1.589-1.997-1.376-1.37-1.376-1.642-.54-.949-1.2-1.505-1.2-1.17-1.2-1.365-.45-.779-1-1.296-1-1.096-1-1.287-.183-.564-.407-.83c-1.616-1.916-1.993-2.465-1.993-2.901 0-.273-.26-.596-.578-.718s-.698-.861-.844-1.643-.388-1.421-.535-1.421c-.296 0-1.378-2.423-1.295-2.9.029-.165-.114-.3-.316-.3-.203 0-.487-.54-.632-1.2s-.429-1.2-.632-1.2c-.202 0-.368-.276-.368-.613s-.26-.712-.577-.833c-.368-.142-.524-.633-.433-1.358.091-.717-.065-1.216-.423-1.353-.312-.12-.567-.569-.567-.997s-.183-.84-.407-.915-.516-1.125-.648-2.333c-.133-1.209-.503-2.408-.824-2.665-.32-.256-.548-.796-.506-1.2s.038-.823-.01-.933c-.047-.11-.15-.904-.227-1.765s-.374-1.713-.659-1.894-.333-.332-.106-.335.45-.456.495-1.006c.046-.55-.095-1-.312-1-.218 0-.396-.504-.396-1.12s-.216-1.336-.48-1.6c-.364-.364-.366-.48-.009-.48.547 0 .585-5.243.049-6.686-.192-.516-.169-.985.055-1.123.212-.131.385-.753.385-1.381 0-.629.225-1.225.5-1.324.396-.144.39-.367-.028-1.073-.29-.49-.425-.993-.3-1.119.126-.125.228.013.228.306s.135.397.3.231c.428-.432.371-1.98-.084-2.307-.226-.162-.082-.609.348-1.085.403-.445.627-1.086.497-1.424s-.042-.615.194-.615.333-.255.213-.567a.61.61 0 0 1 .357-.787c.316-.122.575-.559.575-.972s.289-1.33.642-2.037c.353-.708.544-1.385.424-1.504-.119-.119.222-.624.759-1.121.536-.497.975-1.209.975-1.581 0-.373.18-.567.4-.431s.4.07.4-.147c0-.578 4.608-5.018 5.897-5.683.607-.313 1.231-.749 1.388-.969.157-.221.427-.41.6-.421.809-.05 2.115-.672 2.115-1.007 0-.205.36-.373.8-.373s.8-.163.8-.363.36-.268.8-.153.8.019.8-.214c0-.782 11.587-.838 14.4-.07"/></g></svg>