<svg xmlns="http://www.w3.org/2000/svg" id="svg" width="400" height="400" viewBox="0 0 400 400"><g id="svgg" fill-rule="evenodd" stroke="none"><path id="path0" fill="#2a9d90" d="M189.837 20.74c-.116.187-2.957.468-6.315.624-3.358.157-6.199.419-6.313.582-.115.164-2.544.524-5.399.801s-5.374.652-5.6.834-1.535.458-2.911.614c-1.375.156-2.588.425-2.694.598-.107.172-1.2.439-2.428.593-1.229.153-2.806.512-3.506.797s-2.126.642-3.171.792-1.9.42-1.9.598-.9.443-2 .589-2 .411-2 .588c0 .178-1.035.551-2.3.831s-2.48.652-2.7.828-1.075.446-1.9.6-1.5.422-1.5.596c0 .173-.9.531-2 .795s-2 .642-2 .84-.28.36-.622.36-1.383.347-2.314.771c-.93.424-2.181.893-2.778 1.043s-1.086.414-1.086.586-.45.426-1 .564-1 .428-1 .644c0 .215-.213.392-.474.392-.26 0-1.295.382-2.3.85-5.565 2.588-8.685 4.166-9.155 4.629-.29.286-.785.521-1.1.521-.314 0-.571.158-.571.351 0 .194-.585.591-1.3.884-.715.292-1.519.719-1.786.948-1.068.916-1.578 1.25-3.081 2.017-2.728 1.392-3.033 1.583-3.033 1.895 0 .168-.208.305-.462.305s-1.052.45-1.774 1c-.721.55-1.421 1-1.556 1-.136 0-.663.45-1.173 1s-1.121 1-1.358 1-.667.334-.954.743c-.288.408-.928.87-1.423 1.027s-.9.456-.9.667c0 .21-.45.554-1 .763s-1 .553-1 .763c0 .211-.405.511-.9.667s-1.135.619-1.423 1.027c-.287.409-.697.743-.911.743-.41 0-1.708 1.149-6.662 5.9-1.663 1.595-3.171 2.9-3.35 2.9-.429 0-8.354 7.913-8.354 8.342 0 .182-1.257 1.574-2.793 3.094s-2.796 2.945-2.8 3.166-.637.928-1.407 1.57-1.4 1.366-1.4 1.609-.36.749-.8 1.126-.8.914-.8 1.193-.36.732-.8 1.007-.8.703-.8.951c0 .247-.405.832-.9 1.299s-1.155 1.343-1.468 1.946-.717 1.097-.9 1.097c-.182 0-.332.264-.332.586s-.36.779-.8 1.014-.8.692-.8 1.014-.158.586-.351.586c-.194 0-.576.54-.849 1.2s-.616 1.2-.761 1.2-.487.495-.759 1.1c-.898 1.992-1.718 3.3-2.07 3.3-.191 0-.462.525-.603 1.167-.141.641-.498 1.259-.794 1.373-.296.113-.656.743-.8 1.4s-.521 1.293-.837 1.414c-.317.122-.576.497-.576.833 0 .337-.146.613-.325.613s-.573.63-.875 1.4-.681 1.4-.843 1.4-.412.54-.557 1.2-.421 1.2-.614 1.2c-.192 0-.468.63-.612 1.4-.145.77-.394 1.4-.554 1.4s-.53.72-.82 1.6-.665 1.6-.832 1.6c-.168 0-.423.54-.568 1.2s-.4 1.2-.568 1.2-.542.72-.832 1.6-.659 1.6-.82 1.6-.409.63-.554 1.4c-.144.77-.414 1.4-.599 1.4s-.436.495-.557 1.1c-.519 2.58-.83 3.517-1.334 4.022-.295.294-.536.972-.536 1.507s-.155.971-.345.971-.575 1.08-.855 2.4-.644 2.4-.809 2.4-.422.81-.57 1.8c-.149.99-.419 1.8-.6 1.8-.182 0-.458.855-.614 1.9s-.521 2.472-.813 3.171c-.291.7-.655 2.275-.808 3.5s-.42 2.229-.593 2.229-.44 1.08-.593 2.401-.419 2.487-.591 2.593-.543 2.266-.825 4.8c-.283 2.533-.647 4.606-.809 4.606s-.425 2.115-.582 4.7c-.158 2.585-.49 4.953-.74 5.261-.64.794-.64 32.884 0 33.678.25.308.582 2.676.74 5.261.157 2.585.419 4.7.581 4.7.163 0 .514 2.018.782 4.485.267 2.466.635 4.671.816 4.9.181.228.454 1.45.607 2.715s.425 2.3.604 2.3.45 1.003.603 2.229c.153 1.225.517 2.8.808 3.5.292.699.657 2.126.813 3.171s.432 1.9.614 1.9c.181 0 .451.81.6 1.8s.405 1.8.57 1.8.529 1.08.809 2.4.665 2.4.855 2.4.345.437.345.971c0 .535.241 1.213.536 1.507.504.505.815 1.442 1.334 4.022.121.605.372 1.1.557 1.1s.455.63.599 1.4c.145.77.394 1.4.554 1.4s.53.72.82 1.6.665 1.6.832 1.6c.168 0 .423.54.568 1.2s.4 1.2.568 1.2.542.72.832 1.6.659 1.6.82 1.6.409.63.554 1.4c.144.77.42 1.4.612 1.4.193 0 .469.54.614 1.2s.396 1.2.557 1.2.541.63.843 1.4.696 1.4.875 1.4.325.276.325.613.259.711.576.833c.316.121.693.758.837 1.414.144.657.504 1.287.8 1.4.296.114.653.732.794 1.373.141.642.412 1.167.603 1.167.352 0 1.172 1.308 2.07 3.3.272.605.614 1.1.759 1.1s.488.54.761 1.2.655 1.2.849 1.2.351.264.351.586.36.779.8 1.014.8.692.8 1.014.15.586.332.586.588.494.9 1.097.973 1.479 1.468 1.946.9 1.052.9 1.299c0 .248.36.676.8.951s.8.728.8 1.007.36.816.8 1.193.8.883.8 1.126.63.967 1.4 1.609 1.403 1.349 1.407 1.57 1.264 1.646 2.8 3.166 2.793 2.919 2.793 3.108c0 .415 7.97 8.328 8.388 8.328.16 0 1.653 1.305 3.316 2.9 4.954 4.751 6.252 5.9 6.662 5.9.214 0 .624.334.911.743.288.408.928.87 1.423 1.027s.9.456.9.667c0 .21.45.554 1 .763s1 .553 1 .763c0 .211.405.511.9.667s1.135.619 1.423 1.027c.287.409.717.743.954.743s.848.45 1.358 1 1.037 1 1.173 1c.135 0 .835.45 1.556 1s1.52 1 1.774 1 .462.137.462.305c0 .312.305.503 3.033 1.895.862.44 1.786.98 2.053 1.2s.717.587 1 .815 1.099.655 1.814.948c.715.294 1.3.692 1.3.886 0 .193.257.351.571.351.315 0 .81.235 1.1.521.47.463 3.59 2.041 9.155 4.629 1.005.468 2.04.85 2.3.85.261 0 .474.177.474.392s.45.506 1 .644 1 .392 1 .564.489.436 1.086.586 1.848.619 2.778 1.043c.931.424 1.972.771 2.314.771s.622.162.622.36.9.576 2 .84 2 .622 2 .795.675.442 1.5.596 1.68.424 1.9.6 1.435.549 2.7.828c1.265.28 2.3.653 2.3.831s.9.442 2 .588 2 .411 2 .589.855.447 1.9.598 2.472.507 3.171.792c.7.285 2.277.644 3.506.797s2.321.421 2.428.593c.106.173 1.319.442 2.694.598s2.686.433 2.911.614c.226.182 2.746.557 5.6.834 2.855.277 5.284.637 5.399.801.114.163 2.955.425 6.313.582s6.199.437 6.315.624c.275.445 19.363.444 19.363-.001 0-.187 2.741-.468 6.091-.624s6.186-.418 6.3-.581c.115-.164 2.544-.524 5.399-.801s5.374-.655 5.6-.839 1.625-.464 3.11-.621c1.485-.158 2.7-.424 2.7-.594s1.003-.432 2.229-.585c1.225-.153 2.8-.512 3.5-.797.699-.285 2.126-.642 3.171-.792s1.9-.42 1.9-.598.9-.443 2-.589 2-.419 2-.606c0-.188 1.17-.562 2.6-.832s2.6-.634 2.6-.81.72-.441 1.6-.59 1.6-.417 1.6-.595c0-.179.9-.541 2-.805s2-.642 2-.84.28-.36.622-.36 1.383-.347 2.314-.771c.93-.424 2.181-.893 2.778-1.043s1.086-.419 1.086-.598c0-.178.54-.443 1.2-.588s1.2-.422 1.2-.616c0-.193.72-.568 1.6-.831.88-.264 1.6-.631 1.6-.816s.225-.343.5-.351 1.22-.361 2.1-.786 1.825-.779 2.1-.786.5-.158.5-.334c0-.175.63-.547 1.4-.826s1.4-.674 1.4-.88.242-.374.539-.374c.296 0 .954-.36 1.461-.8s1.137-.8 1.4-.8.893-.36 1.4-.8 1.082-.8 1.278-.8.573-.183.839-.406c.999-.839 3.533-2.394 3.901-2.394.21 0 .382-.146.382-.325s.63-.573 1.4-.875 1.4-.701 1.4-.887.315-.454.7-.596 1.096-.676 1.581-1.187c.484-.512 1.024-.93 1.2-.93.314-.001 2.114-1.39 3.353-2.587.348-.337.815-.613 1.038-.613.222 0 .73-.36 1.128-.8s.876-.8 1.062-.8c.344 0 .753-.321 3.006-2.362a46 46 0 0 1 2.8-2.291c.843-.628 1.671-1.359 1.841-1.625.38-.595.945-1.13 3.081-2.922 2.371-1.989 9.61-9.074 9.61-9.405 0-.293 2.121-2.603 4.3-4.683.715-.682 1.3-1.397 1.3-1.589s.63-.926 1.4-1.633c.77-.706 1.4-1.511 1.4-1.787 0-.277.184-.503.409-.503s.626-.478.892-1.061c.266-.584.963-1.593 1.549-2.243 1.862-2.063 2.35-2.688 2.35-3.007 0-.171.36-.619.8-.996s.8-.951.8-1.275.36-.783.8-1.018.8-.677.8-.981.135-.612.3-.686c.423-.188 2.1-2.628 2.1-3.056 0-.195.36-.77.8-1.277s.8-1.146.8-1.418c0-.273.253-.594.562-.712.31-.119.681-.753.825-1.41s.521-1.293.837-1.414c.317-.122.576-.497.576-.833 0-.337.146-.613.325-.613s.573-.63.875-1.4.696-1.4.875-1.4.325-.276.325-.613.25-.708.555-.825.779-1.012 1.052-1.988.639-1.774.813-1.774.443-.585.598-1.3c.156-.715.397-1.39.536-1.5.399-.314 2.446-4.559 2.446-5.072 0-.254.135-.521.3-.595.469-.208 2.5-4.464 2.5-5.239 0-.382.18-.694.4-.694s.4-.372.4-.826c0-.455.22-1.22.488-1.7.709-1.269 1.499-3.564 1.506-4.374.003-.385.17-.7.371-.7s.486-.72.635-1.6.414-1.6.59-1.6.54-1.17.81-2.6.633-2.6.808-2.6c.174 0 .441-.9.592-2s.412-2 .578-2c.167 0 .507-1.125.756-2.5a64 64 0 0 1 1.059-4.687c.334-1.203.607-2.688.607-3.3s.165-1.113.366-1.113.495-1.395.652-3.1.434-3.195.613-3.31.55-2.996.825-6.4.688-6.318.921-6.475c.286-.193.423-5.734.423-17.115s-.137-16.922-.423-17.115c-.233-.157-.647-3.07-.921-6.475-.275-3.404-.646-6.284-.825-6.4-.179-.115-.455-1.605-.613-3.31s-.451-3.1-.652-3.1-.366-.501-.366-1.113-.273-2.097-.607-3.3a64 64 0 0 1-1.059-4.687c-.249-1.375-.589-2.5-.756-2.5-.166 0-.427-.9-.578-2s-.418-2-.592-2c-.175 0-.538-1.17-.808-2.6s-.634-2.6-.81-2.6-.441-.72-.59-1.6-.434-1.6-.635-1.6-.368-.315-.371-.7c-.007-.81-.797-3.105-1.506-4.374-.268-.48-.488-1.245-.488-1.7s-.18-.826-.4-.826-.4-.312-.4-.694c0-.775-2.031-5.031-2.5-5.239-.165-.074-.3-.341-.3-.595 0-.592-2.108-4.831-2.487-5.001-.158-.071-.403-.746-.545-1.5-.141-.754-.394-1.371-.561-1.371-.166 0-.527-.798-.8-1.774s-.746-1.871-1.052-1.988c-.305-.117-.555-.489-.555-.825 0-.337-.146-.613-.325-.613s-.573-.63-.875-1.4-.696-1.4-.875-1.4-.325-.276-.325-.613-.259-.711-.576-.833c-.316-.121-.69-.745-.831-1.385-.14-.64-.47-1.3-.733-1.467-.262-.166-.7-.752-.973-1.302-.272-.55-.852-1.54-1.287-2.2a30 30 0 0 1-1.26-2.1c-.258-.495-.62-.9-.804-.9s-.336-.264-.336-.586-.36-.779-.8-1.014-.8-.694-.8-1.018-.36-.898-.8-1.275-.8-.825-.8-.996c0-.331-.492-.964-2.292-2.95-.618-.681-1.341-1.716-1.607-2.3s-.668-1.061-.892-1.061c-.225 0-.409-.226-.409-.503 0-.276-.61-1.063-1.356-1.747s-1.469-1.6-1.607-2.034-.697-1.027-1.244-1.32c-.546-.292-.993-.66-.993-.817s-.72-1.005-1.6-1.885-1.6-1.739-1.6-1.909-.722-.996-1.605-1.835c-1.876-1.785-2.342-1.712-5.165.811l-1.769 1.581 1.063 1.394c.585.767 1.294 1.635 1.574 1.929 2.468 2.584 9.067 9.973 9.702 10.861.44.617 2.12 2.865 3.734 4.997 2.772 3.662 5.907 8.204 7.258 10.517.334.572 1.933 3.252 3.552 5.955 2.802 4.676 10.06 19.372 11.462 23.205 11.014 30.129 14.591 62.079 9.965 89-2.594 15.098-4.696 22.987-9.965 37.4-1.402 3.833-8.66 18.529-11.462 23.205a1244 1244 0 0 0-3.552 5.955c-1.357 2.322-4.489 6.859-7.258 10.512-1.614 2.129-3.204 4.279-3.534 4.777s-2.5 2.986-4.823 5.529c-2.322 2.542-4.747 5.252-5.388 6.022-.642.77-2.23 2.39-3.531 3.6-7.302 6.796-12.643 11.569-13.681 12.228-.647.411-2.11 1.473-3.25 2.359-5.808 4.519-7.332 5.543-17.727 11.923-7.655 4.698-23.935 12.032-33.199 14.956-5.03 1.588-9.89 2.929-10.621 2.932-.451.001-.991.162-1.2.358s-1.46.558-2.78.806c-1.32.249-4.29.81-6.6 1.248-18.293 3.469-45.23 3.709-61.6.549-9.364-1.808-9.284-1.789-16.8-3.777-8.525-2.254-17.811-5.768-27.371-10.356-3.696-1.774-6.788-3.226-6.87-3.226-.182 0-8.615-4.943-10.559-6.189-5.8-3.719-7.971-5.223-12.119-8.399-2.595-1.986-5.135-3.883-5.645-4.213-1.25-.812-11.939-10.549-14.051-12.799-7.975-8.5-11.46-12.566-15.197-17.726a775 775 0 0 0-3.426-4.674c-1.218-1.65-2.833-4.054-3.589-5.343s-1.643-2.757-1.973-3.264c-1.941-2.977-5.714-9.696-7.185-12.793l-3.42-7.2c-1.785-3.754-3.879-8.962-5.389-13.4-.486-1.43-1.037-2.96-1.225-3.4-.531-1.248-2.771-9.234-3.645-13-7.29-31.404-5.627-68.397 4.295-95.546.753-2.06 1.369-3.915 1.369-4.122s.328-1.131.729-2.054 1.056-2.488 1.455-3.478c.686-1.701 1.835-4.184 5.831-12.6 1.471-3.097 5.244-9.816 7.185-12.793.33-.507 1.218-1.975 1.973-3.264s2.371-3.693 3.589-5.343 2.76-3.753 3.426-4.674c3.737-5.16 7.222-9.226 15.197-17.726 2.112-2.25 12.801-11.987 14.051-12.799.51-.33 3.05-2.227 5.645-4.213 4.148-3.176 6.319-4.68 12.119-8.399 2.075-1.33 10.383-6.189 10.582-6.189.095 0 3.19-1.453 6.879-3.229 10.382-5 22.341-9.408 30.339-11.184.88-.196 3.22-.732 5.2-1.193 6.424-1.494 12.952-2.521 22.8-3.59 4.661-.505 25.739-.505 30.4 0 7.44.807 12.936 1.576 17.2 2.406 2.42.472 5.39 1.042 6.6 1.268s2.371.571 2.58.766.749.357 1.2.358c2.504.008 20.905 6.291 25.926 8.852l1.513.772 1.291-.967c.709-.532 2.1-1.37 3.09-1.862.99-.493 1.877-.965 1.971-1.05.323-.294-1.504-1.715-2.537-1.974-.569-.143-1.034-.401-1.034-.573s-.489-.436-1.086-.586-1.848-.619-2.778-1.043c-.931-.424-1.972-.771-2.314-.771s-.622-.162-.622-.36-.9-.576-2-.84-2-.626-2-.805c0-.178-.72-.446-1.6-.595s-1.6-.414-1.6-.59-1.17-.54-2.6-.81-2.6-.644-2.6-.832-.9-.46-2-.606-2-.411-2-.589-.855-.447-1.9-.598-2.472-.507-3.171-.792c-.7-.285-2.277-.644-3.506-.797s-2.321-.421-2.428-.593c-.106-.173-1.319-.442-2.694-.598s-2.686-.433-2.911-.614c-.226-.182-2.746-.557-5.6-.834-2.855-.277-5.287-.642-5.406-.812s-2.953-.432-6.3-.583-6.084-.427-6.084-.614c0-.443-19.089-.441-19.363.002"/><path id="path1" fill="#f4a361" d="M290.9 33.866c-1.262.106-2.102.367-2.106.655-.004.293-.159.246-.4-.121q-.394-.599-.694-.176c-.165.233-1.731.641-3.481.907s-3.279.638-3.4.826c-.12.188-.804.469-1.519.625-.715.155-1.3.447-1.3.65 0 .202-.315.371-.7.375s-1.124.454-1.642 1-1.179.993-1.469.993-1.353.63-2.362 1.4-1.984 1.4-2.167 1.4c-.588 0-6.06 6.076-6.06 6.729 0 .2-.32.792-.711 1.317-5.367 7.206-.797 22.041 8.234 26.728 3.773 1.957 4.131 2.556 4.688 7.843.741 7.023.671 6.979 5.389 3.367.77-.589 2.66-1.751 4.2-2.582l2.8-1.51 8.2-.063c11.304-.086 20.713-2.582 26.023-6.904.49-.399 1.45-1.196 2.134-1.771s1.627-1.166 2.096-1.312 1.189-.733 1.6-1.303 1.044-1.33 1.406-1.688c.363-.358 1.073-1.461 1.579-2.451.505-.99 1.048-1.891 1.205-2.002.26-.183 1.237-5.747 1.265-7.198.034-1.844-1.046-7.395-1.535-7.884-.315-.315-.573-.83-.573-1.145 0-.314-.16-.571-.357-.571s-.468-.445-.604-.988c-.137-.544-.606-1.18-1.044-1.415-.437-.234-.795-.614-.795-.846 0-.557-4.174-4.751-4.728-4.751-.238 0-.576-.225-.752-.5-.367-.573-1.322-1.207-3.32-2.202-.77-.384-1.638-.923-1.929-1.198-.29-.275-.888-.5-1.328-.5s-1.07-.27-1.4-.6-1.022-.6-1.538-.6-.998-.175-1.072-.389c-.073-.214-1.573-.584-3.333-.822s-3.525-.611-3.921-.828c-.783-.428-11.17-.781-14.579-.495m14.3 7.728c14.505 2.79 22.263 10.346 20.748 20.206-.397 2.586-3.344 7.577-4.954 8.392-.444.224-1.434.876-2.2 1.448s-2.204 1.409-3.194 1.861l-3.2 1.457c-4.389 1.996-13.597 3.042-20.47 2.323l-4.414-.461-2.509 1.79c-3.209 2.29-3.214 2.289-3.644-.904L281 75.012l-2.4-1.311c-1.32-.722-2.835-1.496-3.368-1.722-5.9-2.504-9.571-12.13-6.792-17.815 1.061-2.171 6.773-8.164 7.781-8.164.141 0 .744-.348 1.342-.773.597-.426 1.615-.901 2.261-1.056s1.37-.433 1.607-.618 1.677-.62 3.2-.966c1.523-.347 3.309-.782 3.969-.968 1.589-.446 14.308-.466 16.6-.025M122.16 54.465c-.503.814-.67 10.056-.202 11.135.351.807.387.554.191-1.307-.295-2.802.189-9.893.676-9.893.192 0 .618.495.946 1.1s.604.915.613.689c.049-1.27-1.678-2.608-2.224-1.724m159.944.613c-2.203.434-2.928 4.534-1.122 6.34a3.612 3.612 0 0 0 6.218-2.577c0-2.793-2.11-4.351-5.096-3.763m11.716 1.46c-1.206 1.582-1.253 2.167-.32 4.018 2.047 4.063 8.55 1.185 6.933-3.068-1.049-2.761-4.818-3.303-6.613-.95m13.324-.573c-2.423 1.962-.543 6.435 2.705 6.435 3.686 0 5.143-3.597 2.632-6.5-.856-.99-4.082-.951-5.337.065m-181.297 3.447c.159.433.619 1.217 1.021 1.742.403.525.732 1.2.732 1.5s.185.546.41.546c.366 0 .091-.617-1.45-3.259-.665-1.139-1.039-1.416-.713-.529m2.896 4.821c.227.458.693 1.065 1.035 1.349s.622.764.622 1.067.186.551.414.551c.518 0-.004-.94-1.444-2.6-.643-.741-.883-.882-.627-.367m-6.102 4.067c.141.605.495 1.55.787 2.1s.725 1.43.962 1.955c.238.526.55.839.693.696s-.118-.772-.58-1.398c-.463-.625-1.042-1.883-1.287-2.795-.494-1.832-.983-2.307-.575-.558m47.359.111c-1.43.183-4.49.522-6.8.753-7.038.704-14.309 2.313-16.4 3.629-.799.503-.466.808 4.6 4.207l4 2.684 1.8-.435c15.435-3.736 37.728-1.381 53.78 5.68 2.448 1.077 10.133 4.882 11.22 5.555 4.27 2.646 4.437 2.762 6.506 4.548 1.899 1.638 1.127 1.614 8.494.264 5.086-.932 4.954-1.526-1.4-6.287l-2.676-2.004c-1.032-.773-1.996-1.405-2.142-1.405-.147 0-.923-.513-1.724-1.141-1.701-1.331-1.785-1.377-9.307-5.125-10.211-5.089-17.723-7.491-30.351-9.704-1.43-.251-5.39-.626-8.8-.835s-6.65-.455-7.2-.549c-.55-.093-2.17-.019-3.6.165m-37.199.765c-.001.757 6.879 7.628 7.623 7.612.372-.008.293-.167-.224-.45-1.198-.655-5.781-5.166-6.643-6.538-.415-.66-.755-.941-.756-.624m-6.103 6.224c.901 1.1 2.684 2.99 3.962 4.2 1.731 1.639 1.515 1.333-.846-1.2-4.415-4.737-5.004-5.304-3.116-3m16.466 3.535c.585.728 2.836 2.442 2.836 2.159 0-.088-.765-.768-1.7-1.511s-1.446-1.035-1.136-.648m3.236 2.521c0 .195.338.532.75.749.413.217 1.313.715 2 1.105.688.391 1.25.565 1.25.388s-.495-.534-1.1-.793a12 12 0 0 1-2-1.136c-.495-.367-.9-.507-.9-.313m-11.617 1.886c.981 1.022 2.061 1.857 2.4 1.857.339-.001.053-.346-.636-.766s-1.5-1.106-1.8-1.523c-.301-.418-.817-.909-1.147-1.092s.202.502 1.183 1.524m-14.362 4.555c-4.269 4.001-8.635 9.47-10.802 13.531-.675 1.265-1.375 2.496-1.555 2.736s-.728 1.426-1.217 2.636-1.059 2.56-1.267 3c-.666 1.416-1.609 6.272-2.174 11.2-.758 6.612-1.775 13.826-2.001 14.191-.25.405-1.955 13.643-2.963 23.009-.333 3.101-1.383 36.012-1.189 37.315.023.157.005.375-.039.485-.42 1.039-2.687 11.61-3.409 15.898-.306 1.814-.651 3.453-.768 3.642-2.213 3.581-2.1 38.156.139 42.427.182.348.464 1.436.627 2.418.163.981.438 2.061.612 2.4s.705 1.875 1.18 3.415c.998 3.236 1.429 4.251 3.953 9.321 2.774 5.574 2.88 5.763 4.111 7.337.628.801 1.141 1.6 1.141 1.774s.691 1.138 1.535 2.142c.845 1.004 2.012 2.583 2.594 3.509 1.714 2.723 5.699 3.208 13.892 1.69 6.607-1.223 8.091-1.581 11.379-2.739 3.495-1.231 8.181-3.241 9.4-4.033.33-.214 1.157-.641 1.837-.948 4.143-1.873 11.827-7.544 16.349-12.067 3.773-3.772 10.614-12.562 10.614-13.637 0-.157.258-.571.573-.919 1.199-1.325 5.624-11.002 6.416-14.03.144-.55.421-1.36.616-1.8 2.212-4.992 3.777-20.506 3.392-33.643l-.247-8.442 1.525-.685c.839-.376 1.885-.851 2.325-1.054 2.864-1.326 6.327-2.201 12.929-3.27l2.929-.474-.257-1.365c-.14-.751-.411-1.658-.6-2.016a69 69 0 0 1-1.163-2.451c-2.854-6.268-11.267-9.832-19.038-8.065-2.235.508-7.171 1.962-8.4 2.474-6.923 2.885-7.277 2.908-7.622.491-.916-6.421-7.648-13.633-12.778-13.687l-1.2-.013v7.1c0 11.98-2.218 16.96-11.956 26.837-10.284 10.432-15.367 13.016-21.697 11.031-2.444-.767-8.147-5.747-8.147-7.115 0-.323-.158-.646-.351-.72s-1.033-1.483-1.866-3.133l-1.516-3-.186-7.756c-.198-8.22-.095-8.617 1.54-5.9 1.739 2.891 14.997 17.089 17.234 18.456.36.22 1.301.913 2.091 1.541l1.436 1.14 1.709-1.323c3.931-3.043 4.688-4.581 2.873-5.839-6.536-4.532-20.4-20.58-22.91-26.519-.14-.33-.769-1.459-1.398-2.509-1.426-2.383-1.777-7.253-1.117-15.529.581-7.293 1.565-9.414 2.703-5.829.32 1.009 1.449 2.34 4.795 5.653 5.034 4.987 9.149 7.568 15.763 9.889 3.984 1.399 16.954 1.381 20.8-.027 3.926-1.438 8.425-3.634 10.058-4.909.801-.627 1.615-1.139 1.809-1.139.578 0 6.3-6.063 7.489-7.936 1.804-2.839.995-3.105-1.634-.536-2.956 2.889-3.917 3.54-8.322 5.638-1.98.944-3.903 1.871-4.274 2.062-3.229 1.66-18.898 1.487-22.22-.246-.608-.317-1.304-.578-1.546-.58-1.26-.007-8.985-4.905-11.276-7.149-1.666-1.632-4.484-5.052-4.484-5.442 0-.14-.728-1.46-1.617-2.933s-1.89-3.668-2.224-4.878-.822-2.632-1.084-3.161c-.312-.632-.471-3.302-.463-7.8.016-9.877 1.493-15.226 6.194-22.439.86-1.32 1.73-2.763 1.933-3.206.525-1.145 8.772-9.317 10.527-10.431 2.146-1.362 2.132-1.473-.445-3.609-5.138-4.258-4.437-4.297-9.6.543m30.379-3.592c0 .221.315.52.7.665.884.332 2.803 1.427 4.089 2.333.544.384 1.154.697 1.356.697.439 0-2.343-1.925-3.519-2.434-.454-.197-1.231-.652-1.726-1.011s-.9-.472-.9-.25m-11.6 2.447c1.677 1.487 6.4 4.538 6.4 4.134-.001-.158-.856-.779-1.9-1.382s-2.8-1.748-3.9-2.545c-1.721-1.246-1.805-1.275-.6-.207m131.64 1.488c-.543 1.968-.263 2.248.36.36.264-.799.385-1.548.269-1.664s-.399.471-.629 1.304m-113.24.082c0 .192.461.56 1.025.817.586.267.92.295.778.066-.363-.587-1.803-1.293-1.803-.883m2.943 1.789c.408.269 1.523 1.074 2.476 1.789s1.864 1.3 2.023 1.3.576.254.924.564c.349.311 1.894 1.701 3.434 3.089l2.8 2.524-2.141-2.243c-1.178-1.233-2.851-2.758-3.719-3.388-.869-.63-2.335-1.699-3.259-2.375-.925-.675-2.041-1.345-2.481-1.488-.758-.247-.761-.235-.057.228m104.736.724c-.924.679-1.679 1.33-1.679 1.447s.618-.258 1.373-.835c.756-.576 1.566-1.047 1.8-1.047.235 0 .427-.18.427-.4 0-.563-.05-.542-1.921.835m4.36.825c-.53 1.52-.551 1.822-.091 1.32.383-.418.969-2.58.699-2.58-.093 0-.366.567-.608 1.26m-123.586-.273c.609.609 3.758 2.536 3.904 2.389.097-.097.101-.228.01-.293-2.092-1.463-4.653-2.835-3.914-2.096m115.501 1.727c-.525.393-1.989 1.208-3.254 1.812-2.248 1.074-3.188 1.809-1.4 1.095 1.462-.584 5.708-2.896 6.174-3.361.572-.572-.628-.214-1.52.454m-109.657 2.035c.933.688 1.805 1.251 1.938 1.251s.764.372 1.403.827 1.159.68 1.154.5c-.004-.18-1.219-1.047-2.7-1.927-3.437-2.042-3.922-2.218-1.795-.651m116.225.051c-.249.66-.383 1.2-.298 1.2s.435-.54.776-1.2.475-1.2.298-1.2-.526.54-.776 1.2M253.8 97.014c-1 .482-1.034.537-.2.334 1.133-.277 2.407-.927 1.8-.918-.22.003-.94.266-1.6.584m12.118 1.732c-.791 1.059-2.296 2.494-3.346 3.19s-1.679 1.264-1.398 1.264c1.116 0 6.9-5.659 6.348-6.211-.092-.092-.814.699-1.604 1.757m-15.688-.515c-.863.317-1.673.679-1.799.805-.377.376 2.09-.305 3.169-.875 1.307-.691.611-.655-1.37.07m-92.877.263c.415.278 1.625 1.181 2.689 2.006s2.139 1.5 2.39 1.5c.534 0-2.887-2.511-4.632-3.4-.66-.336-.861-.384-.447-.106M173.1 100.2c.457.66 1.516 1.83 2.353 2.6 1.217 1.118 1.13.958-.431-.8-2.626-2.956-2.896-3.209-1.922-1.8m72.3-.385c-1.584.548-1.586.551-.2.323.77-.126 1.67-.384 2-.572.881-.502.03-.384-1.8.249m-5.272 1.134c-1.36.248-2.576.557-2.703.687-.34.349 4.674-.457 5.375-.864.721-.418.509-.404-2.672.177m-8.728 1.494c-3.646.524-3.938.741-.664.492 1.615-.123 3.415-.368 4-.545l1.064-.321-1 .014c-.55.008-2.08.17-3.4.36m-11.124 1.248c-1.938.163-3.828.492-4.2.733-.613.395-.607.415.057.206.403-.127 2.525-.348 4.714-.491s4.052-.375 4.138-.514c.193-.313-.286-.306-4.709.066m-55.876-.025c.11.096 1.37 1.24 2.8 2.542l2.6 2.368-2-2.118c-1.1-1.165-2.36-2.309-2.8-2.542-.44-.234-.71-.346-.6-.25m94.9.346c-.495.199-.9.458-.9.575 0 .388.637.221 1.424-.374.884-.67.761-.717-.524-.201m-47.076 1.238c-.867.203-1.677.471-1.8.595-.323.326 2.862-.283 3.576-.684.739-.415.272-.391-1.776.089m44.776-.056a23 23 0 0 1-1.557.582c-.417.134-.661.339-.543.457.243.243 3.1-.874 3.1-1.213 0-.258.028-.263-1 .174m-49.4 1.294c-.77.228-1.195.491-.943.583.251.092 1.061-.097 1.8-.42 1.562-.681 1.152-.76-.857-.163m-61.6.275c-.839.155.201.261 2.6.265 2.875.004 3.55-.076 2.4-.288-1.857-.341-3.052-.336-5 .023m106 .264-1.4.566 1.4-.239c.77-.131 1.571-.399 1.78-.596.536-.505-.106-.408-1.78.269m-110.53.754c-1.728.616-2.608 1.283-1.07.812 2.186-.671 3.768-1.337 3.2-1.347-.33-.006-1.288.235-2.13.535m11.73-.426c0 .273 3.717 1.462 3.923 1.255.104-.103-.242-.346-.768-.54-1.385-.512-3.155-.913-3.155-.715m51.6.134-1.555.58c-.526.194-.867.442-.759.551.109.108.989-.154 1.956-.583 1.581-.702 1.847-1.109.358-.548m42.6.802c-.66.094-1.374.34-1.587.547-.418.406 1.781.079 3.187-.473.847-.333.37-.355-1.6-.074m-109.6 1.246c-.66.403-1.47 1.076-1.8 1.494q-.595.755.646-.235c.686-.548 1.586-1.21 2-1.472.415-.263.664-.487.554-.499s-.74.308-1.4.712m19.8-.347c0 .225.256.41.569.41s1.168.489 1.9 1.086c1.104.901 1.195.928.532.159-.962-1.116-3.001-2.241-3.001-1.655m43.3.022c-.495.199-.9.458-.9.575 0 .388.637.221 1.424-.374.884-.67.761-.717-.524-.201m40.723.424c-2.684.526-2.895.783-.423.514 2.021-.22 4.396-.978 2.8-.894-.33.017-1.4.188-2.377.38m-70.423 1.015c0 .441 1.944 3.349 2.238 3.349.231 0 .03-.359-1.321-2.356-.504-.746-.917-1.192-.917-.993m61.688.344c-2.262.273-4.228.611-4.369.752-.14.141.63.152 1.713.024 5.492-.647 7.932-1.002 8.107-1.177.252-.251-.485-.197-5.451.401m-52.088-.07c0 .459 1.296 3.513 1.432 3.376.173-.173-.803-3.006-1.158-3.36-.151-.151-.274-.158-.274-.016m41 1.371c-1.1.084-2.133.283-2.296.444s1.256.156 3.153-.01c1.897-.167 3.545-.399 3.663-.516.215-.216-.854-.196-4.52.082m30.066 1.107c-1.063.292-2.053.659-2.2.814-.146.155.094.181.534.056.44-.124 1.565-.423 2.5-.665.935-.241 1.7-.522 1.7-.623 0-.248-.275-.203-2.534.418m-87.883 1.297c.743.935 1.423 1.7 1.511 1.7.283 0-1.431-2.251-2.159-2.836-.387-.31-.095.201.648 1.136m51.417-1.223c-2.377.546-3.864.992-3.737 1.119.186.186 4.745-.871 5.044-1.169.246-.247-.07-.235-1.307.05m-82.88 1.023c-.451.495-1.026 1.35-1.278 1.9-.389.848-.381.886.05.246.279-.414.929-1.269 1.444-1.9 1.109-1.359.956-1.533-.216-.246m42.297 2.271c1.226 2.413 1.889 3.252 1.207 1.529-.644-1.628-1.668-3.48-2.058-3.721-.211-.13.172.856.851 2.192m72.755-1.737c-.408.491-.42.782-.055 1.3.259.366.735 1.251 1.057 1.966s.68 1.3.796 1.3c.301 0-.431-1.816-1.213-3.01-.366-.558-.596-1.073-.511-1.143s.514-.33.954-.576c.635-.355.666-.449.149-.459-.358-.007-.888.273-1.177.622m9.242-.414c.008.209.285.83.617 1.38l.602 1-.261-1c-.273-1.043-.983-2.067-.958-1.38m-74.195 1.181c.156.659.438 1.367.626 1.572.187.205.17-.224-.04-.954-.487-1.701-.961-2.2-.586-.618m26.237-.542c-.739.213-1.269.461-1.177.553.202.202 3.121-.575 3.121-.831 0-.235-.318-.19-1.944.278m-3.456 1.355c-1 .482-1.034.537-.2.334 1.133-.277 2.407-.927 1.8-.918-.22.003-.94.266-1.6.584m-55.662.092c-.254.162.944.294 2.662.294s2.916-.132 2.662-.294-1.452-.294-2.662-.294-2.408.132-2.662.294m16.395 1.614c.264.895.604 1.75.755 1.901.394.395-.496-2.751-.899-3.175-.185-.194-.12.379.144 1.274m-9.104.118c.644.791 1.252 1.37 1.35 1.287s-.428-.73-1.17-1.438L155.858 117zm45.671-.718c-.605.239-1.1.584-1.1.767s.54.054 1.2-.287c.891-.461 1.807-1.258 1.1-.957-.055.023-.595.238-1.2.477m55.751.914c.233.861.58 1.731.772 1.932s.159-.339-.074-1.2-.58-1.731-.772-1.932-.159.339.074 1.2m-128.44-.063c-.226.594-.398 1.384-.383 1.755s.286-.03.602-.891c.315-.861.488-1.651.383-1.756s-.376.297-.602.892m53.74.429c.104.44.314 1.43.466 2.2s.366 1.55.474 1.733c.236.398 2.253-1.456 3.409-3.133.455-.66-.078-.21-1.185.999l-2.011 2.199-.297-1.799c-.163-.989-.465-2.069-.671-2.399-.292-.468-.333-.425-.185.2m-36.962.621c-.242.451-.383 1.093-.314 1.425s.323-.037.565-.821c.495-1.602.402-1.825-.251-.604m52.111.419c-1.704 1.207-2.313 1.933-1 1.194.853-.481 3.179-2.407 2.9-2.402-.11.002-.965.546-1.9 1.208m-22.274.56c.431 1.835 1.001 2.632.714 1-.135-.77-.415-1.58-.621-1.8-.236-.251-.271.047-.093.8m72.988-.38c.008.209.285.83.617 1.38l.602 1-.261-1c-.273-1.043-.983-2.067-.958-1.38M158.6 122.6c0 1.168.132 1.916.294 1.662s.294-1.002.294-1.662-.132-1.408-.294-1.662-.294.494-.294 1.662m101.26-.2c.135.77.415 1.58.621 1.8.236.251.271-.047.093-.8-.431-1.835-1.001-2.632-.714-1m-130.817-.167c-.324.844-.259 6.586.085 7.454.15.378.272-1.287.272-3.7 0-4.729.003-4.694-.357-3.754M167.4 125.8c0 2.268.132 3.916.294 3.662s.294-1.902.294-3.662-.132-3.408-.294-3.662-.294 1.394-.294 3.662m28-3.177c-4.323 3.592-9.778 9.777-8.624 9.777.233 0 .424-.288.424-.639s2.156-2.782 4.79-5.4 4.75-4.755 4.7-4.748-.63.461-1.29 1.01m-48.973.751c-.039 1.133 1.501 4.113 2.282 4.412.484.186.414-.016-.248-.721-.506-.539-1.165-1.764-1.464-2.722-.299-.959-.556-1.395-.57-.969m63.273-.162c-1.41.567-1.055.764.6.332 2.21-.576 2.406-.68 1.3-.687-.55-.003-1.405.156-1.9.355m10.9-.227c.882.419 3.874.929 3.548.604-.191-.192-1.158-.449-2.148-.571-.99-.123-1.62-.138-1.4-.033m-42.906.453c.119.199.433 1.411.697 2.694s.569 2.241.679 2.131c.327-.326-.686-4.626-1.159-4.918-.239-.148-.337-.106-.217.093m73.746 1.499c.358 1.049.721 1.836.807 1.75.208-.209-.662-2.783-1.106-3.272-.193-.211-.058.474.299 1.522m-44.886-.073c-3.963 2.969-7.084 6.881-7.926 9.936-.152.55.364-.288 1.147-1.862 1.436-2.887 6.387-8.138 7.674-8.138.303 0 .551-.18.551-.4 0-.559-.139-.515-1.446.464m-48.803.979c-.147.416-.646 1.084-1.109 1.484l-.842.727.891-.436c.94-.461 1.928-1.932 1.551-2.31-.123-.122-.344.118-.491.535m69.794-.126c.3.37 1.134 1.038 1.854 1.483s1.413 1.204 1.54 1.687c.126.483.341.766.478.63.479-.48-.648-1.899-2.523-3.18-1.042-.711-1.649-.99-1.349-.62m33.393-.068c.109.357.325 1.527.48 2.6s.448 2.221.651 2.551c.286.466.327.421.179-.2-.104-.44-.313-1.61-.464-2.6s-.447-2.07-.659-2.4c-.329-.512-.356-.505-.187.049m-8.275 2.951c.138.88.402 1.96.587 2.4.214.508.245.215.087-.8-.138-.88-.402-1.96-.587-2.4-.214-.508-.245-.215-.087.8m-102.714-.091c.605.605 4.688.613 5.292.01.375-.376.167-.385-.947-.043-1.022.313-1.907.317-3.111.011-1.245-.316-1.566-.31-1.234.022m29.503 2.891c.548 4.682.909 6.058.682 2.6-.122-1.87-.379-3.67-.569-4-.21-.363-.255.191-.113 1.4m32.648-1.011c-1.377.589-1.071.794.528.352.927-.256 2.063-.258 3.24-.007 1.083.231 1.663.237 1.441.015-.551-.551-4.175-.802-5.209-.36m-82.484 1.085c-.024.712.778 2.666 1.001 2.442.108-.107-.07-.807-.395-1.555-.325-.749-.598-1.148-.606-.887m37.05.026c-.397.659-1.015 3.408-.689 3.066.192-.201.531-1.041.754-1.866.379-1.404.352-1.892-.065-1.2m52.866.944c1.405 1.542 1.872 4.184 1.123 6.356-.289.838-.256.915.2.479 1.286-1.229.673-5.146-1.061-6.786L218.215 131zm14.039.056c.194.495.638 1.44.988 2.1s.655 1.65.678 2.2.198 1.45.389 2c.233.675.27.298.114-1.158-.127-1.186-.67-3.031-1.207-4.1-1.007-2.006-1.581-2.627-.962-1.042m-24.731 1.34c-.543 1.968-.263 2.248.36.36.264-.799.385-1.548.269-1.664s-.399.471-.629 1.304m-24.015.784c-.72 1.004-1.223 1.911-1.117 2.017s.617-.49 1.136-1.324 1.09-1.742 1.269-2.017c.843-1.29-.123-.297-1.288 1.324m68.963 5.915c-.007 4.11.106 6.219.284 5.261.361-1.949.351-11.739-.012-11.962-.143-.088-.265 2.928-.272 6.701m8.812-1.139c0 3.591.109 5.277.27 4.2.149-.99.271-2.88.271-4.2s-.122-3.21-.271-4.2c-.161-1.077-.27.609-.27 4.2m-131.288-3.86c.886 2.432 9.136 9.489 9.078 7.764-.006-.167-.729-.635-1.607-1.04-1.704-.786-3.134-1.87-4.523-3.429a24 24 0 0 0-1.56-1.589c-.385-.343-.7-.819-.7-1.058s-.265-.784-.588-1.212c-.53-.699-.539-.643-.1.564m66.469 1.721c-.437 1.375-.276 8.248.21 9.028.363.581.4.482.205-.542-.337-1.768-.344-6.563-.012-8.075.315-1.431.017-1.735-.403-.411m10.863.739c.136.77.41 1.67.607 2 .426.71.017-1.363-.512-2.6-.231-.54-.262-.344-.095.6m-47.672 2.541c-.865.738-2.157 1.642-2.872 2.01-1.392.717-1.752 1.183-.6.777 1.016-.358 5.787-4.081 5.272-4.114-.125-.008-.935.59-1.8 1.327m51.211 1.92c.974.587 4.58.539 5.176-.068.325-.332.154-.379-.653-.179-1.543.38-2.718.399-4.106.064-1.035-.249-1.092-.224-.417.183m-70.749 1.522c.201.195 1.086.459 1.966.586 1.812.263 1.535.07-.766-.531-.861-.226-1.401-.25-1.2-.055m12.366.26-2 .548 1.984-.199c1.091-.11 2.162-.378 2.38-.596.487-.487.209-.458-2.364.247m81.623 1.657a47 47 0 0 1-.463 2.3c-.154.622-.115.667.176.2.42-.675 1.039-4 .744-4-.105 0-.311.675-.457 1.5m26.192 3.968c-.864 4.431-.907 4.731-.654 4.491.328-.311 1.504-6.427 1.279-6.652-.094-.094-.375.879-.625 2.161m-63.019-1.018c.316 1.066 2.095 3.95 2.437 3.95.122 0-.139-.506-.579-1.124-.441-.619-.923-1.611-1.072-2.204s-.45-1.19-.669-1.326c-.25-.154-.293.109-.117.704m54.233 1.779c-.275 1.228-.41 2.323-.3 2.434.111.11.413-.818.671-2.063s.393-2.34.299-2.434-.396.834-.67 2.063m-19.048-.192c-.352.681-.569 1.308-.482 1.395s.457-.47.823-1.237c.822-1.725.537-1.857-.341-.158m-1.576 2.749c-.304.956-3.64 3.962-4.96 4.469-.526.202-.847.477-.713.61.49.49 4.447-2.669 5.901-4.712.452-.634.641-1.153.421-1.153s-.512.354-.649.786m-47.287 2.645c.091 1.558.385 3.178.654 3.6.474.746.481.745.225-.031-.337-1.025-.682-5.399-.363-4.6 1.882 4.711 5.642 10.593 8.437 13.199l1.929 1.799-2.024-2.199c-2.853-3.101-7.776-11.064-7.776-12.579 0-.257-.281-.816-.624-1.244-.577-.717-.612-.561-.458 2.055m16.609-2.031c.45.89 2.05 2.392 3.873 3.634 2.096 1.428 2.443 1.509 1 .235-.77-.68-1.576-1.244-1.79-1.253-.215-.009-1.087-.781-1.939-1.716s-1.366-1.34-1.144-.9m-25.481 1.633c-.885 1.125-1.131 1.991-.446 1.567.22-.136.4-.498.4-.804s.314-.732.697-.946c.383-.215.583-.503.445-.641s-.631.233-1.096.824m75.254.267c-.43 1.175-.42 1.226.112.524.509-.672.809-1.824.476-1.824-.062 0-.327.585-.588 1.3m8.959.971c-.378 1.966-.759 7.139-.508 6.9.276-.263 1.093-7.66.871-7.882-.08-.08-.244.362-.363.982m-81.672 1.546c.284 1.221.657 2.347.829 2.501.171.155.192-.049.047-.453s-.378-1.443-.516-2.309c-.139-.865-.392-1.66-.564-1.766s-.079.806.204 2.027m70.694 1.413c-.722 1.304-1.229 2.37-1.126 2.37.271 0 2.758-4.42 2.585-4.593-.08-.081-.737.92-1.459 2.223m-76.404-.167c-.728.997-1.146 1.703-.929 1.569.644-.398 2.948-3.434 2.586-3.407-.184.013-.929.84-1.657 1.838m36.123-.065c1.35.637 2.877.843 1.8.244-.33-.184-1.14-.441-1.8-.572l-1.2-.237zm15.1-.15c-.715.206-1.3.479-1.3.607 0 .327 2.121-.235 2.58-.683.434-.425.457-.426-1.28.076m-9.399 1.708c1.469.209 3.368.208 4.6-.003 1.826-.312 1.501-.358-2.501-.356-4.301.003-4.437.026-2.099.359M186.4 162c.212.74.574 1.534.804 1.764.263.263.245-.098-.048-.973-.618-1.848-1.248-2.507-.756-.791m-6.572.4c.144.55.422 1.171.617 1.38.571.611.396-.266-.276-1.38l-.602-1zm-13.673 2.835c-1.959 1.555-2.164 1.782-1.122 1.241.458-.238 1.065-.712 1.349-1.054s.764-.622 1.067-.622.551-.18.551-.4c0-.584-.134-.524-1.845.835m79.877-.905c-.018.291-1.059 1.641-2.314 3l-2.282 2.47 2.531-2.453c1.505-1.458 2.443-2.675 2.314-3-.174-.436-.224-.44-.249-.017m-58.23.92c.415 1.371.934 1.797.701.574-.109-.57-.376-1.146-.594-1.28-.246-.152-.286.114-.107.706m-6.558.759c.618 1.848 1.248 2.507.756.791-.212-.74-.574-1.534-.804-1.764-.263-.263-.245.098.048.973m77.864 1.891c-.297 2.48-.291 11.306.01 14.3.181 1.8.282-.52.282-6.5 0-9.858-.011-10.148-.292-7.8m-95.908.01c0 .683.177 1.352.394 1.486.246.152.3-.251.143-1.076-.337-1.769-.537-1.921-.537-.41m25.966-.01c.217.385.873 1.24 1.458 1.9l1.065 1.2-1.045-1.473c-.574-.811-1.044-1.666-1.044-1.9a.42.42 0 0 0-.414-.427c-.278 0-.284.23-.02.7m49.634 3.327c-.77.664-1.83 1.384-2.355 1.601-.526.217-.844.506-.708.643.213.212 3.278-1.616 3.863-2.304.11-.129.56-.44 1-.689.555-.315.617-.454.2-.455-.33-.001-1.23.541-2 1.204m-74.532-.121c.126.499.387 1.004.58 1.124.548.338.414-.394-.228-1.254-.56-.749-.572-.744-.352.13m19.564.294c.163.44.287 1.204.275 1.697s.139.798.335.677c.559-.345.421-1.543-.275-2.398-.623-.765-.628-.765-.335.024m7.768.119c0 .603 6.411 6.604 6.711 6.282.159-.171.043-.398-.258-.505s-1.876-1.527-3.5-3.156-2.953-2.809-2.953-2.621m8.4 1.04c0 .292 3.71 2.264 3.901 2.074.098-.099-.739-.644-1.861-1.213-1.122-.568-2.04-.956-2.04-.861m49.383 1.068c-.198.32-.142.395.155.211.334-.206.47.634.49 3.038.016 1.828.177 3.684.358 4.124.187.452.24-.939.122-3.2-.205-3.95-.526-5.142-1.125-4.173m-83.735.773c-.006.33.235 1.14.538 1.8.707 1.545.717.826.014-1-.297-.77-.545-1.13-.552-.8m16.982-.049c-.119.194-.865.659-1.656 1.035s-1.348.773-1.238.883c.2.2 3.864-1.798 3.864-2.107 0-.308-.754-.161-.97.189m64.217 1.249c-.871.88-1.778 1.6-2.016 1.6a.424.424 0 0 0-.431.414c0 .273.238.284.7.032.832-.455 3.98-3.646 3.597-3.646-.147 0-.979.72-1.85 1.6m-42.447-.571c0 .229 1.352.745 2.999 1.145.66.16 1.082.174.94.031-.347-.347-3.939-1.419-3.939-1.176m25.4.773-1.2.565 1.2-.237c.66-.131 1.47-.388 1.8-.572 1.077-.599-.45-.393-1.8.244m-20.387.956c.213.206 1.467.474 2.787.597 1.784.166 2.041.136 1-.117-2.809-.684-4.179-.857-3.787-.48m15.987.282-2.4.537 2.2-.213c1.21-.117 2.371-.382 2.58-.589s.299-.352.2-.324-1.26.293-2.58.589m-47.7.172c-.495.199-.9.458-.9.575 0 .388.637.221 1.424-.374.884-.67.761-.717-.524-.201m-10.433 1.608c.234.672.5 1.147.59 1.056.199-.198-.556-2.276-.826-2.276-.104 0 .002.549.236 1.22m49.673-.726c.575.367 2.219.344 3.208-.044.451-.177-.128-.285-1.46-.272-1.215.012-2.002.154-1.748.316m-42.411.436c-.7.259-1.406.607-1.571.774-.404.411 2.342-.522 2.822-.959.466-.424.351-.407-1.251.185m25.271.446c1.599 1.417 2.6 1.971 2.6 1.438a.42.42 0 0 0-.427-.414c-.234 0-1.089-.47-1.9-1.044l-1.473-1.045zm39 2.107c-.33.121-1.355.557-2.278.969s-1.857.748-2.076.748-.503.168-.63.374c-.299.484 2.181-.211 2.737-.767.224-.224.697-.407 1.051-.407.353 0 .992-.264 1.42-.587.816-.618.765-.693-.224-.33m-78.77 3.897c.502 2.715.191 3.753-1.377 4.592-1.475.789-1.605.442-.885-2.37.348-1.356.632-3.211.632-4.12 0-2.424 1.059-1.191 1.63 1.898m46.77-2.011c1.114.672 1.991.847 1.38.276-.209-.195-.83-.473-1.38-.617l-1-.261zm2.6.982c.22.225 1.21.507 2.2.628 1.252.153 1.495.118.8-.115-2.114-.707-3.407-.928-3-.513m21.2.291-2 .548 1.762-.21c.968-.115 2.048-.377 2.4-.582.833-.488.286-.426-2.162.244m-12.061 1.474c1.507.189 3.847.193 5.2.009 2.133-.29 1.768-.336-2.739-.344-4.733-.008-4.954.022-2.461.335m32.553 2.329c.101 1.185.336 2.695.521 3.355.219.783.257.227.109-1.6-.125-1.54-.36-3.05-.521-3.355s-.211.415-.109 1.6m8.77.155c.13 1.32.39 2.67.578 3 .397.696-.002-2.879-.491-4.4-.192-.595-.227-.028-.087 1.4m-69.092-.468c1.993.527 2.522 1.259 1.147 1.586-2.839.675-5.766 1.593-6.097 1.914-.209.202-.659.371-1 .375-.341.003-1.61.533-2.82 1.177s-2.74 1.435-3.4 1.759-1.717 1.019-2.348 1.544l-1.148.954.348 6.18c.381 6.769.031 19.92-.632 23.753-1.407 8.126-3.391 15.56-4.486 16.806a1.6 1.6 0 0 0-.334.898c0 .429-1.345 3.274-4.547 9.619-.249.493-.588.898-.753.9s-.3.209-.3.462c0 .252-.63 1.227-1.4 2.167s-1.4 1.91-1.4 2.155c0 .59-11.038 11.619-11.628 11.619-.251 0-1.195.585-2.098 1.3s-2.008 1.5-2.457 1.743-1.987 1.15-3.417 2.013c-5.008 3.021-12.507 5.565-19.93 6.76-6.115.985-7.12.734-9.326-2.331-3.286-4.567-4.707-7.048-7.149-12.485-6.397-14.244-8.017-34.911-4.156-53 .352-1.65.716-3.405.808-3.9.264-1.413 1.069-1.062 2.124.928 5.207 9.815 18.48 12.784 28.907 6.467 3.207-1.943 12.722-10.418 12.722-11.332 0-.276.543-.921 1.206-1.433.663-.511 2.348-1.875 3.745-3.03s2.729-2.1 2.961-2.1.481-.14.555-.31c.147-.343 6.988-4.89 7.356-4.89.127 0 .803-.42 1.504-.932 2.398-1.757 10.353-5.23 14.873-6.494 4.806-1.343 9.485-1.657 12.57-.842m29.091 3.064c-2.685.483-2.842.842-.215.492 2.724-.364 13.446-.375 16.354-.017 1.743.214 1.992.182 1.2-.156-1.261-.539-14.742-.786-17.339-.319m-5.461 1.193c-1.51.482-4.8 1.959-4.8 2.154 0 .175 6.063-2.096 6.367-2.385.245-.232-.429-.133-1.567.231m25.2-.048c.33.193 1.14.468 1.8.611.768.166.984.132.6-.093-.33-.193-1.14-.468-1.8-.611-.768-.166-.984-.132-.6.093m21.45 1.659c.14.77.411 1.76.604 2.2.24.549.27.361.096-.6-.14-.77-.411-1.76-.604-2.2-.24-.549-.27-.361-.096.6m-18.25-.665c0 .105.81.466 1.8.803 1.809.616 2.583.535.9-.094-1.693-.634-2.7-.898-2.7-.709m9.668 1.665c.006.44.156 1.25.332 1.8l.32 1 .012-1c.006-.55-.143-1.36-.332-1.8l-.344-.8zm-5.498.152c.12.193.625.454 1.124.58.874.22.879.208.13-.352-.86-.642-1.592-.776-1.254-.228m2.416 1.225c.117.189.759.535 1.427.768s1.119.268 1.001.078c-.117-.189-.759-.535-1.427-.768s-1.119-.268-1.001-.078m-47.133 3.616c-1.569 1.537-2.75 2.797-2.624 2.8.126.004 1.541-1.253 3.143-2.793s2.783-2.8 2.623-2.8-1.573 1.257-3.142 2.793m60.365-.693c.15.495.437 1.076.638 1.291s.163-.19-.084-.9c-.507-1.453-.975-1.783-.554-.391m-40.618.12c-.33.07-1.293.24-2.141.379-3.09.506-1.154.517 2.541.014 2.343-.319 3.11-.518 2-.519-.99 0-2.07.056-2.4.126m8 .146c2.995.546 6.755.857 5.497.454-.606-.194-2.496-.449-4.2-.567-2.278-.158-2.621-.128-1.297.113m-14.7 1.646c-.495.199-.9.445-.9.547 0 .221 2.416-.442 2.721-.747.329-.329-.819-.202-1.821.2m22.3-.311c.11.118.905.408 1.766.643.889.243 1.402.264 1.187.049-.391-.391-3.308-1.075-2.953-.692m26 .773c0 .129.279.84.62 1.58.617 1.341.619 1.342.371.146-.214-1.036-.991-2.389-.991-1.726m-51.622 1.324-2.278 1.656c-.495.362-.9.824-.9 1.026s.867-.363 1.926-1.256 2.128-1.624 2.376-1.624.562-.18.698-.4c.436-.705-.404-.429-1.822.598m30.422-.429c1.114.672 1.991.847 1.38.276-.209-.195-.83-.473-1.38-.617l-1-.261zm2.576 1.209c.428.342 1.058.608 1.4.59.539-.027.542-.061.024-.254-.33-.122-.96-.388-1.4-.59-.787-.362-.788-.358-.024.254m-47.708 2.216c-.923 1.248-1.801 3.206-1.438 3.206.116 0 .473-.585.793-1.3s.874-1.705 1.229-2.2.567-.9.472-.9-.571.537-1.056 1.194m51.372-.072c1.983 1.426 2.56 1.772 2.56 1.536 0-.3-3.317-2.658-3.739-2.658-.209 0 .321.505 1.179 1.122m16.484-.522c.202.44.468 1.07.59 1.4.193.518.227.515.254-.024.018-.342-.248-.972-.59-1.4-.612-.764-.616-.763-.254.024m-58.278 2.019c-.525.554-.872 1.089-.771 1.189s.699-.354 1.329-1.012.977-1.193.771-1.189-.804.459-1.329 1.012m49.297 4.709c2.561 2.6 4.662 4.94 4.668 5.2s.561 1.102 1.233 1.872c1.269 1.453 1.184 1.077-.231-1.014-1.701-2.516-7.538-8.986-8.106-8.986-.14 0-.698-.405-1.238-.9-.541-.495 1.113 1.228 3.674 3.828m10.724-2.908c.234.672.5 1.147.59 1.056.199-.198-.556-2.276-.826-2.276-.104 0 .002.549.236 1.22m-63.007 2.301c-1.314 2.626-.88 2.374.725-.421.6-1.045.939-1.89.753-1.879-.186.012-.851 1.047-1.478 2.3m64.34.479c.341.66.711 1.2.821 1.2s-.08-.54-.421-1.2-.711-1.2-.821-1.2.08.54.421 1.2m-74.556 1.3c-.634 1.693-.898 2.7-.709 2.7.105 0 .466-.81.803-1.8.616-1.809.535-2.583-.094-.9m8.651.973c-.101.18-.292.867-.423 1.527-.238 1.194-.236 1.193.365-.147.523-1.167.571-2.285.058-1.38m68.56 2.914c.233.668.579 1.31.768 1.427.19.118.154-.333-.078-1.001-.233-.668-.579-1.31-.768-1.427-.19-.118-.154.333.078 1.001m-78.598-.087c-.479 1.7-.678 3.478-.326 2.9.423-.692.999-3.6.714-3.6-.105 0-.28.315-.388.7m8.517 1.168c-.223.588-.347 1.353-.275 1.7.073.348.331-.133.574-1.068.495-1.903.323-2.266-.299-.632m71.494 1.638c.126.499.387 1.004.58 1.124.548.338.414-.394-.228-1.254-.56-.749-.572-.744-.352.13m-8.52 1.994c.37.715.741 1.3.825 1.3.365 0-.317-1.621-.878-2.087-.523-.434-.515-.312.053.787m-72.829.753c-.514 1.847-.318 20.183.229 21.347.463.988.467.985.264-.2-.444-2.592-.66-16.933-.292-19.4.416-2.786.32-3.617-.201-1.747m82.881.247a168 168 0 0 1 1.089 2.4c.268.605.624 1.1.793 1.1.168 0-.243-1.08-.914-2.4-1.277-2.513-2.008-3.345-.968-1.1m-74.335.782c-.418 3.109-.766 8.122-.551 7.918.272-.257 1.174-9.246.95-9.469-.092-.092-.272.605-.399 1.551m67.009 3.32c.251.551.533.924.627.83.283-.283-.326-1.832-.719-1.832-.201 0-.159.451.092 1.002m9.719.998c.161.55.633 1.788 1.05 2.751.416.963.757 1.987.757 2.276s.178.636.395.77c.445.275.355-.042-1.088-3.797-1.031-2.685-1.628-3.756-1.114-2m-8.386 1.879c.628 1.502.993 2.081.993 1.575 0-.508-1.155-3.054-1.385-3.054-.124 0 .052.666.392 1.479m1.409 3.775c.432 1.507 1.01 2.172.649.746-.14-.55-.257-1.225-.26-1.5s-.172-.5-.377-.5c-.227 0-.232.49-.012 1.254m-70.123 4.146c.127 2.2.373 4.45.547 5 .367 1.158 0-4.524-.465-7.2-.189-1.09-.221-.222-.082 2.2m79.986-2c.135.66.487 1.83.782 2.6l.537 1.4-.246-1.4c-.135-.77-.488-1.94-.782-2.6l-.537-1.2zm-8.435 1.8c.136.77.41 1.67.607 2 .426.71.017-1.363-.512-2.6-.231-.54-.262-.344-.095.6m10.002 4c.13.99.384 1.957.564 2.148s.155-.438-.054-1.4c-.544-2.495-.786-2.849-.51-.748m-8.788.6c.134.88.409 1.87.611 2.2.238.391.272.113.097-.8-.413-2.146-1-3.307-.708-1.4m10.007 4.6c.419 2.864.952 4.113.682 1.6-.13-1.21-.396-2.47-.591-2.8-.219-.37-.253.09-.091 1.2m-81.219.4c.13.99.384 1.957.564 2.148s.155-.438-.054-1.4c-.544-2.495-.786-2.849-.51-.748m-8.788.2c.134.88.398 1.87.586 2.2.414.726-.01-1.829-.498-3-.21-.505-.243-.209-.088.8m81.09-.905c.123.382.343 1.642.49 2.8s.425 2.375.62 2.705c.25.425.299.308.169-.4-.101-.55-.288-1.81-.417-2.8-.128-.99-.425-2.07-.659-2.4-.36-.506-.392-.491-.203.095m-71.1 4.905c.143.66.418 1.47.611 1.8.225.384.259.168.093-.6-.143-.66-.418-1.47-.611-1.8-.225-.384-.259-.168-.093.6m-8.588 1.468c.205.915.559 1.948.787 2.297.368.565.391.561.207-.037-.114-.369-.328-1.316-.476-2.104s-.409-1.519-.58-1.625-.144.555.062 1.469m90.203 2.668c.124 1.615.373 3.415.554 4 .397 1.283.039-2.955-.451-5.336-.23-1.118-.261-.716-.103 1.336m-8.806.064c.385 3.603.941 5.43.67 2.2-.129-1.54-.385-3.16-.569-3.6-.203-.484-.242.07-.101 1.4m-71.811-1.4c.007.22.36 1.12.783 2s.657 1.15.52.6c-.282-1.133-1.324-3.212-1.303-2.6m-8.051 3.381c.209.73.491 1.438.625 1.573.376.375-.276-2.102-.665-2.527-.187-.205-.17.224.04.954m9.605.719c0 .191.261.696.58 1.124.56.749.572.744.352-.13-.228-.903-.932-1.654-.932-.994m-8.193 2.779c.6 1.435.993 2.083.993 1.637 0-.432-1.215-3.116-1.411-3.116-.11 0 .078.666.418 1.479m9.848.508c.233.668.579 1.31.768 1.427.19.118.154-.333-.078-1.001-.233-.668-.579-1.31-.768-1.427-.19-.118-.154.333.078 1.001m69.808 2.613c.55 7.971.883 10.55.665 5.14-.117-2.894-.358-5.864-.535-6.6-.218-.906-.26-.432-.13 1.46m8.82 1.6c.106 1.98.34 4.77.52 6.2.224 1.777.257.891.106-2.8-.122-2.97-.356-5.76-.52-6.2s-.211.82-.106 2.8m-87.455-2.4c0 .22.258.85.572 1.4s.572.82.572.6-.258-.85-.572-1.4-.572-.82-.572-.6m9.972.5c0 .191.261.696.58 1.124.56.749.572.744.352-.13-.228-.903-.932-1.654-.932-.994m1.526 2.8c.545 1.271 1.869 3.295 2.157 3.297.156.002-.276-.897-.959-1.997-1.273-2.047-1.732-2.545-1.198-1.3m-7.239 5c.179.275.746 1.175 1.259 2 1.127 1.812 1.562 2.005.564.25a91 91 0 0 1-1.105-2c-.217-.412-.541-.75-.72-.75s-.178.225.002.5m12.73 3.201c.148.384.424.699.613.699s.613.495.941 1.1c.353.65.604.844.613.475.009-.344-.536-1.154-1.21-1.799-.77-.739-1.125-.915-.957-.475m62.703 2.299c0 1.21.075 1.705.167 1.1a9 9 0 0 0 0-2.2c-.092-.605-.167-.11-.167 1.1m-72.166-.464c.445.624 1.13 1.389 1.523 1.7s.221-.035-.381-.767c-.603-.732-1.096-1.497-1.096-1.7s-.192-.369-.427-.369-.064.511.381 1.136m81.046 17.112c0 8.774.123 14.692.274 13.152.351-3.578.345-25.5-.008-27.552-.146-.853-.266 5.627-.266 14.4M207.149 279.5c.208.385.868 1.15 1.469 1.7 1.045.958 1.071.962.622.1-.257-.495-.63-.9-.827-.9-.198 0-.473-.36-.613-.8s-.428-.8-.641-.8c-.246 0-.249.256-.01.7m12.853 1.702c1.144 1.321 2.287 2.528 2.539 2.681s-.598-.926-1.89-2.401-2.435-2.682-2.539-2.682.745 1.081 1.89 2.402m-60.802.246-3.123 2.404c-.727.56-1.267 1.268-1.2 1.573.4 1.809 15.133 17.063 20.452 21.175 1.708 1.32 3.355 2.625 3.659 2.9.305.275.678.5.828.5s1.133.72 2.184 1.6 2.034 1.6 2.183 1.6 1.115.585 2.145 1.3 2.175 1.48 2.545 1.7c6.923 4.116 9.804 5.707 14.327 7.912 7.203 3.51 11.48 5.487 11.875 5.49.179.002.802.252 1.384.555 1.164.608 11.202 4.029 15.941 5.433 1.65.489 3.81 1.139 4.8 1.445 3.548 1.097 10.61 2.771 15 3.556 1.76.314 3.754.739 4.432.943s2.568.495 4.2.646 3.508.429 4.168.618 3.675.465 6.7.614c6.311.31 6.839.006 3.5-2.012-1.092-.66-1.988-1.335-1.992-1.5s-.256-.3-.559-.3-.771-.266-1.041-.59c-.397-.479-5.087-3.739-8.058-5.602-.358-.224-1.571-1.128-2.697-2.008-1.125-.88-3.245-2.5-4.712-3.6s-2.999-2.315-3.404-2.7c-.406-.385-.839-.7-.965-.7-.365 0-5.076-3.903-9.416-7.8-2.205-1.98-4.479-3.96-5.055-4.4s-2.31-2.04-3.855-3.556c-2.832-2.779-3.795-2.961-2.527-.478.347.679 1.095 2.224 1.662 3.434s1.343 2.676 1.725 3.257 1.268 2.021 1.97 3.2 2.187 3.162 3.3 4.407 2.024 2.41 2.024 2.588.934 1.269 2.077 2.426c1.142 1.156 1.954 2.225 1.804 2.375-.28.28-8.565-1.744-9.281-2.268-.22-.161-1.03-.418-1.8-.571-1.837-.366-6.333-1.841-7.6-2.494-.55-.283-1.18-.515-1.4-.515-.488-.001-6.178-2.183-8.444-3.239-.904-.421-1.762-.766-1.908-.766-.421 0-15.083-7.338-16.848-8.432-2.939-1.822-3.195-1.971-4.2-2.453-.55-.264-1.656-.983-2.458-1.597-.801-.615-1.593-1.118-1.758-1.118s-1.07-.63-2.01-1.4-1.863-1.4-2.052-1.4-.648-.315-1.019-.7-2.057-1.78-3.747-3.1c-3.624-2.831-14.156-12.962-14.156-13.617 0-.25-.585-1.017-1.3-1.705-1.651-1.587-3.1-3.477-3.1-4.041 0-.819-1.397-.378-3.2 1.011m118.147 11.261c-.018 6.22.012 11.26.065 11.2.313-.351.521-14.423.268-18.109-.238-3.474-.308-2.021-.333 6.909m-66.104-8.517c.794.917 1.534 1.923 1.645 2.237.112.314.325.458.476.319.15-.138-.59-1.145-1.645-2.237-1.336-1.382-1.481-1.479-.476-.319M224.4 285.4c.746.77 1.447 1.4 1.557 1.4s-.411-.63-1.157-1.4-1.447-1.4-1.557-1.4.411.63 1.157 1.4m2.888 2.813c.598.63 1.159 1.064 1.247.966s-.402-.614-1.088-1.145l-1.247-.965zm2.327 1.653c.014.302 1.987 1.864 4.149 3.283.802.527.801.519-.02-.2-2.257-1.976-4.143-3.384-4.129-3.083M218 291.476c0 .229.619.845 1.375 1.37s2.466 1.917 3.8 3.094 2.417 1.986 2.407 1.8c-.011-.187-.485-.7-1.055-1.14-.935-.723-3.214-2.648-5.627-4.754-.495-.432-.9-.598-.9-.37m-83.2 2.981c-1.43.447-3.035.932-3.567 1.078s-1.048.507-1.146.802c-.191.577 21.185 22.063 21.949 22.063.246 0 1.733 1.084 3.305 2.41 1.573 1.325 3.04 2.54 3.261 2.7.221.159 1.696 1.325 3.278 2.59s2.996 2.3 3.141 2.3.92.507 1.721 1.126c2.068 1.598 10.782 7.112 12.858 8.136.55.271 1.27.714 1.6.984s1.5.968 2.6 1.55 3.98 2.12 6.4 3.417c8.324 4.46 7.076 4.135 14.843 3.857 3.763-.136 7.338-.435 7.945-.665l1.102-.419-1.008-.793c-.555-.436-1.118-.793-1.253-.793-.609 0-15.269-7.148-18.429-8.986-1.32-.768-3.03-1.726-3.8-2.129-1.998-1.047-3.369-1.85-3.6-2.109-.11-.124-1.37-.929-2.8-1.79-5.104-3.072-11.473-7.321-14.819-9.886-1.077-.825-2.053-1.5-2.169-1.5s-.527-.27-.912-.6c-3.293-2.82-6.889-5.733-7.784-6.305-.596-.381-2.239-1.773-3.651-3.094S151.181 306 151.038 306c-.379 0-7.438-7.119-7.438-7.502 0-.695-4.664-4.897-5.412-4.876-.433.012-1.958.388-3.388.835m100-.247c0 .115.405.384.9.596s1.305.68 1.8 1.039.9.565.9.458c0-.252-2.957-2.303-3.322-2.303-.153 0-.278.094-.278.21m4 2.475c0 .179.338.503.75.72.413.217 1.313.715 2 1.105 1.755.998 1.562.563-.25-.564-.825-.513-1.725-1.08-2-1.259-.275-.18-.5-.18-.5-.002m-11 2.72c2.032 1.883 3.357 2.771 3.67 2.459.134-.135-.096-.37-.513-.522-.416-.152-1.657-.984-2.757-1.848l-2-1.571zm15.4.157c0 .241.246.438.546.438s.975.329 1.5.732c1.024.786 2.844 1.584 2.154.945-.945-.876-4.2-2.515-4.2-2.115m6.8 3.836c0 .268 4.849 2.687 5.028 2.508.08-.081-1.018-.721-2.441-1.423-1.423-.701-2.587-1.19-2.587-1.085m26.92 5.402c0 1.21.075 1.705.167 1.1a9 9 0 0 0 0-2.2c-.092-.605-.167-.11-.167 1.1M258 307.396c0 .274 2.449 1.488 2.632 1.305.087-.087-.47-.457-1.237-.823s-1.395-.583-1.395-.482m3.776 2.024c.86.642 1.592.776 1.254.228-.12-.193-.625-.454-1.124-.58-.874-.22-.879-.208-.13.352m2.039.921c.489.444 3.063 1.314 3.272 1.106.086-.086-.701-.449-1.75-.807-1.048-.357-1.733-.492-1.522-.299m-18.829.436c.117.189.759.535 1.427.768s1.119.268 1.001.078c-.117-.189-.759-.535-1.427-.768s-1.119-.268-1.001-.078m31.414 2.27c0 1.649-.085 1.824-.8 1.637-.44-.115-.8-.046-.8.153 0 .2.45.363 1 .363.933 0 1-.133 1-2 0-1.1-.09-2-.2-2s-.2.831-.2 1.847m-8.58-1.092c.209.195.83.473 1.38.617l1 .261-1-.602c-1.114-.672-1.991-.847-1.38-.276m-19.244.658c.428.323.957.587 1.177.587s.051-.264-.377-.587c-.427-.323-.956-.588-1.176-.588s-.051.265.376.588m22.46.583c.23.23 1.024.592 1.764.804 1.716.492 1.057-.138-.791-.756-.875-.293-1.236-.311-.973-.048m-20.636.231c0 .084.585.455 1.3.825 1.099.568 1.221.576.787.053-.466-.561-2.087-1.243-2.087-.878m34.636 2.273c-.365 2.917-.528 9.608-.219 9.04.259-.478.762-10.74.526-10.74-.052 0-.19.765-.307 1.7m-31.63-.49c.1.162.629.38 1.176.484.547.105.912.058.812-.104s-.629-.38-1.176-.484c-.547-.105-.912-.058-.812.104m2.594 1c0 .25 4.969 2.596 5.439 2.569.198-.012-.539-.475-1.639-1.031-2.482-1.253-3.8-1.786-3.8-1.538m6 2.779c0 .317 2.9 1.444 3.128 1.216.113-.113.107-.205-.012-.205-.12 0-.87-.272-1.667-.605s-1.449-.516-1.449-.406m3.6 1.545c0 .103.581.39 1.291.638.71.247 1.115.285.9.084-.456-.427-2.191-.998-2.191-.722m4.2 1.664c1.35.637 2.877.843 1.8.244-.33-.184-1.14-.441-1.8-.572l-1.2-.237zm2.846.991c.424.403 3.57 1.293 3.175.899-.151-.151-1.006-.491-1.901-.755s-1.468-.329-1.274-.144m5.154 1.809c1.35.637 2.877.843 1.8.244-.33-.184-1.14-.441-1.8-.572l-1.2-.237zm3.6 1.2c.66.311 1.65.559 2.2.55l1-.017-1-.3a31 31 0 0 0-2.2-.55l-1.2-.248z"/><path id="path2" fill="#e08145" d="M122.192 58.172c-.431 5.742.469 11.031 2.275 13.382.403.525.733 1.184.733 1.465 0 .782 8.988 9.711 12.059 11.981 3.953 2.921 5.181 3.786 6.541 4.603.88.53 1.66 1.106 1.733 1.28s.303.317.509.317c.461 0 3.707 2.085 3.891 2.5.074.165.288.3.477.3.416 0 5.574 3.178 6.319 3.893.29.279.663.507.827.507.799 0 6.568 4.583 9.819 7.8 4.385 4.339 9.816 12.629 9.827 15 .002.33.29 1.14.641 1.8 1.124 2.113 2.472 9.967 2.523 14.7.019 1.705.172 3.1.34 3.1.301 0 2.894-3.739 2.894-4.172 0-.296 3.391-5.241 4.927-7.184 2.74-3.468 11.191-10.641 12.54-10.643.256-.001.526-.141.6-.312.13-.303 3.724-1.946 6.133-2.803 3.308-1.176 8.157-2.402 10.572-2.672a5.5 5.5 0 0 0 1.228-.318c.33-.136 2.58-.437 5-.668 9.179-.879 19.668-2.499 21.095-3.258.382-.204 1.055-.37 1.496-.37 1.826 0 12.715-4.138 13.609-5.171.11-.127.997-.771 1.972-1.43 1.8-1.218 4.956-5.098 5.459-6.712.152-.488.388-.977.523-1.087.225-.183 1.587-4.013 2.273-6.395.274-.95-3.292 1.41-3.76 2.488-.074.169-.298.307-.499.307-.202 0-1.222.585-2.267 1.3-2.838 1.941-3.257 2.184-6.301 3.655-4.732 2.287-7.232 3.176-15.4 5.472-1.406.396-6.124 1.277-10.6 1.98-1.32.207-3.424.381-4.676.385s-2.371.161-2.486.347-1.971.46-4.124.607c-2.153.148-4.634.457-5.514.687s-2.59.658-3.8.951c-5.205 1.26-9.971 3.241-14.056 5.842-4.207 2.679-5.859 4.164-10.752 9.669-2.015 2.267-2.147 2.222-2.769-.94-.267-1.356-.632-2.755-.813-3.11s-.83-1.995-1.443-3.645-1.315-3.27-1.559-3.6c-.243-.33-.689-1.092-.989-1.693-.301-.602-.878-1.449-1.283-1.884s-.736-.979-.736-1.21c0-.596-4.042-4.927-7.59-8.133a1524 1524 0 0 1-3.644-3.3c-.348-.319-.772-.58-.942-.58s-.965-.512-1.766-1.138c-.802-.626-2.358-1.652-3.458-2.281-1.1-.628-2.09-1.245-2.2-1.37s-.65-.452-1.2-.727-1.72-.938-2.6-1.473-1.87-1.107-2.2-1.272a6.5 6.5 0 0 1-1-.624c-.687-.56-3.427-2.315-3.613-2.315-.098 0-.495-.259-.882-.575-2.038-1.665-4.416-3.531-5.271-4.139-1.69-1.2-10.434-10.2-10.434-10.74 0-.127-.453-.796-1.006-1.488-1.453-1.816-1.548-1.955-2.101-3.058-1.584-3.158-4.077-7.395-4.418-7.508-.232-.078-.516 1.455-.683 3.68M146 107.064c-15.556 1.901-22.771 22.28-11.4 32.2.22.191.858.751 1.419 1.242.56.492 1.73 1.254 2.6 1.694.869.44 1.671.913 1.781 1.051.375.471 6.403 1.949 7.95 1.949 7.174 0 17.63-6.913 17.652-11.671.002-.291.306-1.069.677-1.729.818-1.457 1.029-10.496.267-11.439-.249-.308-.579-1.149-.733-1.867-.463-2.167-5.64-8.114-7.613-8.746-.44-.141-.89-.377-1-.524-.895-1.201-8.247-2.57-11.6-2.16m107.8 6.141c-.44.193-1.79.629-3 .969-3.452.971-3.419.878-1.609 4.454.883 1.745 1.606 3.451 1.607 3.792s.16.791.352 1c.61.661 2.063 5.564 2.316 7.816.134 1.19.38 2.344.547 2.564 1.117 1.474.015 15.101-1.601 19.8-1.236 3.595-4.423 9.472-5.487 10.12-.289.176-.525.556-.525.844 0 .536-5.124 5.555-6.776 6.636a38 38 0 0 0-1.77 1.247c-1.271.963-6.649 3.404-8.254 3.747-.77.164-1.603.461-1.851.661-1.742 1.398-15.465 1.374-18.349-.032-.44-.214-1.568-.585-2.507-.824-8.343-2.121-18.253-11.926-21.425-21.199-.395-1.156-.259 2.216.153 3.8.425 1.632.511 1.858 1.906 5 .439.99.918 2.205 1.063 2.7s.432.9.637.9.373.18.373.399c0 1.128 5.485 7.462 8.487 9.801 2.208 1.72 3.523 2.6 3.886 2.6.235 0 .427.18.427.4s.225.404.5.409.95.361 1.5.791 1.243.786 1.54.791 1.106.27 1.8.59c3.12 1.438 8.015 2.314 13.06 2.337 6.452.03 10.024-.721 15.8-3.322.44-.198 1.43-.638 2.2-.977.77-.34 1.94-.976 2.6-1.414a29 29 0 0 1 2.1-1.265c.495-.258.9-.62.9-.804s.204-.336.453-.336 1.014-.586 1.7-1.302c1.163-1.214 3.37-2.854 3.509-2.607.033.06.292 2.989.574 6.509.621 7.757 1.186 11.82 1.972 14.171 1.252 3.746.647 4.013-3.838 1.692-8.397-4.345-17.94-5.815-28.806-4.436-3.393.43-10.764 2.898-10.764 3.604 0 .203-.237.369-.528.369-1.207 0-9.072 6.873-9.072 7.928 0 .238-.229.576-.51.752-1.789 1.123-4.569 7.197-7.102 15.52-1.981 6.508-1.208 26.814 1.195 31.42.178.341.555 1.654.838 2.918s.664 2.391.847 2.504.332.474.332.804c0 .329.34 1.353.755 2.276s1.166 2.668 1.667 3.878 1.108 2.47 1.348 2.8.884 1.5 1.433 2.6c.548 1.1 1.132 2.06 1.297 2.133a.57.57 0 0 1 .3.483c0 .191.453 1.031 1.007 1.866s1.229 1.858 1.5 2.274c.458.702 1.956 2.626 2.89 3.712.222.257.763.943 1.203 1.524 3.205 4.233 8.488 9.797 12.448 13.111 1.514 1.267 3.236 2.752 3.826 3.3.591.548 1.196.997 1.345.997.148 0 1.13.72 2.181 1.6s2.117 1.6 2.368 1.6.561.27.687.6c.127.33.378.6.558.6s1.687.9 3.348 2 3.114 2 3.229 2c.114 0 1.064.585 2.109 1.3 2.633 1.8 2.98 2 7.501 4.325 2.2 1.13 4.45 2.298 5 2.595 1.722.93 8.483 4.039 11.2 5.152 1.43.585 2.96 1.224 3.4 1.421.44.196 1.25.472 1.8.614.874.224 3.727 1.243 6.2 2.214 3.07 1.205 8.558 2.657 8.615 2.279.009-.055.105-2.17.214-4.7.11-2.53.409-5.68.666-7 .668-3.438.659-35.068-.012-42.6-1.189-13.328-3.006-26.01-4.099-28.6-.186-.44-.454-1.43-.597-2.2-.315-1.692-1.717-6.689-2.189-7.8-1.122-2.638-2.398-6.222-2.398-6.735 0-.329-.135-.658-.3-.732-.402-.178-9.326-18.005-9.311-18.6.006-.256-.134-.526-.311-.6s-.825-1.393-1.44-2.933-1.251-3.07-1.414-3.4c-.299-.605-2.156-6.61-2.845-9.2-1.196-4.498-1.909-19.231-1.17-24.2.196-1.32.535-4.29.754-6.6s.77-6 1.227-8.2c2.013-9.698 1.549-25.556-.819-27.98-.204-.209-.377-.749-.385-1.2-.007-.451-.361-1.54-.786-2.42s-.779-1.82-.786-2.089c-.022-.782-1.748-4.211-2.514-4.995-.775-.793-.943-.818-2.1-.311m-98.474 3.645c4.874 2.51 5.027 8.888.274 11.434-5.673 3.039-11.792-3.796-8.363-9.343 1.432-2.319 5.571-3.388 8.089-2.091M211 123.287c-1.54.436-2.86.956-2.933 1.153-.074.198-.367.36-.652.36-1.292 0-6.23 5.293-7.595 8.142-2.161 4.512-2.551 12.037-.815 15.718.327.694.595 1.392.595 1.553 0 .777 4.293 6.167 4.923 6.18.178.004.988.523 1.8 1.154 4.7 3.649 18.091 4.032 20.197.578.176-.289.564-.525.863-.525 1.156 0 5.059-4.328 6.538-7.25 3.17-6.262 2.188-16.086-2.035-20.369-.532-.539-1.039-1.189-1.127-1.442-.217-.631-4.414-3.739-5.048-3.739-.281 0-.511-.158-.511-.351 0-1.525-10.027-2.345-14.2-1.162m6.81 7.672c7.879 3.972 1.832 14.8-6.3 11.283-2.251-.974-3.433-3.892-2.931-7.238.627-4.184 5.082-6.136 9.231-4.045m-41.11 24.226c-.385.375-.7.818-.7.984 0 .728-7.896 8.631-8.624 8.631-.143 0-.795.45-1.449 1s-1.468 1-1.809 1c-.669 0-.464 2.901.267 3.782.192.231.843 1.85 1.446 3.597.604 1.747 1.337 3.637 1.631 4.199.293.562.534 1.427.536 1.922.003 1.173.528 1.13 3.287-.269 1.257-.638 2.939-1.375 3.739-1.639s1.931-.729 2.515-1.033c.583-.305 1.286-.555 1.561-.557.275-.001.5-.169.5-.373 0-.334.781-.822 3.493-2.181 1.421-.713 1.39-1.287-.257-4.767-.855-1.805-1.684-3.731-1.844-4.281-.159-.55-.424-1.18-.589-1.4-.391-.524-1.894-5.581-2.231-7.504-.317-1.818-.56-2.001-1.472-1.111m59.3 44.568c.99.349 2.07.639 2.4.644.33.004 1.116.277 1.746.605.63.329 1.332.598 1.56.598.576 0 4.864 2.132 5.027 2.5.074.165.37.3.659.3s1.807.99 3.373 2.2 2.926 2.2 3.022 2.2c1.106 0 10.065 11.242 10.796 13.547.136.429.511.999.832 1.266.322.267.585.823.585 1.236s.177.751.392.751.506.45.644 1.001.592 1.669 1.008 2.485.756 1.805.756 2.199.15.715.333.715.532.765.775 1.7c.244.935 1.01 3.77 1.703 6.3 1.932 7.058 2.255 8.38 2.779 11.4 1.506 8.67 2.062 14.216 3.025 30.2.624 10.347.603 12.582-.231 25.6-.204 3.19-.374 6.295-.378 6.9-.005.905-.183 1.1-1.006 1.1-.55 0-1-.159-1-.353s-.799-.553-1.776-.799-1.888-.628-2.024-.848-.552-.401-.924-.402-1.154-.252-1.737-.557c-.584-.304-1.706-.766-2.494-1.026-1.541-.509-16.203-7.852-18.845-9.438a52 52 0 0 0-2.6-1.466c-.55-.278-1.18-.644-1.4-.814-1.179-.909-3.486-2.297-3.818-2.297-.21 0-.382-.151-.382-.336 0-.184-.405-.552-.9-.816-1.511-.805-2.501-1.424-3.115-1.945a125 125 0 0 0-2.385-1.916c-.99-.781-2.185-1.772-2.656-2.203s-.997-.784-1.169-.784-1.486-1.125-2.921-2.5c-6.702-6.422-9.038-9.019-12.863-14.3a340 340 0 0 0-1.895-2.6c-2.46-3.258-7.878-14.501-8.963-18.6-.204-.77-.527-1.76-.718-2.2-3.062-7.045-2.953-26.443.182-32.454.329-.63.599-1.361.601-1.625.001-.263.632-1.553 1.402-2.867s1.4-2.495 1.4-2.624c0-.959 6.817-6.848 9.2-7.947 5.829-2.688 16.834-3.554 22-1.73"/><path id="path3" fill="#fff" d="M183.8 28.022c-9.564 1.072-16.192 2.129-22.4 3.572-1.98.461-4.32.997-5.2 1.193-7.998 1.776-19.957 6.184-30.339 11.184-3.689 1.776-6.784 3.229-6.879 3.229-.199 0-8.507 4.859-10.582 6.189-5.8 3.719-7.971 5.223-12.119 8.399-2.595 1.986-5.135 3.883-5.645 4.213-1.25.812-11.939 10.549-14.051 12.799-7.975 8.5-11.46 12.566-15.197 17.726-.666.921-2.208 3.024-3.426 4.674s-2.833 4.054-3.589 5.343-1.643 2.757-1.973 3.264c-1.941 2.977-5.714 9.696-7.185 12.793-3.996 8.416-5.145 10.899-5.831 12.6-.399.99-1.054 2.555-1.455 3.478s-.729 1.847-.729 2.054-.616 2.062-1.369 4.122c-9.922 27.149-11.585 64.142-4.295 95.546.874 3.766 3.114 11.752 3.645 13 .188.44.739 1.97 1.225 3.4 1.51 4.438 3.604 9.646 5.389 13.4l3.42 7.2c1.471 3.097 5.244 9.816 7.185 12.793.33.507 1.218 1.975 1.973 3.264s2.371 3.693 3.589 5.343 2.76 3.753 3.426 4.674c3.737 5.16 7.222 9.226 15.197 17.726 2.112 2.25 12.801 11.987 14.051 12.799.51.33 3.05 2.227 5.645 4.213 4.148 3.176 6.319 4.68 12.119 8.399 1.944 1.246 10.377 6.189 10.559 6.189.082 0 3.174 1.452 6.87 3.226 9.56 4.588 18.846 8.102 27.371 10.356 7.516 1.988 7.436 1.969 16.8 3.777 16.37 3.16 43.307 2.92 61.6-.549 2.31-.438 5.28-.999 6.6-1.248 1.32-.248 2.571-.611 2.78-.806s.749-.357 1.2-.358c.731-.003 5.591-1.344 10.621-2.932 9.264-2.924 25.544-10.258 33.199-14.956 10.395-6.38 11.919-7.404 17.727-11.923 1.14-.886 2.603-1.948 3.25-2.359 1.038-.659 6.379-5.432 13.681-12.228 1.301-1.21 2.889-2.83 3.531-3.6.641-.77 3.066-3.48 5.388-6.022s4.493-5.03 4.823-5.529 1.92-2.648 3.534-4.777c2.769-3.653 5.901-8.19 7.258-10.512.334-.572 1.933-3.252 3.552-5.955 2.802-4.676 10.06-19.372 11.462-23.205 5.269-14.413 7.371-22.302 9.965-37.4 1.866-10.859 2.192-34.566.647-47-1.743-14.016-4.787-26.065-10.612-42-1.402-3.833-8.66-18.529-11.462-23.205a1244 1244 0 0 1-3.552-5.955c-1.351-2.313-4.486-6.855-7.258-10.517-1.614-2.132-3.294-4.38-3.734-4.997-.44-.616-2.609-3.101-4.82-5.523-4.337-4.749-5.694-6.28-6.859-7.74l-.749-.937-3.186 1.598c-7.33 3.677-11.807 4.626-22.186 4.705l-8.2.063-2.8 1.51c-1.54.831-3.43 1.993-4.2 2.582-4.718 3.612-4.648 3.656-5.389-3.367-.557-5.287-.915-5.886-4.688-7.843-9.031-4.687-13.601-19.522-8.234-26.728.391-.525.711-1.117.711-1.317 0-.465.478-1.059 3.365-4.177 1.301-1.406 2.291-2.622 2.2-2.703-1.818-1.624-24.138-9.438-26.985-9.447-.451-.001-.991-.162-1.2-.358s-1.37-.54-2.58-.766-4.18-.796-6.6-1.268c-4.264-.83-9.76-1.599-17.2-2.406-4.193-.454-26.697-.441-30.8.018m104.8 13.597c-.66.186-2.446.621-3.969.968-1.523.346-2.963.781-3.2.966s-.96.463-1.607.618c-.646.155-1.664.63-2.261 1.056-.598.425-1.201.773-1.342.773-1.008 0-6.72 5.993-7.781 8.164-2.779 5.685.892 15.311 6.792 17.815.533.226 2.048 1 3.368 1.722l2.4 1.311.363 2.694c.43 3.193.435 3.194 3.644.904l2.509-1.79 4.414.461c6.873.719 16.081-.327 20.47-2.323l3.2-1.457c.99-.452 2.427-1.289 3.194-1.861s1.756-1.224 2.2-1.448c1.61-.815 4.557-5.806 4.954-8.392 1.515-9.86-6.243-17.416-20.748-20.206-2.292-.441-15.011-.421-16.6.025m-164.368 14.21c.458.864 1.308 2.381 1.89 3.371s1.404 2.43 1.828 3.2c.726 1.319 1.79 2.776 4.353 5.963 1.2 1.492 7.221 7.594 8.13 8.24.312.222 1.737 1.308 3.167 2.414 3.463 2.677 5.738 4.183 6.322 4.183.263 0 .478.151.478.336 0 .184.405.548.9.808.495.259 1.62.907 2.5 1.438s2.41 1.439 3.4 2.018c6.534 3.818 8.604 5.296 12.49 8.912 5.629 5.24 8.551 8.859 11.211 13.888 1.135 2.147 3.269 8.319 3.723 10.769l.291 1.569 1.6-1.769c5.563-6.152 5.737-6.306 10.885-9.675 4.951-3.24 7.645-4.388 13.8-5.881 1.87-.453 3.94-.99 4.6-1.193 1.397-.429 3.587-.711 7.875-1.015 1.691-.119 4.841-.483 7-.809 2.159-.325 4.499-.592 5.201-.594.702-.001 1.373-.158 1.491-.349s1.164-.469 2.324-.618c8.145-1.043 24.137-7.877 28.114-12.014.729-.759 2.954-2.221 3.379-2.221.587 0 .529.417-.427 3.064-2.373 6.571-5.85 11.569-9.357 13.447-3.135 1.679-6.122 3.089-6.544 3.089-.257 0-.779.167-1.161.371-3.794 2.027-17.262 4.538-32.495 6.058-2.09.208-4.25.546-4.8.75s-1.63.491-2.4.637c-4.733.901-11.322 3.707-15.86 6.755-2.73 1.833-10.94 9.921-10.94 10.777 0 .322-.139.645-.308.719-.345.149-2.6 3.547-4.269 6.433-1.708 2.953-1.968 2.576-2.761-4-1.228-10.192-3.001-15.372-7.77-22.7-1.851-2.844-8.988-10.2-9.897-10.2-.273 0-.717-.266-.987-.59-.469-.566-6.363-4.555-7.608-5.15-.33-.158-1.63-.956-2.888-1.773a866 866 0 0 0-6-3.844c-2.042-1.296-4.547-3.051-5.568-3.9s-2.033-1.543-2.252-1.543c-.661 0-11.471-10.913-12.085-12.2-.315-.66-.787-1.47-1.05-1.8-1.295-1.628-2.269-7.185-2.066-11.787.264-5.987.839-6.798 2.541-3.584m162.068.284c1.368 1.256 1.281 4.329-.154 5.458-3.541 2.785-8.142-1.743-5.542-5.455 1.054-1.506 4.058-1.508 5.696-.003m13.105-.251c3.226 3.226.186 7.578-4.405 6.305-.826-.228-2.2-2.506-2.2-3.646 0-2.613 4.742-4.522 6.605-2.659m13.076.038c2.511 2.903 1.054 6.5-2.632 6.5-3.248 0-5.128-4.473-2.705-6.435 1.255-1.016 4.481-1.055 5.337-.065M180.8 68.795c3.41.209 7.37.584 8.8.835 12.628 2.213 20.14 4.615 30.351 9.704 7.522 3.748 7.606 3.794 9.307 5.125.801.628 1.577 1.141 1.724 1.141.146 0 1.11.632 2.142 1.405 10.321 7.73 10.383 7.258-1.218 9.243-1.325.227-1.688.089-3.2-1.216-2.069-1.786-2.236-1.902-6.506-4.548-1.087-.673-8.772-4.478-11.22-5.555-16.052-7.061-38.345-9.416-53.78-5.68l-1.8.435-4-2.684c-5.066-3.399-5.399-3.704-4.6-4.207 2.091-1.316 9.362-2.925 16.4-3.629 2.31-.231 5.37-.57 6.8-.753s3.05-.258 3.6-.165c.55.094 3.79.341 7.2.549M126.75 84.7c3.194 2.45 5.598 4.66 5.406 4.971-.123.199-.883.78-1.69 1.292-1.755 1.114-10.002 9.286-10.527 10.431-.203.443-1.073 1.886-1.933 3.206-4.701 7.213-6.178 12.562-6.194 22.439-.008 4.498.151 7.168.463 7.8.262.529.749 1.951 1.084 3.161.334 1.21 1.335 3.405 2.224 4.878s1.617 2.793 1.617 2.933c0 .39 2.818 3.81 4.484 5.442 2.291 2.244 10.016 7.142 11.276 7.149.242.002.938.263 1.546.58 3.322 1.733 18.991 1.906 22.22.246.371-.191 2.294-1.118 4.274-2.062 4.405-2.098 5.366-2.749 8.322-5.638 2.629-2.569 3.438-2.303 1.634.536-1.189 1.873-6.911 7.936-7.489 7.936-.194 0-1.008.512-1.809 1.139-.802.626-2.808 1.772-4.458 2.547-11.945 5.611-26.019 4.7-36.021-2.332-4.601-3.235-10.327-8.901-10.937-10.821-1.138-3.585-2.122-1.464-2.703 5.829-.66 8.276-.309 13.146 1.117 15.529.629 1.05 1.258 2.179 1.398 2.509 2.51 5.939 16.374 21.987 22.91 26.519 1.815 1.258 1.058 2.796-2.873 5.839l-1.709 1.323-1.436-1.14c-.79-.628-1.731-1.321-2.091-1.541-2.237-1.367-15.495-15.565-17.234-18.456-1.635-2.717-1.738-2.32-1.54 5.9l.186 7.756 1.516 3c.833 1.65 1.673 3.06 1.866 3.133.193.074.351.397.351.72 0 1.368 5.703 6.348 8.147 7.115 6.33 1.985 11.413-.599 21.697-11.031 9.738-9.877 11.956-14.857 11.956-26.837v-7.1l1.2.013c5.13.054 11.862 7.266 12.778 13.687.345 2.417.699 2.394 7.622-.491 1.229-.512 6.165-1.966 8.4-2.474 7.771-1.767 16.184 1.797 19.038 8.065.451.99.974 2.093 1.163 2.451s.46 1.265.6 2.016l.257 1.365-2.929.474c-6.602 1.069-10.065 1.944-12.929 3.27-.44.203-1.486.678-2.325 1.054l-1.525.685.247 8.442c.385 13.137-1.18 28.651-3.392 33.643-.195.44-.472 1.25-.616 1.8-.792 3.028-5.217 12.705-6.416 14.03-.315.348-.573.762-.573.919 0 1.075-6.841 9.865-10.614 13.637-4.522 4.523-12.206 10.194-16.349 12.067-.68.307-1.507.734-1.837.948-1.219.792-5.905 2.802-9.4 4.033-3.288 1.158-4.772 1.516-11.379 2.739-8.193 1.518-12.178 1.033-13.892-1.69-.582-.926-1.749-2.505-2.594-3.509s-1.535-1.968-1.535-2.142-.513-.973-1.141-1.774c-1.231-1.574-1.337-1.763-4.111-7.337-2.524-5.07-2.955-6.085-3.953-9.321-.475-1.54-1.006-3.077-1.18-3.415s-.449-1.419-.612-2.4c-.163-.982-.445-2.07-.627-2.418-2.239-4.271-2.352-38.846-.139-42.427.117-.189.462-1.828.768-3.642.722-4.288 2.989-14.859 3.409-15.898.044-.11.062-.328.039-.485-.194-1.303.856-34.214 1.189-37.315 1.008-9.366 2.713-22.604 2.963-23.009.226-.365 1.243-7.579 2.001-14.191.565-4.928 1.508-9.784 2.174-11.2.208-.44.777-1.79 1.267-3s1.037-2.396 1.217-2.636.88-1.471 1.555-2.736c2.167-4.061 6.533-9.53 10.802-13.531 4.358-4.086 4.848-4.333 6.329-3.197m25.567 22.325c20.914 4.239 20.484 34.837-.534 37.945-20.053 2.965-31.273-21.281-15.783-34.105 2.173-1.799 5.222-3.174 8.451-3.809 3.877-.762 4.251-.764 7.866-.031m104.456 6.937c.455.639.827 1.287.827 1.439s.262.845.582 1.539c4.854 10.509 6.123 24.844 3.194 36.087-1.896 7.279-2.678 27.207-1.341 34.173 1.225 6.387 3.08 13.029 3.965 14.2.166.22.43.85.587 1.4.255.895 2.536 6.02 3.393 7.626 8.843 16.564 12.284 25.372 14.443 36.974.205 1.1.562 2.923.793 4.052.763 3.728 1.606 11.056 1.995 17.348.211 3.41.558 7.64.773 9.4.501 4.126.526 24.137.035 28.741-.208 1.947-.489 6.447-.625 10-.262 6.888-.791 9.859-1.754 9.859-.553 0-9.317-2.838-11.04-3.575-.44-.188-2.42-.926-4.4-1.64-4.42-1.594-10.676-4.343-15-6.591l-4.8-2.49c-2.09-1.084-4.7-2.531-5.8-3.215-2.456-1.53-6.037-3.748-6.934-4.296-2.549-1.557-5.777-3.819-7.53-5.277-1.135-.944-2.189-1.716-2.341-1.716-1.052 0-11.187-9.638-15.595-14.83-10.771-12.687-17.623-27.656-19.396-42.37-.462-3.843-.464-14.855-.002-17.2 1.035-5.248 1.31-6.382 2.039-8.4 1.814-5.025 3.451-8.243 5.798-11.4 7.381-9.927 16.285-13.752 30.952-13.299 8.055.249 12.491 1.378 19.578 4.981 4.07 2.068 3.956 2.154 2.903-2.177-.811-3.335-1.429-8.348-2.009-16.305l-.263-3.6-2.2 2.031c-2.194 2.025-9.032 6.569-9.886 6.569-.247 0-.959.252-1.582.561-2.894 1.433-4.534 1.908-9.257 2.68-3.443.563-5.847.748-7.475.576-4.049-.428-9.579-1.449-9.98-1.843-.209-.206-.592-.374-.85-.374-1.054 0-6.098-2.65-9.467-4.975-1.972-1.36-7.503-6.637-7.503-7.157 0-.194-.519-1.009-1.154-1.81s-1.55-2.268-2.033-3.258-1.049-2.122-1.258-2.515c-1.107-2.081-2.393-7.131-2.275-8.935l.129-1.95.548 1.2c.301.66.832 1.83 1.18 2.6 2.281 5.047 6.658 10.842 10.122 13.4 12.807 9.461 30.719 9.937 41.782 1.109.903-.72 1.819-1.309 2.037-1.309.403 0 4.251-3.998 6.202-6.445 7.215-9.048 9.163-25.734 4.527-38.774-.947-2.663-3.052-7.217-3.917-8.473-.67-.974.141-1.622 3.11-2.482 1.32-.382 2.58-.755 2.8-.829 1.39-.465 2.601-.119 3.373.965m-107.065 3.096c-3.449.756-4.051 7.636-.9 10.288 2.897 2.437 7.658 1.421 9.2-1.964 2.456-5.39-1.874-9.733-8.3-8.324m71.537 5.748c3.49.656 9.004 3.8 10.005 5.702.258.491.886 1.393 1.395 2.006 2.65 3.186 3.12 4.844 3.138 11.086l.017 5.8-1.748 3.306c-5.502 10.409-18.454 13.499-28.508 6.802-3.206-2.136-6.486-6.407-6.993-9.108-.145-.77-.43-1.725-.633-2.122-.709-1.385-.466-7.898.392-10.503 3.298-10.025 12.11-15.007 22.935-12.969m-9.078 8.024c-4.777 1.387-4.606 9.896.228 11.332 5.044 1.497 9.434-2.018 8.575-6.866-.614-3.466-4.849-5.614-8.803-4.466M178 155.12c0 .396.152.891.337 1.1s.567 1.455.848 2.768.786 3.023 1.121 3.8c.336.777.825 1.952 1.087 2.612.263.66 1.141 2.55 1.951 4.2.811 1.65 1.47 3.219 1.465 3.487-.009.499-7.173 4.913-7.975 4.913-.245 0-.757.167-1.139.37-1.827.974-7.312 3.339-7.407 3.194-.15-.231-1.46-3.752-2.366-6.364-.825-2.374-1.734-4.586-2.341-5.695-.545-.994-.47-2.704.119-2.709.275-.002 1.31-.633 2.3-1.402s2.273-1.76 2.85-2.202c.578-.442 1.838-1.566 2.8-2.498 1.627-1.575 2.242-2.302 4.391-5.194.929-1.251 1.959-1.451 1.959-.38m-19.6 27.962c0 .909-.284 2.764-.632 4.12-.72 2.812-.59 3.159.885 2.37 1.568-.839 1.879-1.877 1.377-4.592-.571-3.089-1.63-4.322-1.63-1.898m24.2 4.52c-2.358.355-6.152 1.386-8.4 2.281-5.074 2.02-9.311 4.04-10.873 5.185-.701.512-1.377.932-1.504.932-.368 0-7.209 4.547-7.356 4.89-.074.17-.323.31-.555.31s-1.564.945-2.961 2.1a194 194 0 0 1-3.745 3.03c-.663.512-1.206 1.157-1.206 1.433 0 .914-9.515 9.389-12.722 11.332-10.427 6.317-23.7 3.348-28.907-6.467-1.055-1.99-1.86-2.341-2.124-.928-.092.495-.456 2.25-.808 3.9-3.861 18.089-2.241 38.756 4.156 53 4.105 9.141 8.091 14.844 10.641 15.226 2.826.424 11.243-1.138 16.464-3.055 5.191-1.906 6.867-2.647 9.3-4.115 1.43-.863 2.968-1.769 3.417-2.013.449-.243 1.555-1.028 2.457-1.743.903-.715 1.847-1.3 2.098-1.3.59 0 11.628-11.029 11.628-11.619 0-.245.63-1.215 1.4-2.155s1.4-1.915 1.4-2.167c0-.253.135-.46.3-.462s.504-.407.753-.9c3.202-6.345 4.547-9.19 4.547-9.619 0-.285.15-.689.334-.898 1.095-1.246 3.079-8.68 4.486-16.806.663-3.833 1.013-16.984.632-23.753l-.348-6.18 1.148-.954c.631-.525 1.688-1.22 2.348-1.544s2.19-1.115 3.4-1.759 2.479-1.174 2.82-1.177.791-.173 1-.375c.331-.321 3.258-1.239 6.097-1.914 4.279-1.017-3.93-2.529-9.317-1.716m39.861 11.803c-6.418.874-10.043 2.711-14.946 7.574-9.444 9.37-11.085 30.673-3.729 48.421 1.55 3.739 5.2 10.814 6.842 13.263.974 1.453 1.772 2.74 1.772 2.859s.9 1.251 2 2.515 2 2.471 2 2.68c0 .662 10.454 10.889 13.529 13.234 11.429 8.718 26.036 17.036 38.417 21.877 2.56 1.001 5.221 2.079 5.914 2.396.694.317 1.434.576 1.645.576 1.958 0 1.494-46.867-.544-55.01-.111-.446-.45-2.426-.752-4.4-.712-4.66-1.759-10.228-2.066-10.99-.133-.33-.475-1.59-.761-2.8-2.034-8.604-6.042-17.87-9.941-22.982-.573-.751-1.041-1.533-1.041-1.739 0-1.828-11.41-11.366-16.527-13.816-4.401-2.107-14.673-4.559-17.657-4.215-.229.026-2.099.277-4.155.557M162.4 280.437c0 .564 1.449 2.454 3.1 4.041.715.688 1.3 1.455 1.3 1.705 0 .655 10.532 10.786 14.156 13.617 1.69 1.32 3.376 2.715 3.747 3.1s.829.7 1.019.7 1.112.63 2.052 1.4 1.844 1.4 2.01 1.4.957.503 1.758 1.118c.802.614 1.908 1.333 2.458 1.597 1.005.482 1.261.631 4.2 2.453 1.765 1.094 16.427 8.432 16.848 8.432.146 0 1.004.345 1.908.766 2.266 1.056 7.956 3.238 8.444 3.239.22 0 .85.232 1.4.515 1.267.653 5.763 2.128 7.6 2.494.77.153 1.58.41 1.8.571.716.524 9.001 2.548 9.281 2.268.15-.15-.662-1.219-1.804-2.375-1.143-1.157-2.077-2.249-2.077-2.426s-.911-1.343-2.024-2.588-2.598-3.228-3.3-4.407a113 113 0 0 0-1.97-3.2c-.382-.581-1.158-2.047-1.725-3.257a144 144 0 0 0-1.662-3.434c-1.268-2.483-.305-2.301 2.527.478 1.545 1.516 3.28 3.116 3.855 3.556s2.85 2.42 5.055 4.4c4.34 3.897 9.051 7.8 9.416 7.8.126 0 .559.315.965.7s1.937 1.6 3.404 2.7 3.587 2.72 4.712 3.6c1.126.88 2.339 1.784 2.697 2.008 2.971 1.863 7.661 5.123 8.058 5.602.27.324.738.59 1.041.59s.554.135.559.3c.004.165.9.84 1.992 1.5 3.339 2.018 2.811 2.322-3.5 2.012-3.025-.149-6.04-.425-6.7-.614s-2.536-.467-4.168-.618-3.522-.442-4.2-.646-2.672-.629-4.432-.943c-4.39-.785-11.452-2.459-15-3.556-.99-.306-3.15-.956-4.8-1.445-4.739-1.404-14.777-4.825-15.941-5.433-.582-.303-1.205-.553-1.384-.555-.395-.003-4.672-1.98-11.875-5.49-4.523-2.205-7.404-3.796-14.327-7.912-.37-.22-1.515-.985-2.545-1.7s-1.995-1.3-2.145-1.3-1.132-.72-2.183-1.6-2.034-1.6-2.184-1.6-.523-.225-.828-.5-1.951-1.58-3.659-2.9c-5.319-4.112-20.052-19.366-20.452-21.175-.067-.305.473-1.013 1.2-1.573l3.123-2.404c1.803-1.389 3.2-1.83 3.2-1.011m-21.112 15.45c1.272 1.259 2.312 2.433 2.312 2.611 0 .383 7.059 7.502 7.438 7.502.143 0 1.415 1.081 2.827 2.401 1.412 1.321 3.055 2.713 3.651 3.094.895.572 4.491 3.485 7.784 6.305.385.33.795.6.912.6s1.092.675 2.169 1.5c3.346 2.565 9.715 6.814 14.819 9.886 1.43.861 2.69 1.666 2.8 1.79.231.259 1.602 1.062 3.6 2.109.77.403 2.48 1.361 3.8 2.129 3.16 1.838 17.82 8.986 18.429 8.986.135 0 .698.357 1.253.793l1.008.793-1.102.419c-.607.23-4.182.529-7.945.665-7.767.278-6.519.603-14.843-3.857-2.42-1.297-5.3-2.834-6.4-3.417s-2.27-1.28-2.6-1.55-1.05-.713-1.6-.984c-2.076-1.024-10.79-6.538-12.858-8.136-.801-.619-1.576-1.126-1.721-1.126s-1.558-1.035-3.141-2.3-3.057-2.431-3.278-2.59c-.221-.16-1.688-1.375-3.261-2.7-1.572-1.326-3.059-2.41-3.305-2.41-.764 0-22.14-21.486-21.949-22.063.098-.295.614-.656 1.146-.802a157 157 0 0 0 3.567-1.078c3.709-1.16 3.917-1.114 6.488 1.43"/></g></svg>