<svg xmlns="http://www.w3.org/2000/svg" width="800" height="800" viewBox="0 0 600 600"><path d="M284.5 32.1C168 38.2 67.6 120.9 38.9 234.3c-10.4 41.3-10.4 90.2 0 131.4 24.8 97.6 104.2 174.8 201.9 196.2 90.5 19.8 182.3-7 247.7-72.3 95.3-95.4 105.6-243.8 24.3-351.8-4.8-6.4-9.2-11.9-9.7-12.2s-3.6-3.7-7-7.5l-6.1-6.9 2.5-3c12.9-15.4 8.3-36.1-10.6-47.3-18.4-10.9-44.4-13-63.2-5l-4 1.7-12.1-5.2C366.9 37.1 325.5 30 284.5 32.1m56.2 12.4c21.1 3.6 38.6 8.5 56.1 15.7 8.3 3.4 8.4 3.7 3.8 7.2-5.2 3.9-9.9 14.2-9.9 21.4 0 10.2 5.4 19.3 15.9 26.8l6.2 4.5.8 6.7c1.1 10.6 1.2 10.7 6.4 7.1 10.3-7 11.5-7.3 25.5-7.5 14.2-.2 24-2.3 32.5-7l4.5-2.5 2.5 2.9c1.4 1.6 5.4 6.3 9 10.3 33 37.3 52.5 79.6 61.7 133.9 2.2 13.1 2.5 55.9.5 68.5-6.7 41.6-17.5 72.1-36.6 102.8-80 129.3-252.7 162.9-373.9 72.9C22.5 416.7 4.6 241.4 106.9 127 165 62 255.7 30 340.7 44.5m119.8 18.6c11.5 2.1 24.7 10.9 27.4 18.2 7.4 19.6-13.4 35.3-45.7 34.6-11.5-.3-11.9-.2-15.3 2.4-4.1 3.1-4.9 2.7-4.9-2.2 0-3.4-.4-3.8-6.7-7.1-23.6-12.5-16.1-38.5 13-45.6 6.5-1.6 24.5-1.7 32.2-.3"/><path d="M182.6 84.7c-3.2 19.9 7.8 34.5 42.4 56.1 32 20 42.9 35 44.7 61.5.6 10.3 1.4 11.5 4.1 6.6 15.1-27.6 29.7-36.1 71.1-41.4 38.6-4.9 53.3-12.1 60-29.3 3.4-8.8 2.8-9.7-3.1-5-15.3 12.3-36.1 19.2-65.1 21.8-9.5.9-16.3 2.3-28.6 5.9-8.4 2.5-22.9 13.3-27.6 20.5-2.4 3.6-3.3 3.3-4.5-1.7-5.6-22.3-14.4-31.8-50.3-54.2-17.2-10.7-28.8-22.5-36.7-37.3-4.2-7.8-5.5-8.5-6.4-3.5"/><path d="M249 103.1c-17.1 2-29 4.8-29 6.8 0 .5 2.9 2.8 6.5 5.1l6.5 4.2 6.5-1.2c7.5-1.4 28.3-1.7 40-.6 17 1.6 49.9 14.1 60.9 23.1 5.1 4.2 5.8 4.3 14.9 2.6 8.2-1.6 8.3-2.4.4-8.2-21.1-15.6-43.4-25.6-65.7-29.4-7.8-1.4-30.1-3.7-32.5-3.4-.5.1-4.4.5-8.5 1m-71.6 32.2c-13.1 13.8-20.5 28.1-21.9 42.7-.3 3.6-1.7 13.7-3 22.5-4.3 28.6-5.6 43.6-6.2 68.5-.4 19-1 26.5-2.5 33.5-1.1 4.9-2.8 13-3.9 18-2.6 12.1-3.7 42.4-1.9 56.1 2.5 20.4 12.1 42.5 25.4 58.8l3.9 4.7 6.6-.6c41-4.2 72.4-25.6 89.5-61 8.9-18.3 11.5-32.3 11.6-61.1v-18.2l6.3-2.5c5.5-2.2 12.7-4.1 19.4-5 3.3-.5 3.4-.9 1.7-5.9-5.2-15.3-22.8-19.8-43-10.9-9.1 4.1-10 3.9-11.8-2.1-2.1-7.3-6.8-13.4-12.8-16.4-7-3.5-7.2-3.3-6.9 7.7.4 17.3-4.2 27.3-19.8 43-20.2 20.2-33.3 20.7-44.8 1.6-3.7-6.1-3.7-6.3-4-18.7-.4-14.2-1.2-13.9 7.6-2.6 5 6.3 20.7 21.8 23.9 23.5 1.9 1 2.7.7 6.2-2.5 5.1-4.6 5.1-4.7-1.2-10.2-12-10.5-21.4-21.6-29.8-35.1l-5-8-.1-10.9c-.1-11.4.8-19.9 2.1-20.7.4-.3 2 1.4 3.6 3.8 15.6 23 46.7 30.4 71.6 17 6.2-3.3 19.8-16.1 19.8-18.6 0-2.6-1.5-2.1-4.9 1.8-12 13.8-39.1 17.4-58 7.8-33.7-16.9-37.3-62-7.3-91.7 3.8-3.8 7.7-7.3 8.6-7.8 2.4-1.4 2-2.2-3.1-6.2-6.2-4.8-5.8-4.9-15.9 5.7M240 276.2c1.4 5 0 9.2-2.8 8.6-.9-.2-1.6-1.1-1.4-1.8.2-.8.6-3.6.9-6.2.7-5.9 1.9-6.1 3.3-.6m45.3 4.9c5.3 1.4 4.6 2.4-3.2 4.8-3.8 1.1-9.5 3.6-12.7 5.4l-5.9 3.3-.1 20.9c-.2 27.6-3.1 42.1-12 59.8-13.8 27.4-42.9 47.6-72.6 50.3l-6.7.7-5.4-8.4c-7.8-11.9-13.3-25.9-15.8-39.9-3.1-17.1-.4-62 3.8-62 .7 0 1.3.7 1.3 1.6 0 2.9 11.4 13 16.6 14.8 13.6 4.6 26.3-.2 42.4-16.4 21.2-21.2 43.5-33.4 65.5-35.9.6 0 2.7.4 4.8 1"/><path d="M215.5 160.9c-32 8.4-28.1 53.4 4.9 56.8 25.8 2.7 41.3-28.3 24-47.7-7.3-8.1-18.9-11.7-28.9-9.1m20 16.6c7.3 7.2-1.1 19.3-10.3 14.8-6-2.9-7.5-12.4-2.5-16.1 3-2.2 10.1-1.5 12.8 1.3m141.2-7c-6.6 1.8-6.5 1.5-2.2 10.6 19.2 40.8-4.7 85.1-46 85.1-23.7 0-40.8-12.2-50.1-35.7-.7-1.6-.9-1.3-1.2 1.7-.4 4.3 3.5 14.8 8.4 22.4 17.2 26.9 60.5 31.7 84.4 9.2l4.5-4.2 1.2 12.4c.7 6.8 2 14.8 2.8 17.8 2 6.8 1.6 7.1-4.2 3.9-17.4-9.3-43.1-10.5-59-2.7-19.6 9.7-29.6 30.3-29 60 .6 30.1 11.1 54.2 35.1 80.6 15.9 17.6 63 46.3 86.1 52.7 1.1.3 5.1 1.7 9 3.1 9.7 3.6 10.2 3.5 11.2-2.1.4-2.7.7-23.3.7-45.8 0-40.2 0-41.3-2.7-56.5-5-27.9-6.7-33.1-19.7-59.5-14.6-29.7-16.9-38-17-60.5 0-13.2 1.3-26.3 3.7-37 3.3-15 1.7-32.3-4.8-49-3.3-8.7-3.2-8.7-11.2-6.5M356 300.6c40.7 11.4 60.5 58 60 141.4-.2 23.7-.9 30.7-3 30.2-.8-.2-6.7-2.6-13-5.3-45.5-19.8-74.7-44-90-74.7-27.7-55.4-2.7-105.1 46-91.6"/><path d="M317.5 184.3c-15.3 5.1-23 17.6-20.5 33.2 3.5 21.2 28.1 31 45.9 18.2 13.5-9.7 15-31.3 2.9-43.6-6.7-6.9-19.9-10.5-28.3-7.8m7.9 12.1c10.2 4.2 7.6 17.6-3.4 17.6-10.4 0-12.8-14.7-3-18.3 2.3-.8 2.8-.8 6.4.7m-62.4 38c-2.6 4.3-13.2 14.2-16.1 15.1-1.5.5-2 1.3-1.6 2.8.4 1.9 6.7 18.8 7.1 19.4.8 1 24.6-10.3 24.6-11.6 0-.3-1.5-4.2-3.4-8.5s-4.2-10.8-5.2-14.2c-2-7.4-2.5-7.6-5.4-3m-25.5 188.7c-2.2 1.7-4.4 3.4-4.9 3.9-2.1 2.1 19.3 24.6 33.9 35.7 35.7 26.9 87 46.6 136.3 52.3 17 1.9 17.1 1.1 1.9-8.8-6.1-4.1-12.8-8.6-14.8-10-7.5-5.5-24.5-19.1-27.4-21.9-14.1-13.5-16.5-15.5-16.5-13.7 0 3.3 8.8 17.7 16.1 26.2 8.7 10.2 8.5 10.3-15.6 2.1-29.2-9.8-53.9-22.7-74.1-38.6-9.5-7.5-24-22.2-27.1-27.3-2.1-3.7-2.7-3.7-7.8.1m-36.2 18.8c-2.9.9-5.5 1.9-5.8 2.3-1 1 19.5 21.8 32 32.6 16.5 14.2 29 22.7 54.5 37.1l13.5 7.6 11.7-.2c16.7-.2 17.5-1.1 5.8-6.4-37.6-17-76.5-43.9-97.6-67.5-3.7-4.1-7.2-7.4-7.8-7.3s-3.4.9-6.3 1.8M421.8 83.1c-3 1.7-2.4 8.7.7 10.1 4.3 1.9 7.9 0 8.3-4.4.5-5.3-4.4-8.4-9-5.7m18 2.4c-3.2 7.2 6.4 11.7 10.8 5.1 2.5-4-.1-7.6-5.6-7.6-3.3 0-4.2.4-5.2 2.5m20.4-1.3c-1.8 1.8-1.4 6.3.7 8.2 4.6 4.2 11.9-1.1 9.3-6.8-1.3-2.9-7.6-3.8-10-1.4"/></svg>