<svg xmlns="http://www.w3.org/2000/svg" width="800" height="800" viewBox="0 0 600 600"><path d="M433 51.7c-41.7 7.2-56.3 42.5-26.3 64l6.1 4.4.8 6.7c1.1 10.6 1.2 10.7 6.4 7.1 10.3-7 11.5-7.3 25-7.4 62.4-.7 76.3-58.7 17.6-73.5-7.5-1.9-22.4-2.5-29.6-1.3m27.5 11.4c11.5 2.1 24.7 10.9 27.4 18.2 7.4 19.5-13.7 35.3-45.7 34.6-11.5-.3-11.9-.2-15.4 2.4-3.9 3-4.8 2.4-4.8-3.1 0-2.3-1-3.2-6.7-6.2-23.6-12.5-16.1-38.4 13-45.5 6.6-1.6 24.5-1.8 32.2-.4"/><path d="M422.3 83c-3.5 1.4-3.3 8.6.2 10.2 4.3 1.9 7.9 0 8.3-4.4.5-5.3-3.3-7.9-8.5-5.8m17.5 2.4c-2.2 5 3.6 10.7 8 7.9 5.8-3.6 4.3-9.6-2.6-10.1-3.7-.3-4.3 0-5.4 2.2m20.4-1.2c-1.8 1.8-1.4 6.3.7 8.2 4.6 4.2 11.9-1.1 9.3-6.8-1.3-2.9-7.6-3.8-10-1.4m-277.6.5c-3.2 19.9 7.8 34.5 42.4 56.1 33.6 20.9 44.8 37.7 45 66.9 0 5.1 1.4 5.5 3.8 1.2 15-27.4 31-36.8 71.2-41.4 38.3-4.4 54.3-12.6 60.5-30.8 2.4-7.1 1.7-7.8-3.7-3.4-14.3 11.6-36.5 19-64.7 21.7-10 .9-16.7 2.3-29 5.9-8.4 2.5-23 13.3-27.5 20.3-2.6 4-2.9 3.7-5.9-6-6.1-19.4-15.1-28.5-49.2-49.8-15-9.4-29.2-23.4-35.5-35.3-5.2-9.7-6.5-10.7-7.4-5.4"/><path d="M249 103.1c-17.1 2-29 4.8-29 6.8 0 .5 2.9 2.8 6.5 5.1l6.5 4.2 6.2-1c19.2-3.3 42.1-2 60.3 3.4 14.2 4.2 34.1 13.4 41.5 19.3 3 2.4 5.9 4 6.9 3.7.9-.3 4.4-1 7.9-1.7 7.7-1.4 7.7-2.2-.1-8-21-15.5-43.6-25.7-65.7-29.4-8.4-1.5-29.1-3.6-32-3.4-.8.1-4.9.5-9 1m-71.6 32.2c-14 14.7-20.7 28.5-22.3 46-.5 5.1-1.8 15-2.9 22.2-4.4 28-6.1 49.3-6.2 74.6 0 10.9-.5 16.9-2.1 24-1.1 5.2-2.9 13.4-4 18.4-2.6 12-3.6 41.1-2 55.4 2.5 20.8 11.9 42.9 25.5 59.5l3.9 4.7 6.6-.6c53.9-5.5 92.5-42.5 100.1-96 .5-3.9 1-15.4 1-25.6v-18.7l6.3-2.5c5.5-2.2 12.7-4.1 19.4-5 3.3-.5 3.4-.9 1.7-5.9-5.2-15.5-22.4-19.7-43.3-10.8-8.3 3.6-10.1 3.3-11.6-2.3-1.7-6.6-6.3-12.7-12.1-15.9-7.4-4.2-7.9-3.8-7.6 6.7.5 17.6-3.8 27.3-18.8 42.6-20.5 20.9-32.9 21.9-44.7 3.9-4.8-7.3-5.5-10.7-5.1-23.5l.3-9 3.4 5c4 5.7 24.5 26.7 27.8 28.4 2 1 2.7.7 6.3-2.5 5.1-4.6 5.1-4.7-1.2-10.2-12-10.5-21.4-21.6-29.8-35.1l-5-8-.1-10.9c-.1-11.4.8-19.9 2.1-20.7.4-.3 2 1.4 3.6 3.8 15.6 23 46.7 30.4 71.6 17 9.2-4.9 23.5-20.3 18.9-20.3-.5 0-2.3 1.6-4.1 3.6-12 13.7-39 17.2-58 7.7-34.4-17.3-37.3-62.6-5.8-92.9 4.8-4.7 8.8-8.6 8.8-8.8 0-.8-9.4-7.6-10.5-7.6-.7 0-5.3 4.2-10.1 9.3m62 138.4c2.1 7.5.9 12.4-2.7 11-1.3-.5-1.4-1.2-.6-3.9.5-1.8.9-4.5.9-6 0-3.1 1.6-3.8 2.4-1.1m47.9 7.9c3.2 1 1.7 2.2-5.2 4.3-3.8 1.1-9.5 3.6-12.7 5.4l-5.9 3.3-.1 20.9c-.2 27.6-3.1 42.1-12 59.8-13.8 27.4-42.9 47.6-72.6 50.3l-6.7.7-5.4-8.4c-5.7-8.7-7.2-11.8-11.3-22.9-4.6-12.7-5.7-20.3-5.7-40-.1-20.3 2.3-39 5-39 .7 0 1.3.7 1.3 1.6 0 2.9 11.4 13 16.6 14.8 13.6 4.6 26.3-.2 42.4-16.4 24.9-24.9 55-39.2 72.3-34.4"/><path d="M215.5 160.9c-26.6 6.9-30.4 42.4-5.8 53.8 29.2 13.5 55.9-21 34.7-44.7-7.3-8.1-18.9-11.7-28.9-9.1m20 16.6c6.7 6.6-.2 18.4-9 15.5-6.4-2.1-9-11.5-4.5-16 3-3 10.3-2.8 13.5.5m141.2-7c-6.4 1.8-6.4 1.6-3.2 8.2 5.9 12.5 7.5 19.3 7.5 31.6-.1 32.3-22.2 55.9-52.5 55.9-23.7 0-41.1-12.4-50.1-35.7-1.4-3.5-1.7 3.4-.4 8 11.3 39 61.8 53 92 25.5l4.5-4.1 1.2 12.2c.7 6.7 2 14.7 2.8 17.7 2 6.8 1.8 6.9-4.3 3.8-13.7-6.9-28.4-9.1-45.1-6.8-19.3 2.8-33.4 16.3-40.5 39-3.9 12.5-3.4 36.8 1.1 51.7 12.1 40.3 41.6 70.9 92.3 95.9 12.5 6.1 36 15.2 42.2 16.3 3.9.7 4.3-3.1 4.2-50.2 0-40.3 0-41.3-2.7-56.5-5-28-6.7-33.1-19.7-59.5-14.6-29.7-16.9-38-17-60.5 0-13.2 1.3-26.3 3.7-37 3.3-15 1.7-32.3-4.8-49-3.3-8.7-3.2-8.7-11.2-6.5M356 300.6c40.7 11.5 60.5 57.9 60 141.4-.2 23.8-.9 30.7-3 30.2-2.6-.6-13-5.2-26.5-11.7-37.7-18.3-62.6-40.5-76.5-68.3-27.6-55.3-2.6-105.2 46-91.6"/><path d="M317.5 184.3c-15.3 5.1-23 17.6-20.5 33.2 2.7 16.3 18.8 27.1 34.6 23.2 32.5-8.1 28.8-54-4.6-57.2-3.3-.3-7.1.1-9.5.8m7.9 12.1c10.2 4.2 7.6 17.6-3.4 17.6-10.4 0-12.8-14.7-3-18.3 2.3-.8 2.8-.8 6.4.7m-62.4 38c-2.6 4.3-13.2 14.2-16.1 15.1-1.5.5-2 1.3-1.6 2.8.5 1.9 6.7 18.8 7.2 19.4.6.9 24.5-10.4 24.5-11.6 0-.4-1.5-4.2-3.4-8.5s-4.2-10.8-5.2-14.2c-2-7.4-2.5-7.6-5.4-3m-25.5 188.7c-2.2 1.7-4.4 3.4-4.9 3.9-1.2 1.2 7.9 12.3 18.1 22.1 34.8 33.6 94 59.2 152.1 65.9 17 1.9 17.1 1.1 1.9-8.8-6.1-4.1-12.8-8.6-14.8-10-7.5-5.5-24.5-19.1-27.4-21.9-11.8-11.4-16.6-15.5-17.1-15-1.3 1.3 9.1 18.6 16.2 26.9 9.2 10.9 9.2 10.9-15.1 2.7-43.2-14.5-77.6-36.4-98.7-62.7-5.7-7.1-5.1-7-10.3-3.1m-36.2 18.8c-2.9.9-5.5 1.9-5.8 2.3-1 1 19.5 21.8 32 32.6 16.5 14.2 29 22.7 54.5 37.1l13.5 7.6 11.7-.2c16.4-.2 17.5-1.2 6.8-5.9-37-16.4-77.4-44.3-98.6-68-3.7-4.1-7.2-7.4-7.8-7.3s-3.4.9-6.3 1.8"/></svg>